<svg width="13" height="13" viewBox="0 0 13 13" fill="none" xmlns="http://www.w3.org/2000/svg">
<path d="M0.0312909 6.0568C0.0175794 3.28814 1.93719 0.810438 4.61129 0.154554C4.89255 0.08624 5.17944 0.053322 5.46492 0.00836933C5.54544 -0.00841716 5.62914 0.000177783 5.70462 0.0329846C5.78011 0.0657915 5.84373 0.121217 5.88682 0.191719C5.98561 0.341798 5.97823 0.498247 5.89385 0.65505C5.46422 1.45358 5.32324 2.3144 5.42519 3.20355C5.58587 4.6038 6.30098 5.64585 7.53466 6.31483C8.10661 6.6313 8.75513 6.78028 9.40681 6.74489C10.1508 6.70348 10.8131 6.44191 11.3999 5.98141C11.5405 5.87026 11.6886 5.81611 11.8629 5.88124C12.0373 5.94636 12.1372 6.10175 12.1305 6.30846C12.1078 7.22047 11.8689 8.1138 11.4337 8.91395C10.5136 10.5974 9.11782 11.6614 7.24039 12.0203C3.9004 12.6574 0.862067 10.5007 0.183171 7.36786C0.0903541 6.93922 0.0594167 6.49712 0 6.06105L0.0312909 6.0568ZM4.80853 1.00157C2.68254 1.4872 0.61491 3.69165 0.945393 6.6557C1.09292 7.98304 1.742 9.20237 2.75814 10.0611C3.77429 10.9197 5.07961 11.3519 6.40364 11.2681C9.18603 11.1067 10.8729 8.91218 11.1612 7.14026L11.0638 7.18592C9.89305 7.73491 8.70823 7.7427 7.52341 7.24858C5.42098 6.37218 4.18659 4.18826 4.64048 1.70418C4.68513 1.46845 4.75228 1.23696 4.80853 1.00157Z" 
fill="white"/>
</svg>
