<svg width="355" height="101" viewBox="0 0 355 101" fill="none" xmlns="http://www.w3.org/2000/svg">
<g clip-path="url(#clip0_1170_324)">
<line x1="-324.646" y1="-41.3536" x2="46.3535" y2="329.646" stroke="#2B2B2B" stroke-opacity="0.6"/>
<line x1="-315.646" y1="-41.3536" x2="55.3535" y2="329.646" stroke="#2B2B2B" stroke-opacity="0.6"/>
<line x1="-306.646" y1="-41.3536" x2="64.3535" y2="329.646" stroke="#2B2B2B" stroke-opacity="0.6"/>
<line x1="-297.646" y1="-41.3536" x2="73.3535" y2="329.646" stroke="#2B2B2B" stroke-opacity="0.6"/>
<line x1="-288.646" y1="-41.3536" x2="82.3535" y2="329.646" stroke="#2B2B2B" stroke-opacity="0.6"/>
<line x1="-279.646" y1="-41.3536" x2="91.3535" y2="329.646" stroke="#2B2B2B" stroke-opacity="0.6"/>
<line x1="-270.646" y1="-41.3536" x2="100.354" y2="329.646" stroke="#2B2B2B" stroke-opacity="0.6"/>
<line x1="-261.646" y1="-41.3536" x2="109.354" y2="329.646" stroke="#2B2B2B" stroke-opacity="0.6"/>
<line x1="-252.646" y1="-41.3536" x2="118.354" y2="329.646" stroke="#2B2B2B" stroke-opacity="0.6"/>
<line x1="-243.646" y1="-41.3536" x2="127.354" y2="329.646" stroke="#2B2B2B" stroke-opacity="0.6"/>
<line x1="-234.646" y1="-41.3536" x2="136.354" y2="329.646" stroke="#2B2B2B" stroke-opacity="0.6"/>
<line x1="-225.646" y1="-41.3536" x2="145.354" y2="329.646" stroke="#2B2B2B" stroke-opacity="0.6"/>
<line x1="-216.646" y1="-41.3536" x2="154.354" y2="329.646" stroke="#2B2B2B" stroke-opacity="0.6"/>
<line x1="-207.646" y1="-41.3536" x2="163.354" y2="329.646" stroke="#2B2B2B" stroke-opacity="0.6"/>
<line x1="-198.646" y1="-41.3536" x2="172.354" y2="329.646" stroke="#2B2B2B" stroke-opacity="0.6"/>
<line x1="-189.646" y1="-41.3536" x2="181.354" y2="329.646" stroke="#2B2B2B" stroke-opacity="0.6"/>
<line x1="-180.647" y1="-41.3536" x2="190.353" y2="329.646" stroke="#2B2B2B" stroke-opacity="0.6"/>
<line x1="-171.647" y1="-41.3536" x2="199.353" y2="329.646" stroke="#2B2B2B" stroke-opacity="0.6"/>
<line x1="-162.647" y1="-41.3536" x2="208.353" y2="329.646" stroke="#2B2B2B" stroke-opacity="0.6"/>
<line x1="-153.647" y1="-41.3536" x2="217.353" y2="329.646" stroke="#2B2B2B" stroke-opacity="0.6"/>
<line x1="-144.647" y1="-41.3536" x2="226.353" y2="329.646" stroke="#2B2B2B" stroke-opacity="0.6"/>
<line x1="-135.647" y1="-41.3536" x2="235.353" y2="329.646" stroke="#2B2B2B" stroke-opacity="0.6"/>
<line x1="-126.647" y1="-41.3536" x2="244.353" y2="329.646" stroke="#2B2B2B" stroke-opacity="0.6"/>
<line x1="-117.647" y1="-41.3536" x2="253.353" y2="329.646" stroke="#2B2B2B" stroke-opacity="0.6"/>
<line x1="-108.647" y1="-41.3536" x2="262.353" y2="329.646" stroke="#2B2B2B" stroke-opacity="0.6"/>
<line x1="-99.6469" y1="-41.3536" x2="271.353" y2="329.646" stroke="#2B2B2B" stroke-opacity="0.6"/>
<line x1="-90.6469" y1="-41.3536" x2="280.353" y2="329.646" stroke="#2B2B2B" stroke-opacity="0.6"/>
<line x1="-81.6469" y1="-41.3536" x2="289.353" y2="329.646" stroke="#2B2B2B" stroke-opacity="0.6"/>
<line x1="-72.6469" y1="-41.3536" x2="298.353" y2="329.646" stroke="#2B2B2B" stroke-opacity="0.6"/>
<line x1="-63.6469" y1="-41.3536" x2="307.353" y2="329.646" stroke="#2B2B2B" stroke-opacity="0.6"/>
<line x1="-54.6469" y1="-41.3536" x2="316.353" y2="329.646" stroke="#2B2B2B" stroke-opacity="0.6"/>
<line x1="-45.6469" y1="-41.3536" x2="325.353" y2="329.646" stroke="#2B2B2B" stroke-opacity="0.6"/>
<line x1="-36.6469" y1="-41.3536" x2="334.353" y2="329.646" stroke="#2B2B2B" stroke-opacity="0.6"/>
<line x1="-27.6469" y1="-41.3536" x2="343.353" y2="329.646" stroke="#2B2B2B" stroke-opacity="0.6"/>
<line x1="-18.6469" y1="-41.3536" x2="352.353" y2="329.646" stroke="#2B2B2B" stroke-opacity="0.6"/>
<line x1="-9.64693" y1="-41.3536" x2="361.353" y2="329.646" stroke="#2B2B2B" stroke-opacity="0.6"/>
<line x1="-0.646935" y1="-41.3536" x2="370.353" y2="329.646" stroke="#2B2B2B" stroke-opacity="0.6"/>
<line x1="8.35307" y1="-41.3536" x2="379.353" y2="329.646" stroke="#2B2B2B" stroke-opacity="0.6"/>
<line x1="17.3526" y1="-41.3536" x2="388.353" y2="329.646" stroke="#2B2B2B" stroke-opacity="0.6"/>
<line x1="26.3526" y1="-41.3536" x2="397.353" y2="329.646" stroke="#2B2B2B" stroke-opacity="0.6"/>
<line x1="35.3526" y1="-41.3536" x2="406.353" y2="329.646" stroke="#2B2B2B" stroke-opacity="0.6"/>
<line x1="44.3526" y1="-41.3536" x2="415.353" y2="329.646" stroke="#2B2B2B" stroke-opacity="0.6"/>
<line x1="53.3526" y1="-41.3536" x2="424.353" y2="329.646" stroke="#2B2B2B" stroke-opacity="0.6"/>
<line x1="62.3526" y1="-41.3536" x2="433.353" y2="329.646" stroke="#2B2B2B" stroke-opacity="0.6"/>
<line x1="71.3526" y1="-41.3536" x2="442.353" y2="329.646" stroke="#2B2B2B" stroke-opacity="0.6"/>
<line x1="80.3526" y1="-41.3536" x2="451.353" y2="329.646" stroke="#2B2B2B" stroke-opacity="0.6"/>
<line x1="89.3526" y1="-41.3536" x2="460.353" y2="329.646" stroke="#2B2B2B" stroke-opacity="0.6"/>
<line x1="98.3526" y1="-41.3536" x2="469.353" y2="329.646" stroke="#2B2B2B" stroke-opacity="0.6"/>
<line x1="107.353" y1="-41.3536" x2="478.353" y2="329.646" stroke="#2B2B2B" stroke-opacity="0.6"/>
<line x1="116.353" y1="-41.3536" x2="487.353" y2="329.646" stroke="#2B2B2B" stroke-opacity="0.6"/>
<line x1="125.353" y1="-41.3536" x2="496.353" y2="329.646" stroke="#2B2B2B" stroke-opacity="0.6"/>
<line x1="134.353" y1="-41.3536" x2="505.353" y2="329.646" stroke="#2B2B2B" stroke-opacity="0.6"/>
<line x1="143.353" y1="-41.3536" x2="514.353" y2="329.646" stroke="#2B2B2B" stroke-opacity="0.6"/>
<line x1="152.353" y1="-41.3536" x2="523.353" y2="329.646" stroke="#2B2B2B" stroke-opacity="0.6"/>
<line x1="161.353" y1="-41.3536" x2="532.353" y2="329.646" stroke="#2B2B2B" stroke-opacity="0.6"/>
<line x1="170.352" y1="-41.3536" x2="541.352" y2="329.646" stroke="#2B2B2B" stroke-opacity="0.6"/>
<line x1="179.352" y1="-41.3536" x2="550.352" y2="329.646" stroke="#2B2B2B" stroke-opacity="0.6"/>
<line x1="188.352" y1="-41.3536" x2="559.352" y2="329.646" stroke="#2B2B2B" stroke-opacity="0.6"/>
<line x1="197.352" y1="-41.3536" x2="568.352" y2="329.646" stroke="#2B2B2B" stroke-opacity="0.6"/>
<line x1="206.352" y1="-41.3536" x2="577.352" y2="329.646" stroke="#2B2B2B" stroke-opacity="0.6"/>
<line x1="215.352" y1="-41.3536" x2="586.352" y2="329.646" stroke="#2B2B2B" stroke-opacity="0.6"/>
<line x1="224.352" y1="-41.3536" x2="595.352" y2="329.646" stroke="#2B2B2B" stroke-opacity="0.6"/>
<line x1="233.352" y1="-41.3536" x2="604.352" y2="329.646" stroke="#2B2B2B" stroke-opacity="0.6"/>
<line x1="242.352" y1="-41.3536" x2="613.352" y2="329.646" stroke="#2B2B2B" stroke-opacity="0.6"/>
<line x1="251.352" y1="-41.3536" x2="622.352" y2="329.646" stroke="#2B2B2B" stroke-opacity="0.6"/>
<line x1="260.352" y1="-41.3536" x2="631.352" y2="329.646" stroke="#2B2B2B" stroke-opacity="0.6"/>
<line x1="269.352" y1="-41.3536" x2="640.352" y2="329.646" stroke="#2B2B2B" stroke-opacity="0.6"/>
<line x1="278.352" y1="-41.3536" x2="649.352" y2="329.646" stroke="#2B2B2B" stroke-opacity="0.6"/>
<line x1="287.352" y1="-41.3536" x2="658.352" y2="329.646" stroke="#2B2B2B" stroke-opacity="0.6"/>
<line x1="296.352" y1="-41.3536" x2="667.352" y2="329.646" stroke="#2B2B2B" stroke-opacity="0.6"/>
<line x1="305.352" y1="-41.3536" x2="676.352" y2="329.646" stroke="#2B2B2B" stroke-opacity="0.6"/>
<line x1="314.352" y1="-41.3536" x2="685.352" y2="329.646" stroke="#2B2B2B" stroke-opacity="0.6"/>
<line x1="323.352" y1="-41.3536" x2="694.352" y2="329.646" stroke="#2B2B2B" stroke-opacity="0.6"/>
<line x1="332.352" y1="-41.3536" x2="703.352" y2="329.646" stroke="#2B2B2B" stroke-opacity="0.6"/>
<line x1="341.352" y1="-41.3536" x2="712.352" y2="329.646" stroke="#2B2B2B" stroke-opacity="0.6"/>
<line x1="350.352" y1="-41.3536" x2="721.352" y2="329.646" stroke="#2B2B2B" stroke-opacity="0.6"/>
</g>
<defs>
<clipPath id="clip0_1170_324">
<rect width="355" height="101" fill="white"/>
</clipPath>
</defs>
</svg>
