<svg width="36" height="27" viewBox="0 0 36 27" fill="none" xmlns="http://www.w3.org/2000/svg">
<g clip-path="url(#clip0_2187_1995)">
<mask id="path-1-inside-1_2187_1995" fill="white">
<path d="M30.4564 20.4207C30.7083 20.1075 30.9603 19.7941 31.2402 19.5093L32.6679 18.0283C32.8517 17.8506 33.0681 17.7116 33.3047 17.6191C33.5414 17.5265 33.7936 17.4822 34.0471 17.4889C34.3005 17.4955 34.5502 17.5527 34.7819 17.6575C35.0135 17.7623 35.2227 17.9125 35.3973 18.0995C35.5719 18.2865 35.7086 18.5067 35.7996 18.7474C35.8906 18.9882 35.934 19.2449 35.9275 19.5027C35.921 19.7606 35.8647 20.0145 35.7617 20.2502C35.6587 20.4859 35.5111 20.6987 35.3273 20.8764L30.5964 25.6612L29.9245 26.4302C29.5522 26.8059 29.0491 27.0167 28.5248 27.0167C28.0005 27.0167 27.4974 26.8059 27.1251 26.4302L23.8498 23.0124L21.6103 20.734C21.409 20.5575 21.2475 20.339 21.1368 20.0932C21.0261 19.8475 20.9688 19.5803 20.9688 19.3099C20.9688 19.0396 21.0261 18.7724 21.1368 18.5266C21.2475 18.2809 21.409 18.0624 21.6103 17.8859C21.7811 17.6768 21.995 17.5084 22.2369 17.3929C22.4788 17.2774 22.7428 17.2175 23.01 17.2175C23.2773 17.2175 23.5412 17.2774 23.7831 17.3929C24.025 17.5084 24.239 17.6768 24.4097 17.8859L26.7892 20.3067V9.79721C26.7605 9.52266 26.7605 9.24586 26.7892 8.97132C26.8837 8.53073 27.1378 8.14259 27.5009 7.88399C27.864 7.62538 28.3095 7.5153 28.7488 7.57578C28.9717 7.56818 29.1938 7.60582 29.4023 7.68651C29.6107 7.7672 29.8013 7.8894 29.9628 8.04582C30.1244 8.20225 30.2537 8.38976 30.3433 8.59758C30.4328 8.80539 30.4808 9.02918 30.4844 9.25606C30.4844 10.4238 30.4844 11.5916 30.4844 12.7879V20.1643H30.6243"/>
</mask>
<path d="M30.4564 20.4207C30.7083 20.1075 30.9603 19.7941 31.2402 19.5093L32.6679 18.0283C32.8517 17.8506 33.0681 17.7116 33.3047 17.6191C33.5414 17.5265 33.7936 17.4822 34.0471 17.4889C34.3005 17.4955 34.5502 17.5527 34.7819 17.6575C35.0135 17.7623 35.2227 17.9125 35.3973 18.0995C35.5719 18.2865 35.7086 18.5067 35.7996 18.7474C35.8906 18.9882 35.934 19.2449 35.9275 19.5027C35.921 19.7606 35.8647 20.0145 35.7617 20.2502C35.6587 20.4859 35.5111 20.6987 35.3273 20.8764L30.5964 25.6612L29.9245 26.4302C29.5522 26.8059 29.0491 27.0167 28.5248 27.0167C28.0005 27.0167 27.4974 26.8059 27.1251 26.4302L23.8498 23.0124L21.6103 20.734C21.409 20.5575 21.2475 20.339 21.1368 20.0932C21.0261 19.8475 20.9688 19.5803 20.9688 19.3099C20.9688 19.0396 21.0261 18.7724 21.1368 18.5266C21.2475 18.2809 21.409 18.0624 21.6103 17.8859C21.7811 17.6768 21.995 17.5084 22.2369 17.3929C22.4788 17.2774 22.7428 17.2175 23.01 17.2175C23.2773 17.2175 23.5412 17.2774 23.7831 17.3929C24.025 17.5084 24.239 17.6768 24.4097 17.8859L26.7892 20.3067V9.79721C26.7605 9.52266 26.7605 9.24586 26.7892 8.97132C26.8837 8.53073 27.1378 8.14259 27.5009 7.88399C27.864 7.62538 28.3095 7.5153 28.7488 7.57578C28.9717 7.56818 29.1938 7.60582 29.4023 7.68651C29.6107 7.7672 29.8013 7.8894 29.9628 8.04582C30.1244 8.20225 30.2537 8.38976 30.3433 8.59758C30.4328 8.80539 30.4808 9.02918 30.4844 9.25606C30.4844 10.4238 30.4844 11.5916 30.4844 12.7879V20.1643H30.6243" fill="#749FFF"/>
<path d="M31.2402 19.5093L31.5968 19.8598L31.6002 19.8563L31.2402 19.5093ZM32.6679 18.0283L32.3204 17.6687L32.314 17.6749L32.3079 17.6813L32.6679 18.0283ZM35.3273 20.8764L34.9797 20.5168L34.9718 20.5248L35.3273 20.8764ZM30.5964 25.6612L30.2408 25.3096L30.23 25.3206L30.2198 25.3322L30.5964 25.6612ZM29.9245 26.4302L30.2796 26.7821L30.2907 26.771L30.301 26.7592L29.9245 26.4302ZM27.1251 26.4302L26.7641 26.7762L26.7699 26.7821L27.1251 26.4302ZM23.8498 23.0124L24.2109 22.6665L24.2064 22.6619L23.8498 23.0124ZM21.6103 20.734L21.9669 20.3835L21.9539 20.3703L21.9399 20.358L21.6103 20.734ZM21.6103 17.8859L21.9399 18.2619L21.9713 18.2344L21.9976 18.2021L21.6103 17.8859ZM24.4097 17.8859L24.0224 18.2021L24.037 18.22L24.0531 18.2364L24.4097 17.8859ZM26.7892 20.3067L26.4326 20.6572L27.2892 21.5287V20.3067H26.7892ZM26.7892 9.79721H27.2892V9.77112L27.2865 9.74518L26.7892 9.79721ZM26.7892 8.97132L26.3003 8.86647L26.2947 8.89266L26.2919 8.91929L26.7892 8.97132ZM28.7488 7.57578L28.6806 8.0711L28.723 8.07695L28.7658 8.07549L28.7488 7.57578ZM30.4844 9.25606H30.9844L30.9843 9.24814L30.4844 9.25606ZM30.4844 20.1643H29.9844V20.6643H30.4844V20.1643ZM30.846 20.7341C31.1007 20.4174 31.3372 20.1239 31.5968 19.8598L30.8836 19.1588C30.5833 19.4644 30.316 19.7975 30.0667 20.1074L30.846 20.7341ZM31.6002 19.8563L33.0278 18.3753L32.3079 17.6813L30.8802 19.1623L31.6002 19.8563ZM33.0154 18.3878C33.1518 18.2559 33.3121 18.1531 33.4869 18.0847L33.1226 17.1534C32.8241 17.2702 32.5515 17.4453 32.3204 17.6687L33.0154 18.3878ZM33.4869 18.0847C33.6616 18.0164 33.8475 17.9838 34.0341 17.9887L34.0601 16.989C33.7398 16.9807 33.4212 17.0366 33.1226 17.1534L33.4869 18.0847ZM34.0341 17.9887C34.2208 17.9936 34.4049 18.0357 34.5758 18.113L34.9879 17.2019C34.6956 17.0697 34.3803 16.9974 34.0601 16.989L34.0341 17.9887ZM34.5758 18.113C34.7469 18.1904 34.9019 18.3016 35.0318 18.4408L35.7627 17.7583C35.5434 17.5234 35.2802 17.3341 34.9879 17.2019L34.5758 18.113ZM35.0318 18.4408C35.1617 18.5799 35.2638 18.744 35.3319 18.9242L36.2673 18.5707C36.1534 18.2693 35.9821 17.9932 35.7627 17.7583L35.0318 18.4408ZM35.3319 18.9242C35.3999 19.1043 35.4326 19.2967 35.4277 19.4901L36.4274 19.5153C36.4355 19.193 36.3812 18.872 36.2673 18.5707L35.3319 18.9242ZM35.4277 19.4901C35.4228 19.6835 35.3806 19.8737 35.3036 20.05L36.2199 20.4504C36.3489 20.1553 36.4193 19.8376 36.4274 19.5153L35.4277 19.4901ZM35.3036 20.05C35.2265 20.2263 35.1164 20.3849 34.9798 20.5168L35.6748 21.2359C35.9059 21.0125 36.0909 20.7455 36.2199 20.4504L35.3036 20.05ZM34.9718 20.5248L30.2408 25.3096L30.9519 26.0127L35.6829 21.2279L34.9718 20.5248ZM30.2198 25.3322L29.5479 26.1012L30.301 26.7592L30.9729 25.9901L30.2198 25.3322ZM29.5693 26.0783C29.29 26.3601 28.9144 26.5167 28.5248 26.5167V27.5167C29.1839 27.5167 29.8144 27.2516 30.2796 26.7821L29.5693 26.0783ZM28.5248 26.5167C28.1352 26.5167 27.7596 26.3601 27.4803 26.0783L26.7699 26.7821C27.2352 27.2516 27.8657 27.5167 28.5248 27.5167V26.5167ZM27.4861 26.0842L24.2108 22.6665L23.4888 23.3584L26.7641 26.7761L27.4861 26.0842ZM24.2064 22.6619L21.9669 20.3835L21.2537 21.0845L23.4933 23.3629L24.2064 22.6619ZM21.9399 20.358C21.7928 20.229 21.6742 20.0688 21.5927 19.8879L20.6809 20.2986C20.8208 20.6092 21.0253 20.886 21.2807 21.11L21.9399 20.358ZM21.5927 19.8879C21.5111 19.7069 21.4688 19.5097 21.4688 19.3099H20.4688C20.4688 19.6509 20.541 19.9881 20.6809 20.2986L21.5927 19.8879ZM21.4688 19.3099C21.4688 19.1102 21.5111 18.913 21.5927 18.732L20.6809 18.3213C20.541 18.6318 20.4688 18.969 20.4688 19.3099H21.4688ZM21.5927 18.732C21.6742 18.5511 21.7928 18.3908 21.9399 18.2619L21.2807 17.5099C21.0253 17.7339 20.8208 18.0107 20.6809 18.3213L21.5927 18.732ZM21.9976 18.2021C22.1221 18.0496 22.2775 17.9276 22.4524 17.8441L22.0215 16.9417C21.7125 17.0892 21.44 17.3039 21.223 17.5697L21.9976 18.2021ZM22.4524 17.8441C22.6272 17.7606 22.8176 17.7175 23.01 17.7175V16.7175C22.668 16.7175 22.3304 16.7942 22.0215 16.9417L22.4524 17.8441ZM23.01 17.7175C23.2025 17.7175 23.3928 17.7606 23.5677 17.8441L23.9986 16.9417C23.6896 16.7942 23.352 16.7175 23.01 16.7175V17.7175ZM23.5677 17.8441C23.7425 17.9276 23.8979 18.0496 24.0224 18.2021L24.797 17.5697C24.58 17.3039 24.3075 17.0892 23.9986 16.9417L23.5677 17.8441ZM24.0531 18.2364L26.4326 20.6572L27.1458 19.9562L24.7663 17.5354L24.0531 18.2364ZM27.2892 20.3067V9.79721H26.2892V20.3067H27.2892ZM27.2865 9.74518C27.2614 9.50523 27.2614 9.2633 27.2865 9.02334L26.2919 8.91929C26.2596 9.22842 26.2596 9.5401 26.2919 9.84923L27.2865 9.74518ZM27.2781 9.07617C27.3467 8.75624 27.5307 8.47657 27.7909 8.29126L27.2108 7.47671C26.7448 7.80861 26.4207 8.30522 26.3003 8.86647L27.2781 9.07617ZM27.7909 8.29126C28.0509 8.10612 28.3684 8.02813 28.6806 8.0711L28.8169 7.08045C28.2506 7.00248 27.6771 7.14464 27.2108 7.47671L27.7909 8.29126ZM28.7658 8.07549C28.9211 8.0702 29.0761 8.09641 29.2218 8.15279L29.5828 7.22023C29.3115 7.11523 29.0222 7.06617 28.7317 7.07607L28.7658 8.07549ZM29.2218 8.15279C29.3674 8.20916 29.5012 8.29479 29.6151 8.40505L30.3106 7.6866C30.1014 7.48402 29.854 7.32524 29.5828 7.22023L29.2218 8.15279ZM29.6151 8.40505C29.7289 8.5153 29.8205 8.64789 29.8841 8.79543L30.8025 8.39972C30.6869 8.13163 30.5199 7.88919 30.3106 7.6866L29.6151 8.40505ZM29.8841 8.79543C29.9477 8.94304 29.9819 9.10229 29.9844 9.26398L30.9843 9.24814C30.9797 8.95608 30.9179 8.66774 30.8025 8.39972L29.8841 8.79543ZM29.9844 9.25606C29.9844 10.4324 29.9844 11.583 29.9844 12.7879H30.9844C30.9844 11.583 30.9844 10.4324 30.9844 9.25606H29.9844ZM29.9844 12.7879V20.1643H30.9844V12.7879H29.9844ZM30.4844 20.6643H30.6243V19.6643H30.4844V20.6643Z" fill="white" mask="url(#path-1-inside-1_2187_1995)"/>
<path d="M0.248798 1.82468L0.250497 1.81102L0.250684 1.79725C0.253541 1.58741 0.298309 1.38052 0.382134 1.18903C0.465958 0.997534 0.587019 0.825631 0.737712 0.683757C0.888353 0.541931 1.06555 0.433046 1.25851 0.363265C1.45148 0.293484 1.65613 0.26429 1.86011 0.277513L1.86819 0.278036H1.87629H24.6556C25.0582 0.303581 25.4386 0.478517 25.7243 0.770995C26.0118 1.06529 26.1831 1.45799 26.2043 1.87402C26.2255 2.29006 26.095 2.69884 25.8388 3.02209C25.5868 3.33997 25.2309 3.55296 24.8379 3.62308H13.2698H1.68947C1.48001 3.60717 1.27556 3.54839 1.08833 3.4502C0.898593 3.35069 0.730579 3.21283 0.594692 3.04463C0.458742 2.87634 0.357781 2.68134 0.298235 2.47152C0.238688 2.26169 0.221851 2.04148 0.248798 1.82468Z" fill="#749FFF" stroke="white" stroke-width="0.5"/>
<mask id="path-4-inside-2_2187_1995" fill="white">
<path d="M10.385 13.4712H1.98691C1.68025 13.4942 1.3728 13.4388 1.09246 13.3103C0.812117 13.1817 0.567735 12.9841 0.381467 12.7352C0.195199 12.4863 0.0729512 12.194 0.0257783 11.8848C-0.0213946 11.5757 0.00801311 11.2595 0.111337 10.9649C0.197604 10.6134 0.389692 10.2981 0.660738 10.0632C0.931785 9.82829 1.26821 9.68547 1.62298 9.65469H18.6432C18.9411 9.62552 19.2411 9.62552 19.539 9.65469C19.9691 9.76304 20.3445 10.0298 20.5927 10.4032C20.8408 10.7767 20.9442 11.2305 20.8827 11.6769C20.8755 12.1354 20.6933 12.573 20.3746 12.8972C20.0559 13.2215 19.6257 13.4069 19.1751 13.4142H10.413"/>
</mask>
<path d="M10.385 13.4712H1.98691C1.68025 13.4942 1.3728 13.4388 1.09246 13.3103C0.812117 13.1817 0.567735 12.9841 0.381467 12.7352C0.195199 12.4863 0.0729512 12.194 0.0257783 11.8848C-0.0213946 11.5757 0.00801311 11.2595 0.111337 10.9649C0.197604 10.6134 0.389692 10.2981 0.660738 10.0632C0.931785 9.82829 1.26821 9.68547 1.62298 9.65469H18.6432C18.9411 9.62552 19.2411 9.62552 19.539 9.65469C19.9691 9.76304 20.3445 10.0298 20.5927 10.4032C20.8408 10.7767 20.9442 11.2305 20.8827 11.6769C20.8755 12.1354 20.6933 12.573 20.3746 12.8972C20.0559 13.2215 19.6257 13.4069 19.1751 13.4142H10.413" fill="#749FFF"/>
<path d="M1.98691 13.4712V12.9712H1.96825L1.94963 12.9726L1.98691 13.4712ZM0.111337 10.9649L0.583168 11.1303L0.591163 11.1075L0.596923 11.0841L0.111337 10.9649ZM1.62298 9.65469V9.15469H1.60133L1.57977 9.15656L1.62298 9.65469ZM18.6432 9.65469V10.1547H18.6676L18.6919 10.1523L18.6432 9.65469ZM19.539 9.65469L19.6612 9.16984L19.6249 9.16071L19.5878 9.15707L19.539 9.65469ZM20.8827 11.6769L20.3874 11.6087L20.3833 11.6387L20.3828 11.669L20.8827 11.6769ZM19.1751 13.4142V13.9143L19.1832 13.9141L19.1751 13.4142ZM10.385 12.9712H1.98691V13.9712H10.385V12.9712ZM1.94963 12.9726C1.7276 12.9892 1.50464 12.9492 1.30083 12.8557L0.884093 13.7648C1.24097 13.9284 1.6329 13.9991 2.0242 13.9698L1.94963 12.9726ZM1.30083 12.8557C1.097 12.7623 0.918406 12.6182 0.781786 12.4356L-0.018852 13.0348C0.217064 13.35 0.527237 13.6012 0.884093 13.7648L1.30083 12.8557ZM0.781786 12.4356C0.645128 12.253 0.554906 12.0378 0.520057 11.8094L-0.4685 11.9602C-0.409004 12.3501 -0.25473 12.7196 -0.018852 13.0348L0.781786 12.4356ZM0.520057 11.8094C0.485213 11.5811 0.506972 11.3476 0.583168 11.1303L-0.360495 10.7994C-0.490946 11.1714 -0.528003 11.5703 -0.4685 11.9602L0.520057 11.8094ZM0.596923 11.0841C0.658769 10.8321 0.796144 10.6075 0.988206 10.441L0.333271 9.68536C-0.0167592 9.98872 -0.26356 10.3947 -0.374249 10.8457L0.596923 11.0841ZM0.988206 10.441C1.18017 10.2747 1.4173 10.1744 1.6662 10.1528L1.57977 9.15656C1.11912 9.19653 0.683395 9.38192 0.333271 9.68536L0.988206 10.441ZM1.62298 10.1547H18.6432V9.15469H1.62298V10.1547ZM18.6919 10.1523C18.9574 10.1263 19.2248 10.1263 19.4903 10.1523L19.5878 9.15707C19.2574 9.12473 18.9248 9.12473 18.5945 9.15707L18.6919 10.1523ZM19.4169 10.1395C19.7249 10.2171 19.996 10.4087 20.1762 10.6799L21.0091 10.1265C20.693 9.65077 20.2133 9.30893 19.6612 9.16984L19.4169 10.1395ZM20.1762 10.6799C20.3566 10.9513 20.4323 11.2823 20.3874 11.6087L21.378 11.7451C21.456 11.1786 21.3251 10.602 21.0091 10.1265L20.1762 10.6799ZM20.3828 11.669C20.3776 12.0004 20.2458 12.3149 20.018 12.5467L20.7312 13.2477C21.1407 12.8311 21.3734 12.2704 21.3827 11.6848L20.3828 11.669ZM20.018 12.5467C19.7904 12.7783 19.485 12.9091 19.167 12.9143L19.1832 13.9141C19.7664 13.9046 20.3214 13.6647 20.7312 13.2477L20.018 12.5467ZM19.1751 12.9142H10.413V13.9142H19.1751V12.9142Z" fill="white" mask="url(#path-4-inside-2_2187_1995)"/>
<path d="M1.95902 22.8768H1.94924L1.93949 22.8775C1.66865 22.8987 1.39672 22.8502 1.14857 22.7364C0.900453 22.6227 0.68397 22.4471 0.519297 22.2253C0.354582 22.0035 0.247068 21.7429 0.207014 21.4672C0.166956 21.1915 0.195698 20.9099 0.29048 20.6486L0.290803 20.6488L0.294627 20.6362C0.396031 20.3031 0.602842 20.0145 0.881798 19.815C1.16069 19.6155 1.49616 19.516 1.83568 19.5314L1.83567 19.5317H1.84706H13.0446H13.0613L13.0778 19.5295C13.3738 19.4898 13.6735 19.4889 13.9697 19.5267C14.3247 19.6429 14.6262 19.8892 14.8149 20.2196C15.0072 20.5563 15.0677 20.9549 14.9839 21.3355L14.9802 21.3524L14.9789 21.3696C14.9481 21.76 14.7705 22.1223 14.4845 22.3814C14.1986 22.6404 13.8264 22.7766 13.4455 22.7629L13.4455 22.7625L13.4316 22.7628L7.55535 22.8768H1.95902Z" fill="#749FFF" stroke="white" stroke-width="0.5"/>
</g>
<defs>
<clipPath id="clip0_2187_1995">
<rect width="36" height="27" fill="white"/>
</clipPath>
</defs>
</svg>
