<svg width="28" height="28" viewBox="0 0 28 28" fill="none" xmlns="http://www.w3.org/2000/svg">
<g clip-path="url(#clip0_2187_2000)">
<path d="M0 27.1411V26.7005L1.71698 21.3031C1.75942 21.2215 1.78157 21.1308 1.78157 21.0388C1.78157 20.9467 1.75942 20.8561 1.71698 20.7744C0.96339 19.4032 0.44969 17.913 0.198105 16.3685L0 14.9585V13.2623C0.0103663 13.1819 0.0103663 13.1004 0 13.02C0.119461 11.0903 0.660482 9.21025 1.58491 7.51252C2.57185 5.62426 3.98131 3.98963 5.70337 2.73624C7.42542 1.48285 9.4135 0.644534 11.5126 0.286651L13.1195 0.0664062H14.7704H14.9685C16.1693 0.153221 17.3535 0.397547 18.4906 0.793296C21.4746 1.82022 24.0245 3.82594 25.7266 6.48512C27.4287 9.14429 28.1833 12.301 27.8679 15.4432C27.6726 17.6879 26.9156 19.847 25.6667 21.7217C24.4527 23.6154 22.7914 25.1808 20.8297 26.2796C18.8679 27.3785 16.6659 27.9771 14.4182 28.0224C11.9201 28.1285 9.44206 27.5332 7.26416 26.304C7.18542 26.2651 7.09879 26.2449 7.011 26.2449C6.92321 26.2449 6.83658 26.2651 6.75784 26.304L1.54087 27.9783C1.34552 28.0673 1.12805 28.096 0.916295 28.0607C0.704536 28.0254 0.508132 27.9276 0.352209 27.7799C0.20946 27.6058 0.0909708 27.4132 0 27.2073M2.79557 25.2905C3.96224 24.916 4.99684 24.5857 6.20753 24.1671C6.54383 24.0302 6.90874 23.9786 7.26977 24.0171C7.63079 24.0555 7.97672 24.1827 8.27672 24.3874C10.7327 25.806 13.6301 26.2539 16.3993 25.6431C19.2801 25.056 21.83 23.3942 23.5315 20.9948C25.3672 18.4736 26.1272 15.3258 25.6442 12.2439C25.1613 9.16195 23.4748 6.39817 20.9559 4.56046C19.6452 3.55559 18.1298 2.8512 16.517 2.49717C14.9041 2.14314 13.2333 2.14812 11.6226 2.51169C8.64438 3.1259 6.01719 4.86513 4.28717 7.36784C2.55715 9.87055 1.85738 12.9442 2.33333 15.9499C2.5752 17.4548 3.10591 18.8986 3.8962 20.2016C4.01376 20.3782 4.08714 20.5805 4.11013 20.7914C4.13312 21.0023 4.10506 21.2156 4.02831 21.4134C3.85221 21.9421 3.69809 22.4708 3.52199 22.9995C3.34589 23.5282 3.03771 24.4975 2.79557 25.2025" fill="#749FFF"/>
<path d="M9.88383 14.0114C9.88383 14.3736 9.74004 14.721 9.4841 14.9772C9.22815 15.2333 8.88103 15.3772 8.51907 15.3772C8.1571 15.3772 7.80998 15.2333 7.55403 14.9772C7.29809 14.721 7.1543 14.3736 7.1543 14.0114C7.1543 13.6491 7.29809 13.3018 7.55403 13.0457C7.80998 12.7895 8.1571 12.6455 8.51907 12.6455C8.69727 12.6455 8.87371 12.6809 9.03808 12.7498C9.20244 12.8188 9.35143 12.9197 9.47641 13.0469C9.60139 13.174 9.69984 13.3247 9.76601 13.4903C9.83218 13.6559 9.86476 13.833 9.86183 14.0114" fill="#749FFF"/>
<path d="M13.9567 15.3772C13.5948 15.3772 13.2477 15.2333 12.9917 14.9772C12.7358 14.721 12.592 14.3736 12.592 14.0114C12.5891 13.833 12.6216 13.6559 12.6878 13.4903C12.754 13.3247 12.8524 13.174 12.9774 13.0469C13.1024 12.9197 13.2514 12.8188 13.4157 12.7498C13.5801 12.6809 13.7565 12.6455 13.9347 12.6455C14.2967 12.6455 14.6438 12.7895 14.8998 13.0457C15.1557 13.3018 15.2995 13.6491 15.2995 14.0114C15.2995 14.3736 15.1557 14.721 14.8998 14.9772C14.6438 15.2333 14.2967 15.3772 13.9347 15.3772" fill="#749FFF"/>
<path d="M19.4585 12.6455C19.7284 12.6455 19.9923 12.7256 20.2167 12.8757C20.4412 13.0258 20.6161 13.2391 20.7194 13.4887C20.8227 13.7383 20.8497 14.0129 20.7971 14.2779C20.7444 14.5428 20.6145 14.7862 20.4236 14.9772C20.2327 15.1682 19.9895 15.2983 19.7247 15.351C19.46 15.4037 19.1856 15.3766 18.9362 15.2733C18.6868 15.1699 18.4737 14.9949 18.3238 14.7702C18.1738 14.5456 18.0937 14.2815 18.0938 14.0114C18.0937 13.6491 18.2375 13.3018 18.4935 13.0457C18.7494 12.7895 19.0966 12.6455 19.4585 12.6455Z" fill="#749FFF"/>
</g>
<defs>
<clipPath id="clip0_2187_2000">
<rect width="28" height="28" fill="white"/>
</clipPath>
</defs>
</svg>
