<svg width="28" height="30" viewBox="0 0 28 30" fill="none" xmlns="http://www.w3.org/2000/svg">
<g clip-path="url(#clip0_2187_2005)">
<path d="M4.35915 30.0003C3.81899 29.8783 3.28917 29.7175 2.77423 29.5192C1.98597 29.1445 1.3217 28.5673 0.855334 27.8521C0.388971 27.137 0.138821 26.3118 0.132723 25.4685C0.132723 24.8609 0.132723 24.2534 0.132723 23.6458V4.81036C0.103797 3.81211 0.412197 2.83156 1.01196 2.01495C1.61173 1.19834 2.47078 0.589438 3.46105 0.278772C3.97851 0.104454 4.52389 0.018667 5.07233 0.0255149H19.9705C20.6176 0.0120291 21.261 0.122571 21.8629 0.350624C22.4649 0.578676 23.0133 0.919702 23.4758 1.35361C23.9384 1.78752 24.3059 2.30561 24.5567 2.87748C24.8075 3.44934 24.9367 4.06347 24.9365 4.68381C24.9365 6.98761 24.9365 9.29136 24.9365 11.5952C24.9625 11.7642 24.9501 11.9367 24.9003 12.1007C24.8504 12.2648 24.7643 12.4167 24.6478 12.5461C24.5312 12.6754 24.387 12.779 24.2249 12.8502C24.0628 12.9213 23.8865 12.9582 23.7082 12.9582C23.5299 12.9582 23.3537 12.9213 23.1916 12.8502C23.0295 12.779 22.8852 12.6754 22.7686 12.5461C22.6521 12.4167 22.566 12.2648 22.5161 12.1007C22.4663 11.9367 22.454 11.7642 22.4799 11.5952V4.8357C22.4978 4.45145 22.4182 4.0687 22.2479 3.72038C22.0777 3.37206 21.8219 3.06846 21.5025 2.8356C21.0719 2.51652 20.5412 2.34692 19.9969 2.35459H5.04597C4.70499 2.35014 4.36675 2.41387 4.05283 2.54155C3.73891 2.66924 3.45617 2.85814 3.2226 3.09628C2.98903 3.33442 2.80977 3.61663 2.6962 3.92481C2.58263 4.23299 2.53725 4.56033 2.56295 4.88623V25.1394C2.53504 25.6027 2.65373 26.0633 2.90354 26.4608C3.15334 26.8584 3.52262 27.1742 3.96294 27.3673C4.32943 27.5204 4.72541 27.5981 5.12521 27.5952C5.9705 27.5952 6.81578 27.5952 7.76672 27.5952C8.07938 27.5638 8.39304 27.6449 8.64685 27.8226C8.90066 28.0004 9.0765 28.2622 9.14028 28.5572C9.18923 28.8512 9.12143 29.152 8.95028 29.4004C8.77912 29.6488 8.51703 29.8266 8.21574 29.8989H4.57052L4.35915 30.0003Z" fill="#749FFF"/>
<path d="M13.2071 30.0002C12.9521 29.9296 12.7045 29.8362 12.4675 29.7216C11.9587 29.472 11.558 29.0586 11.3357 28.5539C11.1135 28.0492 11.084 27.4857 11.2524 26.9622C11.5367 25.774 12.0946 24.6617 12.8853 23.7068C13.676 22.7519 14.6794 21.9785 15.8222 21.4432H15.9806C15.3821 20.7788 14.9953 19.9637 14.8662 19.0947C14.737 18.2257 14.871 17.3395 15.2522 16.5414C15.6334 15.7433 16.2457 15.0668 17.0164 14.5926C17.7871 14.1184 18.6836 13.8662 19.5995 13.8662C20.5153 13.8662 21.412 14.1184 22.1826 14.5926C22.9533 15.0668 23.5656 15.7433 23.9468 16.5414C24.328 17.3395 24.462 18.2257 24.3329 19.0947C24.2038 19.9637 23.817 20.7788 23.2184 21.4432C23.7731 21.7977 24.3542 22.1014 24.8825 22.5065C26.4557 23.6769 27.5421 25.3464 27.9467 27.2153C28.0894 27.826 27.9754 28.466 27.6293 28.9967C27.2832 29.5275 26.733 29.9061 26.0977 30.0507H25.9392L13.2071 30.0002ZM25.5429 27.6458C25.2534 26.334 24.5023 25.1573 23.4155 24.313C22.3287 23.4686 20.9722 23.0077 19.5731 23.0077C18.1741 23.0077 16.8176 23.4686 15.7307 24.313C14.6439 25.1573 13.8928 26.334 13.6033 27.6458H25.5429ZM19.6259 16.1267C19.1652 16.1167 18.7118 16.2382 18.3232 16.4757C17.9347 16.7132 17.6286 17.056 17.4438 17.4606C17.259 17.8653 17.2039 18.3134 17.2854 18.7481C17.3669 19.1828 17.5814 19.5844 17.9016 19.902C18.2219 20.2197 18.6334 20.4389 19.0839 20.5319C19.5344 20.6249 20.0036 20.5875 20.4318 20.4243C20.8601 20.2612 21.2281 19.9797 21.4891 19.6157C21.7501 19.2517 21.8923 18.8215 21.8977 18.3799C21.898 17.7952 21.6612 17.2333 21.2373 16.8129C20.8134 16.3925 20.2356 16.1464 19.6259 16.1267Z" fill="#749FFF"/>
<path d="M12.4153 7.01274H18.6228C18.8937 6.99927 19.1617 7.07119 19.3859 7.21748C19.6101 7.36378 19.7781 7.57642 19.8643 7.82289C19.9204 7.98805 19.9373 8.16306 19.9137 8.33527C19.8901 8.50749 19.8265 8.67251 19.7277 8.81815C19.629 8.96378 19.4974 9.08648 19.3428 9.1771C19.1882 9.26771 19.0144 9.32392 18.8342 9.34181H6.26054C6.08648 9.37382 5.90731 9.36982 5.73503 9.32992C5.56275 9.29001 5.40136 9.21515 5.26176 9.1105C5.12215 9.00584 5.00758 8.87376 4.92568 8.72312C4.84378 8.57248 4.79646 8.40678 4.78695 8.23715C4.77743 8.06753 4.80589 7.89795 4.87046 7.73976C4.93504 7.58157 5.03422 7.43848 5.16131 7.32008C5.28841 7.20169 5.44052 7.11076 5.60734 7.05338C5.77416 6.99601 5.95186 6.97347 6.1285 6.9874H12.4153" fill="#749FFF"/>
<path d="M10.0635 14.076H6.25976C6.02966 14.091 5.8003 14.0384 5.60212 13.9254C5.40395 13.8123 5.24639 13.6441 5.15037 13.4431C5.04685 13.2665 4.9943 13.0666 4.99826 12.864C5.00221 12.6614 5.06251 12.4635 5.17286 12.2907C5.28321 12.1179 5.43965 11.9764 5.62606 11.8808C5.81248 11.7852 6.02207 11.739 6.23332 11.747H13.9466C14.1071 11.7435 14.2668 11.7713 14.4158 11.8286C14.5649 11.8859 14.7002 11.9716 14.8138 12.0804C14.9273 12.1893 15.0167 12.3189 15.0765 12.4618C15.1363 12.6046 15.1652 12.7577 15.1616 12.9116C15.1617 13.0667 15.1294 13.2201 15.0667 13.3631C15.004 13.5061 14.9121 13.6357 14.7965 13.7441C14.6808 13.8526 14.5437 13.9377 14.3932 13.9948C14.2428 14.0518 14.0819 14.0794 13.9201 14.076H10.0635Z" fill="#749FFF"/>
<path d="M8.69037 16.4307H11.0941C11.4164 16.4307 11.7254 16.5534 11.9533 16.7718C12.1812 16.9902 12.3092 17.2864 12.3092 17.5953C12.3092 17.9041 12.1812 18.2003 11.9533 18.4187C11.7254 18.6371 11.4164 18.7599 11.0941 18.7599H6.20734C5.88508 18.7599 5.57597 18.6371 5.34809 18.4187C5.12022 18.2003 4.99219 17.9041 4.99219 17.5953C4.99219 17.2864 5.12022 16.9902 5.34809 16.7718C5.57597 16.5534 5.88508 16.4307 6.20734 16.4307H8.69037Z" fill="#749FFF"/>
</g>
<defs>
<clipPath id="clip0_2187_2005">
<rect width="28" height="30" fill="white"/>
</clipPath>
</defs>
</svg>
