<svg width="31" height="31" viewBox="0 0 31 31" fill="none" xmlns="http://www.w3.org/2000/svg">
<path d="M25.672 13.9422H27.0891C27.0891 13.9422 27.0891 14.1702 27.0891 14.2715C27.0891 17.7413 27.0891 21.2112 27.0891 24.6557C27.1119 25.8443 26.7162 27.0032 25.9714 27.9292C25.2265 28.8553 24.18 29.4896 23.0149 29.7212C22.6617 29.7599 22.3053 29.7599 21.9521 29.7212H6.4146C5.07231 29.7212 3.78501 29.1874 2.83587 28.2375C1.88673 27.2875 1.35352 25.9991 1.35352 24.6557C1.35352 19.5902 1.35352 14.2967 1.35352 9.10456C1.35352 7.76111 1.88673 6.47275 2.83587 5.52279C3.78501 4.57282 5.07231 4.03906 6.4146 4.03906H17.0176V5.48275H6.36401C5.49911 5.44798 4.65175 5.73365 3.9841 6.28505C3.31646 6.83646 2.8754 7.61486 2.74532 8.47138C2.72025 8.69863 2.72025 8.92801 2.74532 9.15527V24.7823C2.70977 25.6442 2.99165 26.4893 3.53743 27.1569C4.08321 27.8246 4.8549 28.2683 5.70605 28.4041C5.97535 28.4301 6.24654 28.4301 6.51584 28.4041H21.9268C22.7901 28.4254 23.6328 28.1393 24.3048 27.5966C24.9769 27.0538 25.4345 26.2898 25.5961 25.4408C25.6213 25.1374 25.6213 24.8325 25.5961 24.5291C25.5961 21.1859 25.5961 17.8426 25.5961 14.3981L25.672 13.9422Z" fill="#749FFF"/>
<path d="M25.672 13.9422H27.0891C27.0891 13.9422 27.0891 14.1702 27.0891 14.2715C27.0891 17.7413 27.0891 21.2112 27.0891 24.6557C27.1119 25.8443 26.7162 27.0032 25.9714 27.9292C25.2265 28.8553 24.18 29.4896 23.0149 29.7212C22.6617 29.7599 22.3053 29.7599 21.9521 29.7212H6.4146C5.07232 29.7212 3.78501 29.1874 2.83587 28.2375C1.88673 27.2875 1.35352 25.9991 1.35352 24.6557C1.35352 19.5902 1.35352 14.2967 1.35352 9.10456C1.35352 7.76111 1.88673 6.47275 2.83587 5.52279C3.78501 4.57282 5.07232 4.03906 6.4146 4.03906H17.0176V5.48275H6.36401C5.49911 5.44798 4.65175 5.73365 3.9841 6.28505C3.31646 6.83646 2.8754 7.61486 2.74532 8.47138C2.72025 8.69863 2.72025 8.92801 2.74532 9.15527V24.7823C2.70977 25.6442 2.99165 26.4893 3.53743 27.1569C4.08321 27.8246 4.8549 28.2683 5.70605 28.4041C5.97535 28.4301 6.24654 28.4301 6.51584 28.4041H21.9268C22.7901 28.4254 23.6328 28.1393 24.3048 27.5966C24.9769 27.0538 25.4345 26.2898 25.5961 25.4408C25.6213 25.1374 25.6213 24.8325 25.5961 24.5291C25.5961 21.1859 25.5961 17.8426 25.5961 14.3981L25.672 13.9422Z" stroke="#749FFF" stroke-miterlimit="10"/>
<path d="M29.6454 3.35557C29.3936 2.76468 28.9998 2.24504 28.4991 1.8431C27.9984 1.44115 27.4063 1.16924 26.7753 1.05146C26.1444 0.933673 25.4941 0.973742 24.8823 1.16801C24.2705 1.36229 23.7161 1.70479 23.2684 2.1651L20.5608 4.87516L9.37574 16.0952C9.21032 16.2521 9.09575 16.455 9.0468 16.6777C8.81905 18.324 8.6419 19.9703 8.43945 21.7432C8.43945 22.3764 8.6925 22.6551 9.50228 22.6298C10.8688 22.4778 12.4124 22.3005 13.9307 22.1739C14.3898 22.1292 14.8148 21.9119 15.1201 21.5659L25.8496 10.7765C26.8871 9.73809 27.9752 8.72499 28.9621 7.61058C29.5061 7.0618 29.8646 6.35613 29.9871 5.59291C30.1097 4.82968 29.9902 4.0473 29.6454 3.35557ZM24.7868 9.71265L14.1838 20.3502C14.0243 20.5026 13.8204 20.6002 13.6018 20.6288L10.2362 20.9834H9.90717L10.059 19.5651C10.059 18.8053 10.2361 18.0202 10.3374 17.235C10.3616 17.1149 10.4136 17.0021 10.4892 16.9057L21.3705 6.01493L25.0904 9.48479L24.7868 9.71265ZM27.9499 6.49616C27.3426 7.15468 26.6593 7.73716 26.0267 8.34502L22.5599 4.97642C23.2178 4.29257 23.8251 3.53275 24.5337 2.92489C25.0255 2.6514 25.5943 2.54976 26.1502 2.63597C26.7062 2.72218 27.2176 2.99141 27.6036 3.40102C27.9897 3.81063 28.2283 4.33721 28.2819 4.89773C28.3354 5.45825 28.2008 6.02075 27.8993 6.49616H27.9499Z" fill="#749FFF" stroke="#749FFF" stroke-width="0.5"/>
</svg>
