<svg width="20" height="20" viewBox="0 0 20 20" fill="none" xmlns="http://www.w3.org/2000/svg">
<g id="Clip path group">
<mask id="mask0_4940_4194" style="mask-type:luminance" maskUnits="userSpaceOnUse" x="0" y="0" width="20" height="20">
<g id="clip-path-3">
<path id="Path 41069" d="M5.333 9.37645e-08H14.666C15.3664 -0.000131244 16.06 0.137714 16.7072 0.405663C17.3543 0.673613 17.9423 1.06642 18.4376 1.56165C18.933 2.05687 19.3259 2.64482 19.594 3.29192C19.862 3.93901 20 4.63258 20 5.333V14.666C20.0001 15.3664 19.8623 16.06 19.5943 16.7072C19.3264 17.3543 18.9336 17.9423 18.4384 18.4376C17.9431 18.933 17.3552 19.3259 16.7081 19.594C16.061 19.862 15.3674 20 14.667 20H5.333C3.9186 20 2.56213 19.4381 1.562 18.438C0.561868 17.4379 0 16.0814 0 14.667L0 5.333C0 3.9186 0.561868 2.56213 1.562 1.562C2.56213 0.561868 3.9186 9.37645e-08 5.333 9.37645e-08Z" fill="white"/>
</g>
</mask>
<g mask="url(#mask0_4940_4194)">
<g id="Mask Group 999">
<path id="map-pin-line (2)" d="M9.99885 17.3953L14.5528 12.8393C15.4539 11.9383 16.0675 10.7902 16.3161 9.54042C16.5646 8.29061 16.437 6.99515 15.9494 5.81787C15.4617 4.64058 14.6359 3.63434 13.5764 2.92639C12.5168 2.21843 11.2711 1.84057 9.99685 1.84057C8.72256 1.84057 7.47688 2.21843 6.41734 2.92639C5.3578 3.63434 4.53199 4.64058 4.04432 5.81787C3.55666 6.99515 3.42905 8.29061 3.67763 9.54042C3.9262 10.7902 4.53981 11.9383 5.44085 12.8393L9.99885 17.3953ZM9.99885 19.9953L4.14085 14.1413C2.9824 12.9828 2.19352 11.5067 1.87395 9.89979C1.55439 8.29287 1.71849 6.62729 2.34552 5.11364C2.97254 3.59999 4.03432 2.30626 5.3966 1.39604C6.75888 0.485825 8.36047 0 9.99885 0C11.6372 0 13.2388 0.485825 14.6011 1.39604C15.9634 2.30626 17.0252 3.59999 17.6522 5.11364C18.2792 6.62729 18.4433 8.29287 18.1237 9.89979C17.8042 11.5067 17.0153 12.9828 15.8568 14.1413L9.99885 19.9953ZM9.99885 10.1203C10.3629 10.1194 10.7185 10.0104 11.0207 9.80737C11.3229 9.6043 11.5581 9.3162 11.6965 8.97948C11.835 8.64276 11.8705 8.27255 11.7986 7.91566C11.7266 7.55876 11.5505 7.2312 11.2924 6.97439C11.0344 6.71758 10.706 6.54306 10.3487 6.47288C9.99147 6.4027 9.62144 6.44002 9.2854 6.58012C8.94937 6.72022 8.66241 6.95681 8.46082 7.25998C8.25923 7.56314 8.15206 7.91927 8.15285 8.28335C8.15285 8.52553 8.20063 8.76534 8.29346 8.98902C8.38629 9.21271 8.52235 9.41588 8.69383 9.5869C8.86531 9.75792 9.06885 9.89342 9.29279 9.98565C9.51673 10.0779 9.75666 10.125 9.99885 10.1243V10.1203ZM9.99885 11.9613C9.27062 11.9613 8.55874 11.7454 7.95324 11.3408C7.34774 10.9362 6.8758 10.3612 6.59712 9.68839C6.31844 9.01559 6.24553 8.27526 6.3876 7.56102C6.52967 6.84678 6.88034 6.19071 7.39528 5.67578C7.91022 5.16084 8.56629 4.81016 9.28053 4.66809C9.99476 4.52602 10.7351 4.59894 11.4079 4.87762C12.0807 5.1563 12.6557 5.62823 13.0603 6.23374C13.4649 6.83924 13.6808 7.55111 13.6808 8.27935C13.6814 8.76321 13.5865 9.24243 13.4017 9.68961C13.2169 10.1368 12.9458 10.5432 12.6038 10.8855C12.2619 11.2278 11.8558 11.4994 11.4088 11.6847C10.9618 11.87 10.4827 11.9653 9.99885 11.9653V11.9613Z" fill="#C244FD"/>
</g>
</g>
</g>
</svg>
