<svg width="16" height="18" viewBox="0 0 16 18" fill="none" xmlns="http://www.w3.org/2000/svg">
<path id="Vector" d="M10.8198 14.978C10.4291 16.6234 9.05807 17.357 7.9288 17.3624C6.78078 17.3684 5.39991 16.6323 5.00129 14.978C4.9411 14.978 4.87499 14.978 4.80888 14.978C3.7625 14.978 2.71611 14.979 1.66972 14.9775C1.17292 14.977 0.804889 14.7488 0.590281 14.3038C0.378633 13.8652 0.442281 13.4444 0.724961 13.0479C1.09003 12.5356 1.44771 12.0178 1.80342 11.4985C1.95438 11.2777 2.00223 11.0248 2.00174 10.759C2.00026 9.35461 1.9973 7.95027 2.00224 6.54591C2.01062 4.23915 3.5025 2.03536 5.63277 1.17206C7.96234 0.227578 10.5115 0.76813 12.2194 2.59225C13.2648 3.70899 13.8055 5.048 13.8193 6.58551C13.8317 7.96511 13.8248 9.34471 13.8203 10.7243C13.8193 11.0585 13.9072 11.353 14.1025 11.6247C14.4518 12.1108 14.7922 12.6029 15.1311 13.0964C15.398 13.485 15.4351 13.9038 15.2239 14.324C15.0093 14.7507 14.6506 14.976 14.1691 14.9775C13.1227 14.9809 12.0764 14.9784 11.03 14.9784C10.9629 14.9779 10.8958 14.978 10.8198 14.978ZM14.1459 13.781C13.7858 13.2588 13.4444 12.7603 13.0986 12.2648C12.7892 11.8213 12.6348 11.3352 12.6378 10.7897C12.6452 9.45957 12.6442 8.12947 12.6373 6.79937C12.6358 6.50385 12.6136 6.20585 12.5702 5.9133C12.103 2.77146 8.64218 0.961691 5.81974 2.4101C4.09599 3.29468 3.22426 4.75943 3.18774 6.70136C3.16209 8.07403 3.1833 9.44819 3.18182 10.8213C3.18182 10.9446 3.1764 11.0688 3.16012 11.1906C3.10634 11.5906 2.94699 11.947 2.7171 12.2762C2.37225 12.7697 2.03234 13.2667 1.67811 13.7805C5.84194 13.781 9.97964 13.781 14.1459 13.781ZM9.54895 14.9879C8.45669 14.9879 7.3659 14.9879 6.27215 14.9879C6.4468 15.6452 7.19126 16.1729 7.92338 16.1655C8.65698 16.1586 9.39946 15.6225 9.54895 14.9879Z" fill="white"/>
</svg>
