<svg width="41" height="41" viewBox="0 0 41 41" fill="none" xmlns="http://www.w3.org/2000/svg">
<g id="Clip path group">
<mask id="mask0_2261_4109" style="mask-type:luminance" maskUnits="userSpaceOnUse" x="0" y="0" width="41" height="41">
<g id="clip-path-11">
<path id="Rectangle 11538" d="M40.076 0H0V40.076H40.076V0Z" fill="white"/>
</g>
</mask>
<g mask="url(#mask0_2261_4109)">
<g id="Mask Group 779" opacity="0.8">
<path id="clipboard-task-list-ltr" d="M21.0398 16.531C21.0398 16.1332 21.1978 15.7516 21.4792 15.4703C21.7605 15.189 22.142 15.031 22.5398 15.031H29.5528C29.9514 15.031 30.3337 15.1894 30.6156 15.4712C30.8975 15.7531 31.0558 16.1354 31.0558 16.534C31.0558 16.9326 30.8975 17.3149 30.6156 17.5968C30.3337 17.8786 29.9514 18.037 29.5528 18.037H22.5428C22.145 18.037 21.7635 17.879 21.4822 17.5977C21.2008 17.3164 21.0428 16.9348 21.0428 16.537L21.0398 16.531ZM22.5398 26.049C22.1412 26.049 21.7589 26.2073 21.477 26.4892C21.1952 26.7711 21.0368 27.1534 21.0368 27.552C21.0368 27.9506 21.1952 28.3329 21.477 28.6148C21.7589 28.8967 22.1412 29.055 22.5398 29.055H29.5528C29.9514 29.055 30.3337 28.8967 30.6156 28.6148C30.8975 28.3329 31.0558 27.9506 31.0558 27.552C31.0558 27.1534 30.8975 26.7711 30.6156 26.4892C30.3337 26.2073 29.9514 26.049 29.5528 26.049H22.5398ZM17.5938 15.59C17.8755 15.3083 18.0337 14.9263 18.0337 14.528C18.0337 14.1297 17.8755 13.7477 17.5938 13.466C17.3122 13.1843 16.9301 13.0261 16.5318 13.0261C16.1335 13.0261 15.7515 13.1843 15.4698 13.466L12.5238 16.412L11.5818 15.47C11.3003 15.1883 10.9184 15.0301 10.5202 15.03C10.1219 15.0299 9.73997 15.188 9.45831 15.4695C9.17665 15.751 9.01837 16.1329 9.01827 16.5311C9.01823 16.7283 9.05702 16.9236 9.13243 17.1058C9.20785 17.288 9.31841 17.4535 9.45781 17.593L11.4578 19.593C11.5971 19.7327 11.7627 19.8435 11.9449 19.9191C12.1271 19.9948 12.3225 20.0337 12.5198 20.0337C12.7171 20.0337 12.9125 19.9948 13.0947 19.9191C13.2769 19.8435 13.4425 19.7327 13.5818 19.593L17.5898 15.585L17.5938 15.59ZM17.5938 24.49C17.7335 24.6293 17.8443 24.7949 17.92 24.9771C17.9956 25.1593 18.0345 25.3547 18.0345 25.552C18.0345 25.7493 17.9956 25.9447 17.92 26.1269C17.8443 26.3091 17.7335 26.4747 17.5938 26.614L13.5858 30.622C13.4465 30.7617 13.2809 30.8725 13.0987 30.9481C12.9165 31.0238 12.7211 31.0627 12.5238 31.0627C12.3265 31.0627 12.1311 31.0238 11.9489 30.9481C11.7667 30.8725 11.6012 30.7617 11.4618 30.622L9.46181 28.622C9.32235 28.4825 9.21172 28.317 9.13624 28.1348C9.06077 27.9525 9.02192 27.7572 9.02192 27.56C9.02192 27.3628 9.06077 27.1675 9.13624 26.9853C9.21172 26.803 9.32235 26.6375 9.46181 26.498C9.60128 26.3585 9.76684 26.2479 9.94906 26.1724C10.1313 26.097 10.3266 26.0581 10.5238 26.0581C10.721 26.0581 10.9163 26.097 11.0986 26.1724C11.2808 26.2479 11.4463 26.3585 11.5858 26.498L12.5278 27.44L15.4738 24.494C15.6131 24.3543 15.7787 24.2435 15.9609 24.1679C16.1431 24.0922 16.3385 24.0533 16.5358 24.0533C16.7331 24.0533 16.9285 24.0922 17.1107 24.1679C17.2929 24.2435 17.4585 24.3543 17.5978 24.494L17.5938 24.49ZM28.0418 4.176C27.9577 3.04084 27.4475 1.97947 26.6134 1.20491C25.7793 0.430354 24.6831 -7.90594e-05 23.5448 1.0892e-08H16.5318C15.423 0.000238123 14.3532 0.408999 13.5268 1.14818C12.7004 1.88736 12.1753 2.90512 12.0518 4.007H8.51681C7.32095 4.007 6.17407 4.48205 5.32847 5.32766C4.48287 6.17326 4.00781 7.32014 4.00781 8.516V35.568C4.00781 36.7639 4.48287 37.9107 5.32847 38.7563C6.17407 39.6019 7.32095 40.077 8.51681 40.077H31.5598C32.7557 40.077 33.9026 39.6019 34.7482 38.7563C35.5938 37.9107 36.0688 36.7639 36.0688 35.568V8.516C36.0688 7.32014 35.5938 6.17326 34.7482 5.32766C33.9026 4.48205 32.7557 4.007 31.5598 4.007H28.0258L28.0418 4.176ZM28.0418 4.2L28.0538 4.509C28.0538 4.409 28.0538 4.303 28.0438 4.2H28.0418ZM16.5318 9.017H23.5448C24.286 9.01777 25.016 8.83564 25.6699 8.48677C26.3239 8.13789 26.8817 7.63305 27.2938 7.017H31.5598C31.9576 7.017 32.3392 7.17504 32.6205 7.45634C32.9018 7.73764 33.0598 8.11918 33.0598 8.517V35.568C33.0598 35.9658 32.9018 36.3474 32.6205 36.6287C32.3392 36.91 31.9576 37.068 31.5598 37.068H8.51681C8.11899 37.068 7.73746 36.91 7.45615 36.6287C7.17485 36.3474 7.01681 35.9658 7.01681 35.568V8.516C7.01681 8.11818 7.17485 7.73664 7.45615 7.45534C7.73746 7.17404 8.11899 7.016 8.51681 7.016H12.7828C13.1948 7.63224 13.7526 8.13727 14.4065 8.48633C15.0605 8.83538 15.7905 9.01766 16.5318 9.017ZM16.5318 3.006H23.5448C23.9434 3.006 24.3257 3.16435 24.6076 3.44622C24.8895 3.72809 25.0478 4.11038 25.0478 4.509C25.0478 4.90762 24.8895 5.28991 24.6076 5.57178C24.3257 5.85365 23.9434 6.012 23.5448 6.012H16.5318C16.1332 6.012 15.7509 5.85365 15.469 5.57178C15.1872 5.28991 15.0288 4.90762 15.0288 4.509C15.0288 4.11038 15.1872 3.72809 15.469 3.44622C15.7509 3.16435 16.1332 3.006 16.5318 3.006Z" fill="#34ACF1"/>
</g>
</g>
</g>
</svg>
