<svg width="18" height="18" viewBox="0 0 18 18" fill="none" xmlns="http://www.w3.org/2000/svg">
<g id="Group 26807">
<g id="Ellipse 681">
<path id="Vector" d="M8.75 17.25C13.4444 17.25 17.25 13.4444 17.25 8.75C17.25 4.05558 13.4444 0.25 8.75 0.25C4.05558 0.25 0.25 4.05558 0.25 8.75C0.25 13.4444 4.05558 17.25 8.75 17.25Z" fill="#EC1E27"/>
<path id="Vector_2" d="M8.75 17.5C13.5825 17.5 17.5 13.5825 17.5 8.75C17.5 3.91751 13.5825 0 8.75 0C3.91751 0 0 3.91751 0 8.75C0 13.5825 3.91751 17.5 8.75 17.5Z" fill="#5599FF"/>
</g>
<g id="Clip path group">
<mask id="mask0_2261_4148" style="mask-type:luminance" maskUnits="userSpaceOnUse" x="3" y="3" width="12" height="12">
<g id="clip-path-13">
<path id="Rectangle 4897" d="M14.25 3.25H3.25V14.25H14.25V3.25Z" fill="white"/>
</g>
</mask>
<g mask="url(#mask0_2261_4148)">
<g id="Mask Group 556">
<path id="camera" d="M9.809 3.66406C10.0247 3.66415 10.2366 3.72057 10.4237 3.82774C10.6109 3.9349 10.7668 4.0891 10.876 4.27506L11.324 5.03806H12.463C12.9367 5.03833 13.3909 5.22655 13.726 5.5614C14.061 5.89626 14.2495 6.35038 14.25 6.82406V12.0491C14.25 12.5233 14.0616 12.9781 13.7263 13.3134C13.391 13.6487 12.9362 13.8371 12.462 13.8371H5.038C4.80324 13.8372 4.57076 13.7911 4.35384 13.7013C4.13691 13.6116 3.9398 13.48 3.77375 13.314C3.60771 13.1481 3.47599 12.951 3.38612 12.7341C3.29626 12.5173 3.25 12.2848 3.25 12.0501V6.82406C3.25027 6.35003 3.43876 5.8955 3.77405 5.5604C4.10933 5.2253 4.56397 5.03706 5.038 5.03706H6.181L6.662 4.25406C6.7726 4.07383 6.92757 3.92496 7.11209 3.82167C7.29661 3.71838 7.50453 3.66411 7.716 3.66406H9.809ZM9.809 4.48906H7.717C7.6568 4.48905 7.59732 4.5022 7.54273 4.5276C7.48815 4.55299 7.43977 4.59001 7.401 4.63606L7.366 4.68706L6.766 5.66606C6.72959 5.72673 6.67817 5.77701 6.6167 5.81204C6.55522 5.84707 6.48576 5.86567 6.415 5.86606H5.038C4.9115 5.86593 4.78622 5.89075 4.66932 5.9391C4.55242 5.98745 4.44621 6.05838 4.35676 6.14783C4.26731 6.23727 4.19638 6.34349 4.14804 6.46038C4.09969 6.57728 4.07487 6.70256 4.075 6.82906V12.0491C4.075 12.3043 4.17632 12.5491 4.3567 12.7297C4.53708 12.9102 4.78177 13.0118 5.037 13.0121H12.462C12.7174 13.0121 12.9623 12.9106 13.1429 12.73C13.3235 12.5494 13.425 12.3045 13.425 12.0491V6.82406C13.4247 6.56883 13.3232 6.32415 13.1426 6.14376C12.962 5.96338 12.7172 5.86206 12.462 5.86206H11.088C11.0164 5.86254 10.9459 5.84434 10.8835 5.80927C10.8211 5.7742 10.7688 5.72346 10.732 5.66206L10.164 4.69606C10.1272 4.63481 10.0752 4.58417 10.013 4.5491C9.95072 4.51404 9.88043 4.49576 9.809 4.49606V4.48906ZM8.75 6.68706C9.23951 6.68706 9.71802 6.83222 10.125 7.10418C10.532 7.37613 10.8493 7.76267 11.0366 8.21492C11.2239 8.66717 11.2729 9.16481 11.1774 9.64491C11.0819 10.125 10.8462 10.566 10.5001 10.9122C10.154 11.2583 9.71295 11.494 9.23285 11.5895C8.75275 11.685 8.25511 11.636 7.80286 11.4487C7.35061 11.2613 6.96407 10.9441 6.69211 10.5371C6.42016 10.1301 6.275 9.65157 6.275 9.16206C6.275 8.50565 6.53576 7.87613 6.99991 7.41197C7.46406 6.94782 8.09359 6.68706 8.75 6.68706ZM8.75 7.51206C8.42366 7.51206 8.10465 7.60883 7.83331 7.79014C7.56197 7.97144 7.35048 8.22914 7.2256 8.53063C7.10071 8.83213 7.06804 9.16389 7.1317 9.48396C7.19537 9.80403 7.35252 10.098 7.58327 10.3288C7.81403 10.5595 8.10803 10.7167 8.4281 10.7804C8.74817 10.844 9.07993 10.8113 9.38143 10.6865C9.68293 10.5616 9.94062 10.3501 10.1219 10.0788C10.3032 9.80741 10.4 9.4884 10.4 9.16206C10.4 8.72446 10.2262 8.30477 9.91673 7.99534C9.60729 7.6859 9.18761 7.51206 8.75 7.51206Z" fill="white"/>
</g>
</g>
</g>
</g>
</svg>
