<svg width="41" height="41" viewBox="0 0 41 41" fill="none" xmlns="http://www.w3.org/2000/svg">
<g id="Clip path group">
<mask id="mask0_2261_4097" style="mask-type:luminance" maskUnits="userSpaceOnUse" x="0" y="0" width="41" height="41">
<g id="clip-path-10">
<path id="Rectangle 11530" d="M40.006 0H0V40.006H40.006V0Z" fill="white"/>
</g>
</mask>
<g mask="url(#mask0_2261_4097)">
<g id="Mask Group 777" opacity="0.8">
<path id="cart" d="M0 1.715C-7.72931e-08 1.26033 0.18055 0.824262 0.501958 0.502666C0.823367 0.181069 1.25933 0.000265115 1.714 0H2.99C3.88603 0.0296989 4.75589 0.309435 5.50127 0.807592C6.24665 1.30575 6.83783 2.00247 7.208 2.819C7.68662 3.74556 8.06734 4.71949 8.344 5.725C8.42 5.719 8.49633 5.716 8.573 5.716H37.143C37.5853 5.71585 38.0216 5.8184 38.4175 6.01556C38.8134 6.21273 39.1582 6.49912 39.4246 6.85219C39.691 7.20527 39.8718 7.61537 39.9527 8.0502C40.0337 8.48504 40.0125 8.93272 39.891 9.358L35.714 24.008C35.3393 25.3221 34.5467 26.4783 33.4561 27.3016C32.3656 28.125 31.0365 28.5706 29.67 28.571H16.07C14.6925 28.571 13.3531 28.1187 12.2577 27.2835C11.1623 26.4482 10.3716 25.2764 10.007 23.948L8.27 17.611L5.39 7.9V7.882C5.11927 6.70375 4.72057 5.55861 4.201 4.467C3.723 3.587 3.339 3.429 2.994 3.429H1.714C1.2595 3.42874 0.823692 3.24807 0.502312 2.92669C0.180932 2.60531 0.000264937 2.1695 0 1.715ZM11.6 16.78L13.314 23.041C13.4808 23.6443 13.8407 24.1763 14.3387 24.5555C14.8366 24.9348 15.4451 25.1405 16.071 25.141H29.671C30.2911 25.14 30.894 24.9373 31.3888 24.5635C31.8836 24.1897 32.2435 23.6652 32.414 23.069L36.385 9.145H9.338L11.565 16.659L11.6 16.78ZM19.434 35.434C19.434 36.3383 19.1659 37.2222 18.6635 37.9741C18.1611 38.7259 17.4471 39.3119 16.6116 39.658C15.7762 40.004 14.8569 40.0946 13.97 39.9182C13.0832 39.7417 12.2685 39.3063 11.6291 38.6669C10.9897 38.0275 10.5543 37.2128 10.3779 36.326C10.2014 35.4391 10.292 34.5198 10.638 33.6844C10.9841 32.8489 11.5701 32.1349 12.3219 31.6325C13.0738 31.1301 13.9577 30.862 14.862 30.862C16.0741 30.8628 17.2362 31.3448 18.093 32.2022C18.9497 33.0595 19.431 34.2219 19.431 35.434H19.434ZM16.005 35.434C16.005 35.2079 15.938 34.9869 15.8124 34.799C15.6868 34.611 15.5083 34.4645 15.2994 34.378C15.0906 34.2915 14.8607 34.2689 14.639 34.313C14.4173 34.3571 14.2136 34.4659 14.0538 34.6258C13.8939 34.7856 13.7851 34.9893 13.741 35.211C13.6969 35.4327 13.7195 35.6626 13.806 35.8714C13.8925 36.0803 14.039 36.2588 14.227 36.3844C14.4149 36.51 14.6359 36.577 14.862 36.577C15.1646 36.5762 15.4546 36.4554 15.6683 36.2412C15.882 36.0269 16.002 35.7366 16.002 35.434H16.005ZM35.436 35.434C35.436 36.3383 35.1679 37.2222 34.6655 37.9741C34.1631 38.7259 33.4491 39.3119 32.6136 39.658C31.7782 40.004 30.8589 40.0946 29.972 39.9182C29.0852 39.7417 28.2705 39.3063 27.6311 38.6669C26.9917 38.0275 26.5563 37.2128 26.3799 36.326C26.2034 35.4391 26.294 34.5198 26.64 33.6844C26.9861 32.8489 27.5721 32.1349 28.3239 31.6325C29.0758 31.1301 29.9597 30.862 30.864 30.862C32.0761 30.8628 33.2382 31.3448 34.095 32.2022C34.9517 33.0595 35.433 34.2219 35.433 35.434H35.436ZM32.007 35.434C32.007 35.2079 31.94 34.9869 31.8144 34.799C31.6888 34.611 31.5103 34.4645 31.3014 34.378C31.0926 34.2915 30.8627 34.2689 30.641 34.313C30.4193 34.3571 30.2156 34.4659 30.0558 34.6258C29.8959 34.7856 29.7871 34.9893 29.743 35.211C29.6989 35.4327 29.7215 35.6626 29.808 35.8714C29.8945 36.0803 30.041 36.2588 30.229 36.3844C30.417 36.51 30.6379 36.577 30.864 36.577C31.1666 36.5762 31.4566 36.4554 31.6703 36.2412C31.884 36.0269 32.004 35.7366 32.004 35.434H32.007Z" fill="#2BDB79"/>
</g>
</g>
</g>
</svg>
