<svg width="16" height="16" viewBox="0 0 16 16" fill="none" xmlns="http://www.w3.org/2000/svg">
<mask id="mask0_8155_12674" style="mask-type:luminance" maskUnits="userSpaceOnUse" x="0" y="0" width="16" height="16">
<path d="M16 0H0V16H16V0Z" fill="white"/>
</mask>
<g mask="url(#mask0_8155_12674)">
<path d="M8.00195 0C9.5842 0 11.1309 0.469192 12.4465 1.34824C13.7621 2.22729 14.7875 3.47672 15.393 4.93853C15.9985 6.40034 16.1569 8.00887 15.8482 9.56072C15.5396 11.1126 14.7776 12.538 13.6588 13.6569C12.54 14.7757 11.1145 15.5376 9.56268 15.8463C8.01083 16.155 6.4023 15.9965 4.94049 15.391C3.47868 14.7855 2.22925 13.7602 1.3502 12.4446C0.471145 11.129 0.00195313 9.58225 0.00195312 8C0.00195313 5.87827 0.844808 3.84344 2.3451 2.34315C3.84539 0.842855 5.88022 0 8.00195 0ZM10.353 11.6H5.65295C6.17395 13.531 7.08195 14.8 8.00395 14.8C8.92595 14.8 9.83295 13.53 10.355 11.6H10.353ZM4.40995 11.6H2.22895C3.00115 12.8346 4.14804 13.7898 5.50195 14.326C5.04519 13.577 4.70275 12.7641 4.48595 11.914L4.40195 11.6H4.40995ZM13.772 11.6H11.593C11.3764 12.5629 11.0049 13.4842 10.493 14.328C11.7619 13.8262 12.8511 12.9554 13.62 11.828L13.768 11.602L13.772 11.6ZM4.07595 6.4H1.38895V6.414C1.07219 7.73752 1.15785 9.12548 1.63495 10.4H4.17295C3.97918 9.07551 3.94561 7.73251 4.07295 6.4H4.07595ZM10.717 6.4H5.28295C5.14217 7.73225 5.17849 9.07728 5.39095 10.4H10.609C10.8213 9.07728 10.8577 7.73226 10.717 6.4ZM14.611 6.4H11.925C11.975 6.917 12.001 7.453 12.001 8C12.0024 8.8032 11.9442 9.6054 11.827 10.4H14.365C14.8439 9.12102 14.9296 7.72804 14.611 6.4ZM5.50195 1.671L5.48395 1.677C3.84768 2.33173 2.52822 3.5942 1.80195 5.2H4.23895C4.43109 3.9539 4.85979 2.75604 5.50195 1.671ZM8.00195 1.2H7.90895C6.89595 1.3 5.91695 2.9 5.46495 5.2H10.538C10.084 2.9 9.11095 1.3 8.10195 1.2H8.00195ZM10.502 1.672L10.588 1.812C11.1775 2.86251 11.5747 4.00985 11.761 5.2H14.202C13.5074 3.6676 12.2713 2.44575 10.731 1.769L10.498 1.669L10.502 1.672Z" fill="#AAAAAA"/>
</g>
</svg>
