<svg width="17" height="15" viewBox="0 0 17 15" fill="none" xmlns="http://www.w3.org/2000/svg">
<mask id="mask0_2404_22963" style="mask-type:luminance" maskUnits="userSpaceOnUse" x="0" y="0" width="17" height="15">
<path d="M16.6551 0H0.320312V15H16.6551V0Z" fill="white"/>
</mask>
<g mask="url(#mask0_2404_22963)">
<path d="M15.8022 0.782807C16.348 1.28408 16.6546 1.96393 16.6546 2.67281C16.6546 3.38168 16.348 4.06153 15.8022 4.56281L6.06666 13.5048C5.84148 13.7116 5.56147 13.8608 5.25427 13.9378L1.09 14.9798C0.986283 15.0057 0.876959 15.0059 0.773106 14.9805C0.669252 14.9551 0.574558 14.9049 0.498614 14.8351C0.422671 14.7652 0.368176 14.6782 0.340651 14.5828C0.313125 14.4874 0.313546 14.387 0.341871 14.2918L1.47659 10.4698C1.56044 10.1877 1.72296 9.93058 1.94812 9.72381L11.6858 0.782807C12.2317 0.281581 12.972 0 13.744 0C14.5159 0 15.2563 0.281581 15.8022 0.782807ZM10.9017 3.09081L2.81277 10.5168C2.73779 10.5859 2.68373 10.6717 2.65596 10.7658L1.8022 13.6418L4.93411 12.8578C5.03606 12.8314 5.12876 12.7811 5.20309 12.7118L13.2866 5.28681L10.9017 3.09081ZM12.5537 1.57381L11.762 2.29881L14.1578 4.49881L14.9473 3.77381C15.265 3.48207 15.4435 3.08639 15.4435 2.67381C15.4435 2.26123 15.265 1.86555 14.9473 1.57381C14.6296 1.28207 14.1987 1.11817 13.7494 1.11817C13.3001 1.11817 12.8692 1.28207 12.5516 1.57381H12.5537Z" fill="#A9A9A9"/>
</g>
</svg>
