<svg width="20" height="20" viewBox="0 0 20 20" fill="none" xmlns="http://www.w3.org/2000/svg">
<path d="M15.8333 2.66797H4.16667C3.24619 2.66797 2.5 3.41416 2.5 4.33464V16.0013C2.5 16.9218 3.24619 17.668 4.16667 17.668H15.8333C16.7538 17.668 17.5 16.9218 17.5 16.0013V4.33464C17.5 3.41416 16.7538 2.66797 15.8333 2.66797Z" stroke="#B2B2B2" stroke-width="0.75" stroke-linecap="round" stroke-linejoin="round"/>
<path d="M10.6416 2.66797V2.29297H9.8916V2.66797H10.6416ZM9.8916 17.668C9.8916 17.8751 10.0595 18.043 10.2666 18.043C10.4737 18.043 10.6416 17.8751 10.6416 17.668H9.8916ZM9.8916 2.66797V17.668H10.6416V2.66797H9.8916Z" fill="#B2B2B2"/>
<rect x="10.6665" y="1.33203" width="8" height="17.3333" fill="#FBFBFB"/>
<g clip-path="url(#clip0_8359_22626)">
<path d="M15.3334 12.7782C16.8676 12.7782 18.1112 11.5346 18.1112 10.0004C18.1112 8.46631 16.8676 7.22266 15.3334 7.22266C13.7993 7.22266 12.5557 8.46631 12.5557 10.0004C12.5557 11.5346 13.7993 12.7782 15.3334 12.7782Z" stroke="#B2B2B2" stroke-width="0.6" stroke-linecap="round" stroke-linejoin="round"/>
<path d="M14.2222 10H16.4444" stroke="#B2B2B2" stroke-width="0.6" stroke-linecap="round" stroke-linejoin="round"/>
<path d="M15.3335 8.89062V11.1128" stroke="#B2B2B2" stroke-width="0.6" stroke-linecap="round" stroke-linejoin="round"/>
</g>
<defs>
<clipPath id="clip0_8359_22626">
<rect width="6.66667" height="6.66667" fill="white" transform="translate(12 6.66797)"/>
</clipPath>
</defs>
</svg>
