<svg width="20" height="20" viewBox="0 0 20 20" fill="none" xmlns="http://www.w3.org/2000/svg">
<path d="M10 20C15.5228 20 20 15.5228 20 10C20 4.47715 15.5228 0 10 0C4.47715 0 0 4.47715 0 10C0 15.5228 4.47715 20 10 20Z" fill="#F5F5F5"/>
<path d="M10 20C15.5228 20 20 15.5228 20 10C20 4.47715 15.5228 0 10 0C4.47715 0 0 4.47715 0 10C0 15.5228 4.47715 20 10 20Z" fill="white"/>
<path d="M10.0006 19.2863C15.1289 19.2863 19.2863 15.1289 19.2863 10.0006C19.2863 4.8722 15.1289 0.714844 10.0006 0.714844C4.8722 0.714844 0.714844 4.8722 0.714844 10.0006C0.714844 15.1289 4.8722 19.2863 10.0006 19.2863Z" stroke="#E7EAEC"/>
<path d="M13.3783 7.36719L7.14258 13.1558" stroke="#DC0000" stroke-linecap="round"/>
<path d="M7.36719 7.1393L13.1558 13.375" stroke="#DC0000" stroke-linecap="round"/>
</svg>
