<svg width="16" height="20" viewBox="0 0 16 20" fill="none" xmlns="http://www.w3.org/2000/svg">
<path id="document-text (6)" d="M4.75 9.5C4.55109 9.5 4.36032 9.57902 4.21967 9.71967C4.07902 9.86032 4 10.0511 4 10.25C4 10.4489 4.07902 10.6397 4.21967 10.7803C4.36032 10.921 4.55109 11 4.75 11H11.25C11.4489 11 11.6397 10.921 11.7803 10.7803C11.921 10.6397 12 10.4489 12 10.25C12 10.0511 11.921 9.86032 11.7803 9.71967C11.6397 9.57902 11.4489 9.5 11.25 9.5H4.75ZM4.75 12.25C4.55109 12.25 4.36032 12.329 4.21967 12.4697C4.07902 12.6103 4 12.8011 4 13C4 13.1989 4.07902 13.3897 4.21967 13.5303C4.36032 13.671 4.55109 13.75 4.75 13.75H11.25C11.4489 13.75 11.6397 13.671 11.7803 13.5303C11.921 13.3897 12 13.1989 12 13C12 12.8011 11.921 12.6103 11.7803 12.4697C11.6397 12.329 11.4489 12.25 11.25 12.25H4.75ZM4.75 15C4.55109 15 4.36032 15.079 4.21967 15.2197C4.07902 15.3603 4 15.5511 4 15.75C4 15.9489 4.07902 16.1397 4.21967 16.2803C4.36032 16.421 4.55109 16.5 4.75 16.5H11.25C11.4489 16.5 11.6397 16.421 11.7803 16.2803C11.921 16.1397 12 15.9489 12 15.75C12 15.5511 11.921 15.3603 11.7803 15.2197C11.6397 15.079 11.4489 15 11.25 15H4.75ZM9.585 0.586L15.414 6.414C15.7891 6.78899 15.9999 7.29761 16 7.828V18C16 18.5304 15.7893 19.0391 15.4142 19.4142C15.0391 19.7893 14.5304 20 14 20H2C1.46957 20 0.960859 19.7893 0.585786 19.4142C0.210714 19.0391 0 18.5304 0 18V2C0 1.46957 0.210714 0.960859 0.585786 0.585786C0.960859 0.210714 1.46957 0 2 0H8.172C8.19944 0.000800039 8.22682 0.003137 8.254 0.00699997C8.274 0.00699997 8.294 0.0129999 8.313 0.0139999C8.52711 0.0258544 8.73786 0.0724632 8.937 0.152C8.99405 0.17761 9.04948 0.206663 9.103 0.239L9.153 0.268L9.2 0.292C9.228 0.304737 9.25507 0.319441 9.281 0.336C9.35802 0.39093 9.4312 0.451071 9.5 0.516L9.536 0.546C9.55318 0.558266 9.56954 0.571627 9.585 0.586ZM14 18.5C14.1326 18.5 14.2598 18.4473 14.3536 18.3536C14.4473 18.2598 14.5 18.1326 14.5 18V8H10C9.46957 8 8.96086 7.78929 8.58579 7.41421C8.21071 7.03914 8 6.53043 8 6V1.5H2C1.86739 1.5 1.74021 1.55268 1.64645 1.64645C1.55268 1.74021 1.5 1.86739 1.5 2V18C1.5 18.1326 1.55268 18.2598 1.64645 18.3536C1.74021 18.4473 1.86739 18.5 2 18.5H14ZM13.378 6.5L9.5 2.621V6C9.5 6.13261 9.55268 6.25979 9.64645 6.35355C9.74021 6.44732 9.86739 6.5 10 6.5H13.378Z" fill="#DCDCDC"/>
</svg>
