<svg width="20" height="20" viewBox="0 0 20 20" fill="none" xmlns="http://www.w3.org/2000/svg">
<g clip-path="url(#clip0_4004_4368)">
<mask id="mask0_4004_4368" style="mask-type:luminance" maskUnits="userSpaceOnUse" x="0" y="0" width="20" height="20">
<path d="M20 0H0V20H20V0Z" fill="white"/>
</mask>
<g mask="url(#mask0_4004_4368)">
<path d="M10.0006 2.5C12.1429 2.50009 14.2175 3.25022 15.8645 4.62021C17.5114 5.99019 18.6267 7.89356 19.0169 10C18.6277 12.1072 17.5127 14.0115 15.8657 15.3822C14.2186 16.7529 12.1434 17.5035 10.0006 17.5035C7.8578 17.5035 5.78266 16.7529 4.13559 15.3822C2.48852 14.0115 1.37357 12.1072 0.984375 10C1.37451 7.89356 2.48984 5.99019 4.13679 4.62021C5.78374 3.25022 7.85836 2.50009 10.0006 2.5ZM10.0006 15.8337C11.7004 15.834 13.3498 15.2569 14.6786 14.197C16.0074 13.1371 16.9368 11.6573 17.3144 10C16.9367 8.343 16.0075 6.86338 14.679 5.80356C13.3505 4.74373 11.7014 4.16654 10.0019 4.16654C8.30239 4.16654 6.65329 4.74373 5.32475 5.80356C3.99621 6.86338 3.06701 8.343 2.68938 10C3.06691 11.6568 3.9959 13.1364 5.32419 14.1962C6.65248 15.2561 8.30132 15.8335 10.0006 15.8337ZM10.0006 13.75C9.25895 13.75 8.53392 13.5301 7.91724 13.118C7.30055 12.706 6.81991 12.1203 6.53608 11.4351C6.25225 10.7498 6.17799 9.99584 6.32268 9.26841C6.46738 8.54098 6.82453 7.8728 7.34898 7.34835C7.87342 6.8239 8.54161 6.46675 9.26904 6.32206C9.99647 6.17736 10.7505 6.25162 11.4357 6.53545C12.1209 6.81928 12.7066 7.29993 13.1186 7.91661C13.5307 8.5333 13.7506 9.25832 13.7506 10C13.7506 10.9946 13.3555 11.9484 12.6523 12.6516C11.949 13.3549 10.9952 13.75 10.0006 13.75ZM10.0006 12.0837C10.4128 12.0837 10.8156 11.9615 11.1583 11.7326C11.501 11.5036 11.768 11.1782 11.9258 10.7974C12.0835 10.4167 12.1247 9.99769 12.0443 9.59348C11.9639 9.18927 11.7655 8.81798 11.4741 8.52657C11.1826 8.23515 10.8114 8.03669 10.4071 7.95629C10.0029 7.87589 9.58396 7.91715 9.20321 8.07487C8.82245 8.23258 8.49702 8.49966 8.26805 8.84233C8.03909 9.185 7.91688 9.58787 7.91688 10C7.91688 10.5526 8.13641 11.0827 8.52719 11.4734C8.91797 11.8642 9.44798 12.0837 10.0006 12.0837Z" fill="#B2BAC5"/>
</g>
</g>
<defs>
<clipPath id="clip0_4004_4368">
<rect width="20" height="20" fill="white"/>
</clipPath>
</defs>
</svg>
