<svg width="20" height="20" viewBox="0 0 20 20" fill="none" xmlns="http://www.w3.org/2000/svg">
<path d="M13.333 18.3346H14.9997C15.4163 18.3346 15.833 18.168 16.1663 17.8346C16.4997 17.5013 16.6663 17.0846 16.6663 16.668V6.2513L12.083 1.66797H4.99967C4.58301 1.66797 4.16634 1.83464 3.83301 2.16797C3.49967 2.5013 3.33301 2.91797 3.33301 3.33464V5.83464" stroke="#548DFF" stroke-width="1.25" stroke-linecap="round" stroke-linejoin="round"/>
<path d="M11.667 1.66797V6.66797H16.667" stroke="#548DFF" stroke-width="1.25" stroke-linecap="round" stroke-linejoin="round"/>
<path d="M6.66699 18.332C9.42842 18.332 11.667 16.0935 11.667 13.332C11.667 10.5706 9.42842 8.33203 6.66699 8.33203C3.90557 8.33203 1.66699 10.5706 1.66699 13.332C1.66699 16.0935 3.90557 18.332 6.66699 18.332Z" stroke="#548DFF" stroke-width="1.25" stroke-linecap="round" stroke-linejoin="round"/>
<path d="M7.91699 14.5846L6.66699 13.543V11.668" stroke="#548DFF" stroke-width="1.25" stroke-linecap="round" stroke-linejoin="round"/>
</svg>
