<svg width="18" height="20" viewBox="0 0 18 20" fill="none" xmlns="http://www.w3.org/2000/svg">
<path d="M0 9.19407V6.21626C0.0075 6.20739 0.0192183 6.19991 0.0215621 6.1901C0.263906 5.29204 0.803437 4.87805 1.73437 4.87805H4.39453C4.39453 4.49303 4.39219 4.13045 4.39453 3.77066C4.40203 2.83195 5.10094 2.0979 6.03844 2.09136C8.0125 2.07827 9.98672 2.07827 11.9611 2.09136C12.7927 2.0965 13.4531 2.67495 13.5755 3.49311C13.6223 3.80197 13.5984 4.12157 13.6045 4.4365C13.6073 4.57948 13.6045 4.72292 13.6045 4.87758H13.8389C14.7056 4.87758 15.5733 4.87058 16.44 4.88132C17.1839 4.89067 17.7839 5.38362 17.9597 6.10412C17.9691 6.14197 17.985 6.17842 17.9981 6.2158V9.19453C17.913 9.65494 17.7075 10.0848 17.4023 10.4407C17.3386 10.5185 17.3023 10.615 17.2992 10.7154C17.2936 12.5606 17.2959 14.4067 17.2945 16.2501C17.2945 17.2378 16.6195 17.9144 15.6309 17.9144C11.2091 17.9144 6.78719 17.9144 2.36531 17.9144C2.21325 17.9158 2.06157 17.8991 1.91344 17.8649C1.18219 17.6883 0.702187 17.0705 0.70125 16.3047C0.698437 14.4423 0.70125 12.5802 0.70125 10.7178C0.70125 10.6505 0.705469 10.5608 0.666562 10.5201C0.320582 10.1515 0.0890724 9.69097 0 9.19407ZM10.8281 11.5429C10.8548 11.5523 10.8656 11.5598 10.875 11.5588C12.2152 11.456 13.5375 11.2542 14.8125 10.8052C15.3886 10.6019 15.9408 10.3486 16.4062 9.94354C16.7644 9.63235 16.9627 9.25808 16.95 8.76513C16.9303 8.01752 16.9453 7.26992 16.9444 6.52231C16.9444 6.14244 16.7391 5.93077 16.3636 5.93031C11.4548 5.93031 6.54594 5.93031 1.63688 5.93031C1.26188 5.93031 1.05516 6.1415 1.05469 6.52045C1.05469 7.27366 1.06688 8.02734 1.04953 8.78055C1.03922 9.23799 1.21641 9.59357 1.54078 9.89401C1.86516 10.1945 2.24859 10.4103 2.65172 10.5879C3.55687 10.9874 4.51125 11.2163 5.48484 11.3659C6.03797 11.4509 6.59531 11.5084 7.17234 11.5808C7.17234 11.4037 7.17234 11.2589 7.17234 11.1135C7.17656 10.7781 7.38516 10.5589 7.71703 10.5575C8.57266 10.5535 9.42797 10.5535 10.283 10.5575C10.6148 10.5575 10.823 10.7781 10.8277 11.1131C10.8281 11.257 10.8281 11.4028 10.8281 11.5429ZM16.2422 11.3378C16.2178 11.3443 16.1939 11.3523 16.1705 11.3617C15.3345 11.7857 14.4396 12.0826 13.5155 12.2424C12.6933 12.3901 11.8608 12.4821 11.0311 12.6017C10.9266 12.6172 10.8075 12.5793 10.7564 12.7471C10.5305 13.4947 10.0177 13.9152 9.24281 14.0147C8.31375 14.132 7.49156 13.6246 7.24641 12.7798C7.21031 12.6559 7.15266 12.6153 7.03453 12.6036C6.57469 12.5569 6.11391 12.5144 5.65547 12.4541C4.43672 12.2934 3.25078 12.0163 2.12859 11.5023C2.00906 11.4476 1.89047 11.3906 1.75594 11.3271V16.2384C1.75594 16.6589 1.95984 16.8626 2.37984 16.8631H15.6159C16.0378 16.8631 16.2417 16.6594 16.2422 16.2407C16.2422 15.2651 16.2422 14.2898 16.2422 13.3148V11.3378ZM5.45109 4.86357H12.5508V3.85337C12.5508 3.36602 12.3206 3.13753 11.8289 3.13753C10.4933 3.13753 9.15797 3.13753 7.82297 3.13753C7.24312 3.13753 6.66328 3.13426 6.08344 3.13753C5.73656 3.14034 5.46609 3.37116 5.45437 3.6945C5.44031 4.07998 5.45109 4.465 5.45109 4.86357ZM8.22656 11.613C8.22656 11.8467 8.22375 12.0635 8.22656 12.2784C8.2246 12.4523 8.28901 12.6205 8.40676 12.7489C8.52451 12.8773 8.6868 12.9563 8.86078 12.9699C9.32953 13.0199 9.68812 12.8204 9.74859 12.4289C9.78937 12.1644 9.75609 11.8882 9.75609 11.613H8.22656Z" fill="#FFD705"/>
</svg>
