<svg width="39" height="40" viewBox="0 0 39 40" fill="none" xmlns="http://www.w3.org/2000/svg">
<path fill-rule="evenodd" clip-rule="evenodd" d="M29.2991 34C31.3971 34 33.1494 32.238 33.1494 30C33.1494 27.762 31.3971 26 29.2991 26C27.201 26 25.4487 27.762 25.4487 30C25.4487 32.238 27.201 34 29.2991 34ZM35.1494 30C35.1494 33.2848 32.5586 36 29.2991 36C26.0396 36 23.4487 33.2848 23.4487 30C23.4487 27.0592 25.5252 24.5751 28.299 24.0869V23.3333C28.299 22.7049 28.0565 22.108 27.6341 21.6726C27.2128 21.2382 26.6478 21 26.0654 21H19.5986H13.1312C12.5488 21 11.9839 21.2382 11.5625 21.6726C11.1401 22.108 10.8977 22.7049 10.8977 23.3333V24.0869C13.6715 24.575 15.748 27.0592 15.748 30C15.748 33.2848 13.1572 36 9.89771 36C6.63824 36 4.04738 33.2848 4.04738 30C4.04738 27.0592 6.12389 24.5751 8.89766 24.0869V23.3333C8.89766 22.1937 9.33654 21.0949 10.127 20.28C10.9184 19.4642 11.9984 19 13.1312 19H18.5986V15.9132C15.8245 15.4254 13.7476 12.941 13.7476 10C13.7476 6.71516 16.3384 4 19.5979 4C22.8574 4 25.4482 6.71516 25.4482 10C25.4482 12.9405 23.3721 15.4245 20.5986 15.913V19H26.0654C27.1982 19 28.2782 19.4642 29.0697 20.28C29.8601 21.0949 30.299 22.1937 30.299 23.3333V24.0869C33.0728 24.575 35.1494 27.0592 35.1494 30ZM19.5979 14C21.696 14 23.4482 12.238 23.4482 10C23.4482 7.762 21.696 6 19.5979 6C17.4999 6 15.7476 7.762 15.7476 10C15.7476 12.238 17.4999 14 19.5979 14ZM13.748 30C13.748 32.238 11.9958 34 9.89771 34C7.79966 34 6.04738 32.238 6.04738 30C6.04738 27.762 7.79966 26 9.89771 26C11.9958 26 13.748 27.762 13.748 30Z" fill="#FF7410"/>
</svg>
