<svg width="21" height="14" viewBox="0 0 21 14" fill="none" xmlns="http://www.w3.org/2000/svg">
<path d="M7.22326 7.3339C6.82325 6.91864 6.33849 6.69167 5.77283 6.67392C5.12477 6.65279 4.4765 6.65279 3.82801 6.67392C2.71402 6.7145 1.81063 7.63569 1.78046 8.7401C1.77211 9.04822 1.78495 9.35697 1.77404 9.66509C1.76954 9.79696 1.81192 9.87494 1.93776 9.91234C2.54131 10.0911 3.14099 10.2839 3.74903 10.443C4.08933 10.5324 4.27553 10.7993 4.08227 11.0339C4.0337 11.087 3.9742 11.1292 3.90776 11.1577C3.84132 11.1863 3.76947 11.2005 3.69703 11.1993C2.81418 11.096 1.98592 10.8069 1.20259 10.3973C1.15291 10.3673 1.11057 10.3267 1.0786 10.2786C1.04663 10.2305 1.02583 10.176 1.01768 10.119C1.00805 9.55794 0.971449 8.98989 1.04464 8.43705C1.19617 7.29079 1.86072 6.50845 2.94966 6.08114C3.00038 6.06086 3.05046 6.0393 3.10376 6.01775C1.84338 4.75801 2.20936 3.15845 3.12944 2.34504C3.59966 1.92261 4.21603 1.69432 4.85161 1.70718C5.48719 1.72004 6.09357 1.97306 6.54588 2.41415C7.44862 3.28525 7.69646 4.80492 6.51121 5.99809C6.76226 6.12489 7.02486 6.23203 7.25922 6.38355C7.49357 6.53508 7.69454 6.72845 7.93403 6.92308L8.64031 6.68406C7.77865 5.95181 7.32278 5.0471 7.4101 3.92621C7.47431 3.07666 7.85955 2.36596 8.50547 1.80425C9.12313 1.25512 9.93445 0.967375 10.7648 1.00295C11.5952 1.03852 12.3782 1.39456 12.9454 1.99444C14.1582 3.26242 14.2263 5.31465 12.6096 6.679L13.3402 6.93259C13.7169 6.49995 14.2103 6.18199 14.7631 6.01584C14.1537 5.42243 13.8526 4.72187 13.9502 3.89071C14.0217 3.26967 14.3343 2.70018 14.8221 2.30193C15.2933 1.89798 15.9016 1.6847 16.5252 1.7048C17.1489 1.72491 17.7418 1.97691 18.1853 2.41034C19.0559 3.23453 19.3737 4.78527 18.1403 6.02408C18.6464 6.183 19.1019 6.46897 19.4624 6.85398C19.9587 7.38112 20.2356 8.07358 20.238 8.79335C20.2437 9.20417 20.2335 9.61754 20.2418 10.0271C20.2488 10.1141 20.2278 10.2011 20.1816 10.2756C20.1355 10.3501 20.0667 10.4083 19.985 10.4417C19.2562 10.8071 18.476 11.0621 17.6703 11.1981C17.6305 11.2044 17.5907 11.2095 17.5509 11.2127C17.2941 11.2298 17.1259 11.108 17.1015 10.8912C17.0771 10.6744 17.2048 10.5165 17.4501 10.4576C17.8996 10.3498 18.3567 10.2598 18.7985 10.1171C19.4778 9.89586 19.4823 9.88001 19.4681 9.17247C19.4617 8.8428 19.4624 8.49791 19.3654 8.18853C19.097 7.33581 18.4941 6.78868 17.5894 6.70753C16.819 6.63842 16.0376 6.66949 15.2639 6.70753C14.7785 6.73035 14.372 6.98204 14.0298 7.33137C14.2141 7.50508 14.3977 7.65851 14.5582 7.83222C15.2645 8.60125 15.5791 9.51229 15.5586 10.5457C15.5496 11.0117 15.5586 11.4789 15.5663 11.9449C15.5708 12.1674 15.4886 12.3139 15.2806 12.4153C12.1683 13.9344 9.06021 13.928 5.95646 12.3963C5.83639 12.3367 5.69963 12.1643 5.69963 12.0413C5.68101 11.4022 5.6823 10.7606 5.71633 10.1222C5.77476 9.02856 6.26594 8.14224 7.11347 7.44232C7.14429 7.40872 7.17768 7.37575 7.22326 7.3339ZM10.6262 7.3282V7.36687C10.2262 7.36687 9.82556 7.3618 9.42555 7.36687C8.03612 7.38843 6.77702 8.38633 6.54652 9.73609C6.43737 10.3758 6.48232 11.0415 6.4714 11.6958C6.4714 11.7554 6.55615 11.8422 6.62228 11.8726C9.28686 13.0865 11.9538 13.0899 14.6231 11.8828C14.7573 11.8194 14.7894 11.7389 14.7862 11.6064C14.7759 11.1803 14.7727 10.7536 14.7695 10.327C14.7605 8.9398 13.8205 7.73966 12.4413 7.46007C11.8526 7.34152 11.2343 7.36814 10.6288 7.3282H10.6262ZM10.6262 1.76177C9.29842 1.76177 8.17416 2.86428 8.17031 4.1741C8.16646 5.48392 9.28301 6.59975 10.6102 6.60419C11.9527 6.60926 13.0796 5.50231 13.0783 4.18044C13.0757 2.86935 11.9553 1.76304 10.6269 1.76177H10.6262ZM4.79561 5.89728C5.25687 5.89847 5.69976 5.71888 6.02707 5.39795C6.35437 5.07702 6.53935 4.64097 6.54139 4.18551C6.53817 3.72973 6.35281 3.29364 6.02563 2.97212C5.69845 2.6506 5.25592 2.46966 4.79432 2.46867C4.33704 2.4731 3.89967 2.654 3.57571 2.9727C3.25175 3.2914 3.06692 3.7226 3.06074 4.1741C3.06006 4.39973 3.1044 4.62328 3.19122 4.83198C3.27804 5.04069 3.40564 5.23046 3.56674 5.39048C3.72784 5.55049 3.91927 5.6776 4.13012 5.76456C4.34097 5.85152 4.5671 5.89662 4.79561 5.89728ZM16.4395 5.89728C16.6681 5.89837 16.8946 5.85493 17.1062 5.76944C17.3177 5.68396 17.5101 5.55811 17.6723 5.39911C17.8345 5.24011 17.9634 5.05107 18.0515 4.84282C18.1397 4.63458 18.1853 4.41121 18.1859 4.18551C18.1841 3.72984 18 3.29335 17.6737 2.97108C17.3475 2.64881 16.9055 2.46687 16.444 2.46486C15.9823 2.46837 15.5408 2.6517 15.2153 2.97499C14.8898 3.29827 14.7067 3.73537 14.7059 4.19122C14.7096 4.64355 14.8936 5.07623 15.2181 5.39555C15.5426 5.71488 15.9814 5.89513 16.4395 5.89728Z" fill="#FFD705" stroke="#FFD705" stroke-width="0.5"/>
</svg>
