<svg width="30" height="30" viewBox="0 0 30 30" fill="none" xmlns="http://www.w3.org/2000/svg">
<path d="M0 8C0 3.58172 3.58172 0 8 0H22C26.4183 0 30 3.58172 30 8V22C30 26.4183 26.4183 30 22 30H8C3.58172 30 0 26.4183 0 22V8Z" fill="#F6F6F6"/>
<path fill-rule="evenodd" clip-rule="evenodd" d="M20.214 21.0666C18.7465 21.0666 17.3874 20.6156 16.276 19.8486C16.6973 19.4121 17.0647 18.926 17.3677 18.4001H23.9737C23.6174 19.2206 23.1428 19.9805 22.5709 20.6596C21.8365 20.9228 21.0425 21.0666 20.214 21.0666ZM24.0004 11.2673H17.4031C17.0027 10.5562 16.4853 9.91627 15.876 9.37156C17.0536 8.42464 18.5654 7.85547 20.214 7.85547C20.7099 7.85547 21.1933 7.90695 21.6591 8.00471C22.6643 8.9069 23.4689 10.018 24.0004 11.2673Z" fill="#E7E7E7"/>
<path d="M20.0874 8.3543C20.6353 8.3543 21.1675 8.42036 21.6761 8.54478C19.5604 6.54692 16.5016 5.56697 13.3958 6.18246C12.3681 6.38613 11.4152 6.74866 10.5586 7.2384C10.7085 7.2213 10.8653 7.20832 11.0263 7.19901C11.7455 7.15739 12.5669 7.18801 13.2686 7.26227C13.8939 7.32846 14.8246 7.48055 15.6617 7.73568C16.0801 7.86318 16.4826 8.01865 16.8139 8.20623C17.1218 8.38058 17.3898 8.59465 17.5394 8.85904C18.3223 8.53406 19.1833 8.3543 20.0874 8.3543Z" fill="#FFE24D"/>
<path d="M17.1547 9.0385C17.0559 8.87967 16.8713 8.72156 16.6046 8.57063C16.3114 8.40459 15.942 8.2602 15.5405 8.1378C14.7377 7.89314 13.836 7.74531 13.2294 7.6811C12.5476 7.60893 11.7506 7.57956 11.0593 7.61955C10.7135 7.63956 10.3992 7.67666 10.1414 7.73264C9.87761 7.7899 9.69673 7.86206 9.59746 7.9377L9.5675 7.90042C8.2324 8.91463 7.20966 10.2686 6.60938 11.8006C6.87101 11.7289 7.1823 11.6823 7.52535 11.6567C8.21365 11.6052 9.05192 11.6363 9.92027 11.733C10.7894 11.8296 11.6819 11.9969 12.4236 12.2295C12.7944 12.3459 13.1325 12.4802 13.4131 12.633C13.5705 12.7188 13.7144 12.813 13.8369 12.9166C14.3529 11.2223 15.568 9.82289 17.1547 9.0385Z" fill="#FFD705"/>
<path d="M13.7069 13.3948C13.6082 13.264 13.439 13.1296 13.198 12.9983C12.9502 12.8632 12.6405 12.7389 12.2869 12.6281C11.5798 12.4061 10.7167 12.2435 9.86684 12.1489C9.01607 12.0542 8.20666 12.0254 7.55387 12.0741C7.22732 12.0986 6.94548 12.1421 6.7197 12.204C6.6001 12.2369 6.50131 12.2736 6.42185 12.3124C5.9691 13.7169 5.86461 15.2497 6.18735 16.7944C6.24828 17.0861 6.32307 17.3716 6.4109 17.6503C6.42874 17.6569 6.44871 17.6639 6.47086 17.6713C6.59985 17.7146 6.8029 17.772 7.08878 17.8225C7.66045 17.9238 8.56456 17.9985 9.87136 17.88C11.1931 17.7603 12.1304 17.6192 12.7868 17.4304C13.3892 17.257 13.7254 17.0517 13.9116 16.8134C13.6845 16.1642 13.5612 15.4677 13.5612 14.7432C13.5612 14.2806 13.6114 13.8295 13.7069 13.3948Z" fill="#F5BF00"/>
<path d="M14.0787 17.25C13.8086 17.4967 13.4215 17.6824 12.9039 17.8314C12.2052 18.0324 11.233 18.1763 9.90623 18.2965C8.56441 18.418 7.62066 18.3427 7.00663 18.234C6.83938 18.2043 6.69668 18.1722 6.57715 18.141C7.30878 20.0604 8.67276 21.6267 10.3823 22.6551C11.5172 22.7601 12.4645 22.4156 13.6131 21.8868C14.8335 21.325 15.7144 20.6792 16.1454 19.8364C15.2456 19.1691 14.5281 18.279 14.0787 17.25Z" fill="#CB9200"/>
<path d="M16.5027 20.082C15.9975 21.0219 15.0228 21.7032 13.7994 22.2663C12.8989 22.681 12.0768 23.0055 11.1709 23.0783C12.9401 23.9245 14.9997 24.2283 17.0805 23.816C19.2345 23.3891 21.0598 22.2644 22.3585 20.7331C21.6512 20.9898 20.886 21.1302 20.0875 21.1302C18.7636 21.1302 17.5317 20.7446 16.5027 20.082Z" fill="#9C5E00"/>
</svg>
