<svg width="17" height="17" viewBox="0 0 17 17" fill="none" xmlns="http://www.w3.org/2000/svg">
<path d="M7.65925 7.66994V6.01113C7.59091 6.00696 7.52884 6.0007 7.46624 6.0007C6.99103 6.0007 6.51581 6.0007 6.0406 6.0007C5.52574 5.99757 5.17364 5.65944 5.17103 5.15016C5.16581 4.0495 5.16581 2.94919 5.17103 1.84923C5.17364 1.34778 5.52314 1.00235 6.02287 1.00183C7.67612 0.999391 9.32936 0.999391 10.9826 1.00183C11.4693 1.00183 11.823 1.34935 11.8261 1.83671C11.8324 2.94293 11.8324 4.0495 11.8261 5.15642C11.8261 5.65526 11.4693 5.99496 10.968 5.99861C10.4928 6.00226 10.0181 5.99861 9.54289 5.99861H9.34154V7.66838H9.58201C10.578 7.66838 11.5738 7.66838 12.5694 7.66838C13.1704 7.66838 13.498 7.99764 13.4985 8.59823C13.4985 9.32075 13.4985 10.0433 13.4985 10.7658V10.9985C14.0264 10.9985 14.5386 10.9985 15.0504 10.9985C15.1606 10.9964 15.2707 11.0073 15.3785 11.0309C15.5516 11.0709 15.7063 11.1678 15.8179 11.3061C15.9296 11.4444 15.9918 11.616 15.9945 11.7937C16.0018 12.9268 16.0018 14.0596 15.9945 15.1923C15.9936 15.4041 15.9092 15.607 15.7597 15.757C15.6102 15.907 15.4076 15.9921 15.1959 15.9937C13.51 16.001 11.8233 16.001 10.136 15.9937C10.0297 15.9933 9.92457 15.9719 9.82663 15.9306C9.72869 15.8893 9.63988 15.8291 9.56534 15.7533C9.4908 15.6775 9.432 15.5877 9.39234 15.4891C9.35267 15.3905 9.33292 15.285 9.33423 15.1787C9.32241 14.0596 9.32241 12.94 9.33423 11.8198C9.34049 11.332 9.70616 11.0037 10.1981 11.0006C10.7312 10.9975 11.2643 11.0006 11.8151 11.0006V9.3465H5.1799V11.0006H5.36351C5.83873 11.0006 6.31394 11.0006 6.78915 11.0006C7.31079 11.0032 7.66342 11.3455 7.66655 11.8678C7.67316 12.9553 7.67316 14.0425 7.66655 15.1296C7.66342 15.6587 7.3061 15.9995 6.77194 16C5.14442 16 3.51708 16 1.88992 16C1.34585 16 1.00052 15.6525 1 15.1077C1 14.0335 1 12.9593 1 11.8851C1 11.3513 1.34793 11.0032 1.87844 11.0011C2.40895 10.999 2.94311 11.0011 3.49917 11.0011V10.7788C3.49917 10.0434 3.49917 9.30788 3.49917 8.57214C3.49917 8.01016 3.83407 7.67255 4.39744 7.67151C5.40629 7.6689 6.41514 7.67151 7.42295 7.67151L7.65925 7.66994ZM10.1574 2.68673H6.8434V4.31684H10.1574V2.68673ZM5.99313 12.6834H2.68855V14.3141H5.99522L5.99313 12.6834ZM11.0045 14.3177H14.3117V12.6871H11.0045V14.3177Z" fill="#548DFF" stroke="white" stroke-width="0.5"/>
</svg>
