<svg width="21" height="20" viewBox="0 0 21 20" fill="none" xmlns="http://www.w3.org/2000/svg">
<g clip-path="url(#clip0_8399_5696)">
<path d="M0 15.9409C0.0927484 15.5458 0.232314 15.1782 0.534409 14.8963C1.0644 14.4055 1.68714 14.3352 2.34168 14.4712C3.61012 14.7357 4.08623 16.0941 3.27358 17.1433C2.84693 17.6906 2.37436 18.2052 1.9221 18.7343L1.72777 18.9551H3.7594V19.9759H0.117483C0.117483 19.7095 0.111299 19.4504 0.122782 19.1922C0.139553 19.1253 0.175962 19.0654 0.227013 19.0207C0.722555 18.4734 1.23664 17.9452 1.71099 17.3786C1.95618 17.0779 2.1672 16.7492 2.33991 16.3988C2.41764 16.2474 2.41146 16.0266 2.38407 15.8469C2.34256 15.5732 2.16678 15.4364 1.9062 15.3999C1.79033 15.3768 1.67029 15.3955 1.56622 15.453C1.46215 15.5105 1.3804 15.6032 1.33469 15.7155C1.26682 15.8986 1.21248 16.0868 1.17216 16.2784H0V15.9409Z" fill="black"/>
<path d="M3.9325 8.40215H5.54632L2.76476 13.2154L0.0644531 8.41128H1.61644C2.27363 5.07505 4.02878 2.58634 6.96582 1.05188C8.95858 0.010965 11.0794 -0.246299 13.2665 0.230825C15.4858 0.713853 17.4724 1.98123 18.8841 3.81457C20.2957 5.64791 21.044 7.93238 21 10.2743C20.9559 12.6163 20.1223 14.869 18.6427 16.6443C17.1632 18.4196 15.1304 19.6064 12.8946 20C12.8868 19.9621 12.8814 19.9237 12.8787 19.8851C12.8787 19.1863 12.8787 18.4875 12.8787 17.7868C12.8787 17.6609 12.9238 17.618 13.0333 17.5898C14.5851 17.1951 15.9728 16.2954 16.9915 15.0235C17.7112 14.1366 18.2285 13.0938 18.5051 11.9723C18.7818 10.8509 18.8106 9.67962 18.5896 8.54512C18.3685 7.41062 17.9032 6.34201 17.2281 5.4184C16.553 4.49479 15.6854 3.73983 14.6895 3.20943C13.3761 2.50697 11.9725 2.20136 10.5044 2.38838C7.46401 2.77792 5.36524 4.46108 4.22311 7.40594C4.12418 7.65955 4.06147 7.92868 3.98462 8.19141C3.96342 8.25071 3.95282 8.31275 3.9325 8.40215Z" fill="black"/>
<path d="M9.48771 19.976H8.2334V14.4648H9.48771V16.3168C9.66437 16.1854 9.80394 16.0431 9.97354 15.9519C10.1277 15.8703 10.2974 15.8248 10.4705 15.8188C10.6436 15.8129 10.8159 15.8465 10.975 15.9172C11.1341 15.988 11.2761 16.0942 11.3908 16.2283C11.5055 16.3623 11.5901 16.5209 11.6386 16.6926C11.7052 16.9222 11.7408 17.1601 11.7446 17.3997C11.7578 18.2107 11.7499 19.0226 11.7499 19.8345C11.7472 19.8807 11.7422 19.9267 11.7349 19.9723H10.5477V19.7333C10.5477 19.0774 10.5477 18.4205 10.5477 17.7646C10.5477 17.6369 10.5477 17.51 10.5344 17.3832C10.4859 16.8496 10.0575 16.6233 9.60961 16.907C9.57404 16.9397 9.54558 16.9797 9.52609 17.0245C9.5066 17.0693 9.49653 17.1179 9.49654 17.167C9.48859 18.0209 9.49124 18.8748 9.49124 19.7287L9.48771 19.976Z" fill="black"/>
<path d="M7.16902 14.5286V17.8749H7.70961V18.8173H7.17432V19.9722H5.97389V18.8337H3.89633C3.84598 18.415 3.79298 18.0464 4.04826 17.656C4.6763 16.6926 5.25399 15.6927 5.84493 14.7029C5.87295 14.6445 5.9178 14.5964 5.97331 14.5654C6.02883 14.5344 6.09229 14.5218 6.15497 14.5296C6.48445 14.5369 6.80863 14.5286 7.16902 14.5286ZM5.94386 17.8694V16.1817L5.90499 16.1708C5.58082 16.7291 5.25575 17.2865 4.91656 17.8694H5.94386Z" fill="black"/>
<path d="M9.99609 11.382V4.77344H11.1108V10.2207H14.0558V11.382H9.99609Z" fill="black"/>
</g>
<defs>
<clipPath id="clip0_8399_5696">
<rect width="21" height="20" fill="white"/>
</clipPath>
</defs>
</svg>
