<svg width="40" height="40" viewBox="0 0 40 40" fill="none" xmlns="http://www.w3.org/2000/svg">
<g id="Clip path group">
<mask id="mask0_2261_4087" style="mask-type:luminance" maskUnits="userSpaceOnUse" x="0" y="0" width="40" height="40">
<g id="clip-path-9">
<path id="Rectangle 11539" d="M39.998 0H0V39.998H39.998V0Z" fill="white"/>
</g>
</mask>
<g mask="url(#mask0_2261_4087)">
<g id="Mask Group 780" opacity="0.8">
<path id="location" d="M7.6754 5.10414C9.29078 3.472 11.2128 2.17517 13.3309 1.28818C15.4491 0.401195 17.7217 -0.0584701 20.018 -0.0643951C22.3144 -0.0703201 24.5893 0.377612 26.712 1.25366C28.8347 2.12971 30.7634 3.4166 32.3872 5.04038C34.0109 6.66417 35.2978 8.59283 36.1739 10.7155C37.0499 12.8382 37.4979 15.1131 37.4919 17.4095C37.486 19.7059 37.0263 21.9784 36.1394 24.0966C35.2524 26.2148 33.9555 28.1368 32.3234 29.7521L29.9474 32.1021C28.1961 33.8195 25.9234 36.0291 23.1294 38.7311C22.29 39.544 21.1674 39.9985 19.9989 39.9985C18.8304 39.9985 17.7078 39.544 16.8684 38.7311L9.8804 31.9311C9.0024 31.0705 8.2674 30.3441 7.6754 29.7521C6.0569 28.1338 4.77302 26.2125 3.89709 24.0979C3.02115 21.9833 2.57031 19.7169 2.57031 17.4281C2.57031 15.1393 3.02115 12.8729 3.89709 10.7584C4.77302 8.64382 6.0569 6.7225 7.6754 5.10414ZM30.2004 7.22614C27.48 4.59531 23.8347 3.13875 20.0504 3.17042C16.2661 3.2021 12.6458 4.71948 9.96974 7.39549C7.29374 10.0715 5.77636 13.6918 5.74468 17.4762C5.713 21.2605 7.16956 24.9057 9.8004 27.6261L12.7754 30.5691C14.8301 32.5765 16.8904 34.5765 18.9564 36.5691C19.2362 36.8404 19.6107 36.9921 20.0004 36.9921C20.3901 36.9921 20.7646 36.8404 21.0444 36.5691L27.8384 29.9641C28.7791 29.0415 29.5664 28.2621 30.2004 27.6261C32.9054 24.9208 34.425 21.2518 34.425 17.4261C34.425 13.6005 32.9054 9.93148 30.2004 7.22614ZM20.0004 11.9721C21.1889 11.9721 22.3507 12.3246 23.3389 12.9849C24.3271 13.6452 25.0973 14.5838 25.5521 15.6818C26.0069 16.7799 26.1258 17.9881 25.8939 19.1538C25.6619 20.3195 25.0895 21.3902 24.2491 22.2305C23.4086 23.0708 22.3378 23.6431 21.1721 23.8748C20.0064 24.1065 18.7981 23.9874 17.7002 23.5324C16.6022 23.0775 15.6638 22.3071 15.0036 21.3188C14.3435 20.3305 13.9912 19.1687 13.9914 17.9801C13.9913 17.1909 14.1466 16.4095 14.4485 15.6803C14.7504 14.9511 15.193 14.2886 15.751 13.7305C16.309 13.1724 16.9715 12.7297 17.7006 12.4276C18.4297 12.1256 19.2112 11.9701 20.0004 11.9701V11.9721ZM20.0004 14.9721C19.4059 14.9719 18.8247 15.148 18.3303 15.4781C17.8359 15.8082 17.4504 16.2775 17.2227 16.8266C16.995 17.3758 16.9352 17.9801 17.0509 18.5632C17.1666 19.1464 17.4526 19.6821 17.8728 20.1026C18.2929 20.5232 18.8284 20.8098 19.4114 20.9261C19.9944 21.0424 20.5988 20.9832 21.1481 20.756C21.6975 20.5288 22.1672 20.1438 22.4978 19.6497C22.8283 19.1557 23.005 18.5746 23.0054 17.9801C23.0055 17.5854 22.9279 17.1945 22.777 16.8297C22.626 16.465 22.4047 16.1335 22.1257 15.8543C21.8466 15.5751 21.5153 15.3535 21.1507 15.2023C20.786 15.0512 20.3952 14.9723 20.0004 14.9721Z" fill="#F97B22"/>
</g>
</g>
</g>
</svg>
