<svg width="17" height="17" viewBox="0 0 17 17" fill="none" xmlns="http://www.w3.org/2000/svg">
<g id="Clip path group">
<mask id="mask0_2261_4056" style="mask-type:luminance" maskUnits="userSpaceOnUse" x="0" y="0" width="17" height="17">
<g id="clip-path">
<path id="Rectangle 4888" d="M16.9062 0.216797H0.90625V16.2168H16.9062V0.216797Z" fill="white"/>
</g>
</mask>
<g mask="url(#mask0_2261_4056)">
<g id="Mask Group 772">
<path id="shield-task" d="M12.712 6.0588C12.8294 5.95125 12.8992 5.80149 12.9062 5.64246C12.9131 5.48343 12.8566 5.32816 12.749 5.2108C12.6415 5.09344 12.4917 5.02361 12.3327 5.01667C12.1737 5.00973 12.0184 5.06625 11.901 5.1738L7.52503 9.1858L5.93103 7.5928C5.81729 7.48681 5.66685 7.42911 5.51141 7.43186C5.35597 7.4346 5.20766 7.49757 5.09773 7.6075C4.9878 7.71743 4.92483 7.86574 4.92209 8.02118C4.91935 8.17662 4.97705 8.32706 5.08303 8.4408L7.08303 10.4408C7.19238 10.5502 7.33976 10.6132 7.49442 10.6165C7.64907 10.6199 7.79904 10.5634 7.91303 10.4588L12.712 6.0588ZM15.507 2.6168C13.2321 2.56792 11.0376 1.76608 9.26703 0.336797C9.16317 0.258904 9.03685 0.216797 8.90703 0.216797C8.77721 0.216797 8.65089 0.258904 8.54703 0.336797C6.77648 1.76608 4.58196 2.56792 2.30703 2.6168C2.1479 2.6168 1.99529 2.68001 1.88277 2.79253C1.77025 2.90505 1.70703 3.05767 1.70703 3.2168V7.4168C1.70703 11.4168 4.07303 14.3578 8.68703 16.1748C8.82841 16.2305 8.98566 16.2305 9.12703 16.1748C13.74 14.3578 16.107 11.4168 16.107 7.4168V3.2168C16.107 3.05767 16.0438 2.90505 15.9313 2.79253C15.8188 2.68001 15.6662 2.6168 15.507 2.6168ZM2.90703 3.7988C5.07879 3.63534 7.15949 2.85855 8.90703 1.5588C10.6546 2.85855 12.7353 3.63534 14.907 3.7988V7.4168C14.907 10.8168 12.945 13.3168 8.90703 14.9708C4.86903 13.3168 2.90703 10.8168 2.90703 7.4168V3.7988Z" fill="#AAAAAA"/>
</g>
</g>
</g>
</svg>
