<svg width="40" height="40" viewBox="0 0 40 40" fill="none" xmlns="http://www.w3.org/2000/svg">
<path d="M33.3337 16.6654C33.3337 26.6654 20.0003 36.6654 20.0003 36.6654C20.0003 36.6654 6.66699 26.6654 6.66699 16.6654C6.66699 13.1291 8.07175 9.73776 10.5722 7.23727C13.0727 4.73679 16.4641 3.33203 20.0003 3.33203C23.5365 3.33203 26.9279 4.73679 29.4284 7.23727C31.9289 9.73776 33.3337 13.1291 33.3337 16.6654Z" stroke="#5DBDF4" stroke-width="2" stroke-linecap="round" stroke-linejoin="round"/>
<path d="M20 21.668C22.7614 21.668 25 19.4294 25 16.668C25 13.9065 22.7614 11.668 20 11.668C17.2386 11.668 15 13.9065 15 16.668C15 19.4294 17.2386 21.668 20 21.668Z" stroke="#5DBDF4" stroke-width="2" stroke-linecap="round" stroke-linejoin="round"/>
</svg>
