<svg width="16" height="16" viewBox="0 0 16 16" fill="none" xmlns="http://www.w3.org/2000/svg">
<path d="M6.81024 0.434446C7.14328 0.153872 7.56476 0 8.00023 0C8.43571 0 8.85719 0.153872 9.19023 0.434446L14.7302 5.10645C14.9359 5.27981 15.1013 5.49597 15.2147 5.73986C15.3282 5.98374 15.3871 6.24945 15.3872 6.51845V14.5644C15.3872 14.9453 15.2359 15.3105 14.9666 15.5799C14.6973 15.8492 14.3321 16.0004 13.9512 16.0004H11.0782C10.6974 16.0004 10.3321 15.8492 10.0628 15.5799C9.79353 15.3105 9.64223 14.9453 9.64223 14.5644V10.0494C9.64223 9.99508 9.62064 9.94293 9.58219 9.90449C9.54375 9.86604 9.4916 9.84445 9.43723 9.84445H6.56423C6.50987 9.84445 6.45772 9.86604 6.41928 9.90449C6.38083 9.94293 6.35923 9.99508 6.35923 10.0494V14.5634C6.35923 14.9443 6.20794 15.3095 5.93864 15.5789C5.66934 15.8482 5.30408 15.9994 4.92323 15.9994H2.05123C1.67038 15.9994 1.30513 15.8482 1.03583 15.5789C0.766527 15.3095 0.615234 14.9443 0.615234 14.5634V6.51745C0.615282 6.24878 0.67391 5.98336 0.787033 5.73967C0.900156 5.49598 1.06505 5.27989 1.27023 5.10645L6.81024 0.434446ZM8.39623 1.37545C8.28521 1.28207 8.1448 1.23087 7.99973 1.23087C7.85467 1.23087 7.71425 1.28207 7.60323 1.37545L2.06323 6.04645C1.99476 6.10416 1.9397 6.17611 1.90187 6.25728C1.86405 6.33845 1.84438 6.42689 1.84423 6.51645V14.5624C1.84423 14.6168 1.86583 14.669 1.90428 14.7074C1.94272 14.7458 1.99487 14.7674 2.04923 14.7674H4.92223C4.9766 14.7674 5.02875 14.7458 5.06719 14.7074C5.10564 14.669 5.12723 14.6168 5.12723 14.5624V10.0484C5.12723 9.6676 5.27853 9.30234 5.54783 9.03304C5.81713 8.76374 6.18238 8.61245 6.56323 8.61245H9.43623C9.62481 8.61245 9.81154 8.64959 9.98577 8.72176C10.16 8.79392 10.3183 8.8997 10.4516 9.03304C10.585 9.16639 10.6908 9.32469 10.7629 9.49891C10.8351 9.67314 10.8722 9.85987 10.8722 10.0484V14.5624C10.8722 14.6168 10.8938 14.669 10.9323 14.7074C10.9707 14.7458 11.0229 14.7674 11.0772 14.7674H13.9512C14.0047 14.7661 14.0556 14.744 14.093 14.7057C14.1303 14.6674 14.1513 14.616 14.1512 14.5624V6.51745C14.1511 6.4279 14.1314 6.33945 14.0936 6.25828C14.0558 6.17711 14.0007 6.10516 13.9322 6.04745L8.39623 1.37545Z" fill="#AAAAAA"/>
</svg>
