<svg width="14" height="16" viewBox="0 0 14 16" fill="none" xmlns="http://www.w3.org/2000/svg">
<path d="M3.14264 0.371924L4.07164 0.092924C4.58084 -0.0603325 5.12841 -0.0230805 5.61217 0.197728C6.09592 0.418537 6.48281 0.807817 6.70064 1.29292L7.41864 2.89292C7.60669 3.30968 7.6596 3.77484 7.56993 4.22318C7.48026 4.67152 7.25252 5.08056 6.91864 5.39292L5.72464 6.49592C5.69006 6.52829 5.66809 6.57188 5.66264 6.61892C5.72942 7.26289 5.96123 7.87874 6.33564 8.40692C6.58942 8.88571 6.91333 9.32388 7.29664 9.70692C7.48964 9.87792 7.59664 9.91492 7.64064 9.90692L9.24064 9.41692C9.67772 9.28323 10.1457 9.28963 10.5789 9.43525C11.0122 9.58086 11.389 9.85838 11.6566 10.2289L12.6766 11.6429C12.9866 12.073 13.1301 12.6008 13.0804 13.1286C13.0308 13.6564 12.7914 14.1482 12.4066 14.5129L11.7016 15.1819C11.3272 15.5365 10.8674 15.7881 10.3669 15.9121C9.8664 16.0362 9.3423 16.0286 8.84564 15.8899C6.65264 15.2779 4.68764 13.4269 2.92564 10.3769C1.16364 7.32692 0.543636 4.69092 1.11364 2.48392C1.24194 1.98725 1.49603 1.53201 1.85142 1.16208C2.20681 0.792158 2.6515 0.520026 3.14264 0.371924ZM3.48764 1.51592C3.19296 1.60454 2.92609 1.76758 2.71275 1.98933C2.49941 2.21107 2.3468 2.48405 2.26964 2.78192C1.79064 4.63892 2.33864 6.97092 3.95964 9.78192C5.58064 12.5929 7.32164 14.2259 9.16664 14.7419C9.46456 14.825 9.77893 14.8296 10.0791 14.7551C10.3793 14.6806 10.6551 14.5296 10.8796 14.3169L11.5856 13.6479C11.7585 13.4819 11.866 13.2594 11.8886 13.0208C11.9112 12.7822 11.8473 12.5434 11.7086 12.3479L10.6896 10.9269C10.5674 10.7587 10.3958 10.6327 10.1986 10.5666C10.0015 10.5004 9.78859 10.4974 9.58964 10.5579L7.98964 11.0489C7.05764 11.3259 6.21264 10.5769 5.30464 9.00392C4.78243 8.26709 4.49457 7.3899 4.47864 6.48692C4.51614 6.15603 4.67037 5.84935 4.91364 5.62192L6.10364 4.51292C6.25503 4.37079 6.35843 4.18504 6.39946 3.98148C6.4405 3.77791 6.41714 3.56661 6.33264 3.37692L5.61464 1.77692C5.5148 1.55736 5.33898 1.38128 5.11956 1.28113C4.90014 1.18098 4.65192 1.1635 4.42064 1.23192L3.49064 1.51192L3.48764 1.51592Z" fill="#AAAAAA"/>
</svg>
