<svg width="24" height="24" viewBox="0 0 24 24" fill="none" xmlns="http://www.w3.org/2000/svg">
<g id="Group 30465">
<g id="Group 30457">
<g id="Group 29340" opacity="0.8">
<path id="Path 41005" d="M11.4137 11.9026C11.4137 11.3816 11.4137 10.8636 11.4137 10.3436C11.4055 10.2244 11.422 10.1047 11.4622 9.99215C11.5024 9.87959 11.5654 9.77655 11.6472 9.68947C11.7291 9.6024 11.828 9.53319 11.9379 9.48614C12.0477 9.43908 12.1661 9.41521 12.2857 9.41604C12.4052 9.41686 12.5231 9.44235 12.6323 9.49093C12.7415 9.5395 12.8395 9.61012 12.9202 9.69832C13.0008 9.78653 13.0625 9.89043 13.1011 10.0035C13.1397 10.1166 13.1545 10.2365 13.1447 10.3556C13.1447 11.4036 13.1507 12.4556 13.1447 13.5016C13.1353 13.5801 13.1513 13.6595 13.1903 13.7283C13.2294 13.797 13.2895 13.8514 13.3617 13.8836C14.2827 14.4046 15.1946 14.9346 16.1096 15.4666C16.2865 15.5473 16.4316 15.6846 16.5221 15.8567C16.6126 16.0288 16.6434 16.2261 16.6096 16.4176C16.5833 16.5578 16.523 16.6895 16.4337 16.8009C16.3445 16.9122 16.2292 16.9999 16.098 17.0562C15.9669 17.1124 15.8239 17.1355 15.6817 17.1233C15.5394 17.1112 15.4023 17.0642 15.2826 16.9866C14.3736 16.4686 13.4646 15.9446 12.5636 15.4096C12.4855 15.3525 12.3914 15.3218 12.2947 15.3218C12.198 15.3218 12.1037 15.3525 12.0256 15.4096C11.1256 15.9429 10.2187 16.4666 9.3047 16.9806C9.20588 17.047 9.09434 17.0924 8.97718 17.1137C8.86003 17.1351 8.73971 17.132 8.62379 17.1048C8.50787 17.0775 8.39893 17.0266 8.3036 16.9552C8.20827 16.8838 8.12865 16.7935 8.06983 16.69C8.01102 16.5864 7.97428 16.4719 7.9618 16.3534C7.94932 16.235 7.96139 16.1153 7.99732 16.0017C8.03326 15.8882 8.09219 15.7833 8.17054 15.6936C8.2489 15.6039 8.34496 15.5314 8.45265 15.4806C9.35865 14.9566 10.2656 14.4296 11.1776 13.9156C11.2593 13.8803 11.3276 13.8198 11.3726 13.743C11.4175 13.6662 11.4368 13.5771 11.4276 13.4886C11.4016 12.9626 11.4137 12.4326 11.4137 11.9026Z" fill="#DCDCDC"/>
<path id="user-line (2)" d="M9 9.627C9 8.75549 9.3462 7.91969 9.96245 7.30344C10.5787 6.6872 11.4145 6.341 12.286 6.341C13.1575 6.341 13.9933 6.6872 14.6096 7.30344C15.2258 7.91969 15.572 8.75549 15.572 9.627H14.75C14.7566 9.29918 14.6977 8.97333 14.5769 8.66854C14.456 8.36376 14.2755 8.08615 14.046 7.85197C13.8165 7.6178 13.5426 7.43177 13.2403 7.30477C12.938 7.17777 12.6134 7.11235 12.2855 7.11235C11.9576 7.11235 11.633 7.17777 11.3307 7.30477C11.0284 7.43177 10.7545 7.6178 10.525 7.85197C10.2955 8.08615 10.115 8.36376 9.99415 8.66854C9.87326 8.97333 9.8144 9.29918 9.821 9.627H9ZM12.29 5.93C11.8023 5.93099 11.3252 5.78726 10.9192 5.517C10.5131 5.24675 10.1964 4.86211 10.0091 4.41178C9.82174 3.96145 9.77221 3.46566 9.86676 2.98717C9.9613 2.50868 10.1957 2.06899 10.5402 1.72375C10.8847 1.37852 11.324 1.14325 11.8023 1.04773C12.2806 0.952214 12.7764 1.00074 13.2272 1.18716C13.6779 1.37358 14.0631 1.68952 14.3342 2.095C14.6053 2.50047 14.75 2.97725 14.75 3.465C14.7503 4.11797 14.4913 4.74435 14.0301 5.20654C13.5688 5.66873 12.943 5.92894 12.29 5.93ZM12.29 5.108C12.6148 5.10721 12.932 5.01017 13.2017 4.82916C13.4714 4.64814 13.6813 4.39127 13.8051 4.09098C13.9288 3.79069 13.9608 3.46046 13.8969 3.14202C13.8331 2.82357 13.6763 2.53119 13.4464 2.30181C13.2164 2.07244 12.9237 1.91635 12.6051 1.85328C12.2865 1.79021 11.9563 1.82298 11.6563 1.94745C11.3563 2.07192 11.1 2.28251 10.9196 2.55261C10.7393 2.82271 10.643 3.14021 10.643 3.465C10.643 3.68109 10.6856 3.89507 10.7684 4.09467C10.8513 4.29427 10.9726 4.47557 11.1256 4.62819C11.2786 4.78081 11.4602 4.90175 11.66 4.98408C11.8598 5.06641 12.0739 5.10852 12.29 5.108Z" fill="#DCDCDC" stroke="#DCDCDC" stroke-width="0.5"/>
<path id="user-line (2)_2" d="M17 22.9024C17 22.0309 17.3462 21.1951 17.9624 20.5788C18.5787 19.9626 19.4145 19.6164 20.286 19.6164C21.1575 19.6164 21.9933 19.9626 22.6096 20.5788C23.2258 21.1951 23.572 22.0309 23.572 22.9024H22.75C22.7566 22.5746 22.6977 22.2487 22.5769 21.9439C22.456 21.6391 22.2755 21.3615 22.046 21.1274C21.8165 20.8932 21.5426 20.7072 21.2403 20.5802C20.938 20.4532 20.6134 20.3877 20.2855 20.3877C19.9576 20.3877 19.633 20.4532 19.3307 20.5802C19.0284 20.7072 18.7545 20.8932 18.525 21.1274C18.2955 21.3615 18.115 21.6391 17.9941 21.9439C17.8733 22.2487 17.8144 22.5746 17.821 22.9024H17ZM20.29 19.2054C19.8023 19.2064 19.3252 19.0626 18.9192 18.7924C18.5131 18.5221 18.1964 18.1375 18.0091 17.6872C17.8217 17.2368 17.7722 16.7411 17.8668 16.2626C17.9613 15.7841 18.1957 15.3444 18.5402 14.9991C18.8847 14.6539 19.324 14.4186 19.8023 14.3231C20.2806 14.2276 20.7764 14.2761 21.2272 14.4625C21.6779 14.649 22.0631 14.9649 22.3342 15.3704C22.6053 15.7759 22.75 16.2526 22.75 16.7404C22.7503 17.3934 22.4913 18.0197 22.0301 18.4819C21.5688 18.9441 20.943 19.2043 20.29 19.2054ZM20.29 18.3834C20.6148 18.3826 20.932 18.2856 21.2017 18.1045C21.4714 17.9235 21.6813 17.6667 21.8051 17.3664C21.9288 17.0661 21.9608 16.7359 21.8969 16.4174C21.8331 16.099 21.6763 15.8066 21.4464 15.5772C21.2164 15.3478 20.9237 15.1917 20.6051 15.1287C20.2865 15.0656 19.9563 15.0984 19.6563 15.2228C19.3563 15.3473 19.1 15.5579 18.9196 15.828C18.7393 16.0981 18.643 16.4156 18.643 16.7404C18.643 16.9565 18.6856 17.1705 18.7684 17.3701C18.8513 17.5697 18.9726 17.751 19.1256 17.9036C19.2786 18.0562 19.4602 18.1771 19.66 18.2595C19.8598 18.3418 20.0739 18.3839 20.29 18.3834Z" fill="#DCDCDC" stroke="#DCDCDC" stroke-width="0.5"/>
<path id="user-line (2)_3" d="M1 22.9024C1 22.0309 1.3462 21.1951 1.96245 20.5788C2.57869 19.9626 3.4145 19.6164 4.286 19.6164C5.1575 19.6164 5.99331 19.9626 6.60955 20.5788C7.2258 21.1951 7.572 22.0309 7.572 22.9024H6.75C6.7566 22.5746 6.69774 22.2487 6.57685 21.9439C6.45597 21.6391 6.27549 21.3615 6.04598 21.1274C5.81648 20.8932 5.54256 20.7072 5.24027 20.5802C4.93798 20.4532 4.61339 20.3877 4.2855 20.3877C3.95761 20.3877 3.63302 20.4532 3.33073 20.5802C3.02844 20.7072 2.75452 20.8932 2.52502 21.1274C2.29551 21.3615 2.11503 21.6391 1.99415 21.9439C1.87326 22.2487 1.8144 22.5746 1.821 22.9024H1ZM4.29 19.2054C3.80226 19.2064 3.32518 19.0626 2.91916 18.7924C2.51314 18.5221 2.19641 18.1375 2.00908 17.6872C1.82174 17.2368 1.77221 16.7411 1.86676 16.2626C1.9613 15.7841 2.19568 15.3444 2.54021 14.9991C2.88475 14.6539 3.32396 14.4186 3.80226 14.3231C4.28056 14.2276 4.77644 14.2761 5.22716 14.4625C5.67787 14.649 6.06314 14.9649 6.33422 15.3704C6.6053 15.7759 6.75 16.2526 6.75 16.7404C6.75027 17.3934 6.49133 18.0197 6.03008 18.4819C5.56883 18.9441 4.94297 19.2043 4.29 19.2054ZM4.29 18.3834C4.61478 18.3826 4.93205 18.2856 5.20171 18.1045C5.47137 17.9235 5.68134 17.6667 5.80508 17.3664C5.92882 17.0661 5.96079 16.7359 5.89694 16.4174C5.83309 16.099 5.6763 15.8066 5.44636 15.5772C5.21643 15.3478 4.92367 15.1917 4.60507 15.1287C4.28646 15.0656 3.95632 15.0984 3.65633 15.2228C3.35634 15.3473 3.09998 15.5579 2.91962 15.828C2.73926 16.0981 2.643 16.4156 2.643 16.7404C2.643 16.9565 2.68563 17.1705 2.76845 17.3701C2.85127 17.5697 2.97265 17.751 3.12564 17.9036C3.27863 18.0562 3.46022 18.1771 3.66002 18.2595C3.85982 18.3418 4.0739 18.3839 4.29 18.3834Z" fill="#DCDCDC" stroke="#DCDCDC" stroke-width="0.5"/>
</g>
</g>
</g>
</svg>
