<svg width="22" height="20" viewBox="0 0 22 20" fill="none" xmlns="http://www.w3.org/2000/svg">
<mask id="mask0_27_1402" style="mask-type:luminance" maskUnits="userSpaceOnUse" x="0" y="0" width="22" height="20">
<path d="M21.2223 0H0.728516V20H21.2223V0Z" fill="white"/>
</mask>
<g mask="url(#mask0_27_1402)">
<path d="M6.19249 3.33397V16.668H14.7312V3.33397H6.19249ZM5.33892 1.66797H15.5858C15.8122 1.66797 16.0293 1.75573 16.1894 1.91195C16.3495 2.06817 16.4394 2.28004 16.4394 2.50097V17.501C16.4394 17.7219 16.3495 17.9338 16.1894 18.09C16.0293 18.2462 15.8122 18.334 15.5858 18.334H5.33892C5.11254 18.334 4.89543 18.2462 4.73536 18.09C4.57528 17.9338 4.48535 17.7219 4.48535 17.501V2.50097C4.48535 2.28004 4.57528 2.06817 4.73536 1.91195C4.89543 1.75573 5.11254 1.66797 5.33892 1.66797ZM10.4624 14.168C10.6312 14.168 10.7962 14.2168 10.9366 14.3084C11.077 14.3999 11.1864 14.53 11.251 14.6822C11.3156 14.8344 11.3325 15.0019 11.2995 15.1635C11.2666 15.3251 11.1853 15.4735 11.0659 15.59C10.9466 15.7065 10.7945 15.7858 10.6289 15.818C10.4633 15.8501 10.2917 15.8336 10.1357 15.7706C9.97976 15.7075 9.84645 15.6007 9.75266 15.4638C9.65887 15.3268 9.60881 15.1657 9.60881 15.001C9.60881 14.78 9.69874 14.5682 9.85881 14.4119C10.0189 14.2557 10.236 14.168 10.4624 14.168Z" fill="#B5B6BA"/>
</g>
</svg>
