<svg width="14" height="16" viewBox="0 0 14 16" fill="none" xmlns="http://www.w3.org/2000/svg">
<path d="M11.6085 9.59609C12.0859 9.59609 12.5437 9.78574 12.8813 10.1233C13.2189 10.4609 13.4085 10.9187 13.4085 11.3961V11.8561C13.4083 12.5717 13.1522 13.2637 12.6865 13.8071C11.4315 15.2751 9.52152 15.9961 7.00352 15.9961C4.48552 15.9961 2.57752 15.2721 1.32452 13.8041C0.860554 13.2621 0.604929 12.5725 0.603516 11.8591V11.3961C0.603516 10.9187 0.793158 10.4609 1.13072 10.1233C1.46829 9.78574 1.92613 9.59609 2.40352 9.59609H11.6035H11.6085ZM11.6085 10.7961H2.40352C2.24439 10.7961 2.09177 10.8593 1.97925 10.9718C1.86673 11.0844 1.80352 11.237 1.80352 11.3961V11.8581C1.80372 12.2868 1.95691 12.7013 2.23552 13.0271C3.23552 14.2021 4.81152 14.7981 7.00152 14.7981C9.19151 14.7981 10.7665 14.1981 11.7715 13.0271C12.0509 12.7009 12.2045 12.2856 12.2045 11.8561V11.3961C12.2045 11.237 12.1413 11.0844 12.0288 10.9718C11.9163 10.8593 11.7636 10.7961 11.6045 10.7961H11.6085ZM7.00352 -0.00390625C7.79464 -0.00390625 8.568 0.23069 9.2258 0.670215C9.88359 1.10974 10.3963 1.73446 10.699 2.46536C11.0018 3.19626 11.081 4.00053 10.9267 4.77645C10.7723 5.55238 10.3914 6.26511 9.83194 6.82452C9.27253 7.38393 8.5598 7.76489 7.78388 7.91923C7.00795 8.07358 6.20369 7.99436 5.47278 7.69161C4.74188 7.38886 4.11716 6.87617 3.67764 6.21837C3.23811 5.56058 3.00352 4.78722 3.00352 3.99609C3.00352 2.93523 3.42494 1.91781 4.17509 1.16767C4.92523 0.417521 5.94265 -0.00390625 7.00352 -0.00390625ZM7.00352 1.19609C6.44973 1.19609 5.90838 1.36031 5.44792 1.66798C4.98746 1.97565 4.62858 2.41295 4.41665 2.92458C4.20473 3.43621 4.14928 3.9992 4.25732 4.54235C4.36536 5.08549 4.63203 5.58441 5.02362 5.97599C5.4152 6.36758 5.91412 6.63425 6.45726 6.74229C7.00041 6.85033 7.5634 6.79488 8.07503 6.58296C8.58666 6.37103 9.02396 6.01215 9.33163 5.55169C9.6393 5.09123 9.80352 4.54988 9.80352 3.99609C9.80352 3.25349 9.50852 2.5413 8.98341 2.01619C8.45831 1.49109 7.74612 1.19609 7.00352 1.19609Z" fill="#AAAAAA"/>
</svg>
