<svg width="18" height="20" viewBox="0 0 18 20" fill="none" xmlns="http://www.w3.org/2000/svg">
<path id="presentation-line" d="M5 2C5 2.39556 4.8827 2.78224 4.66294 3.11114C4.44318 3.44004 4.13082 3.69638 3.76537 3.84776C3.39991 3.99913 2.99778 4.03874 2.60982 3.96157C2.22186 3.8844 1.86549 3.69392 1.58579 3.41421C1.30608 3.13451 1.1156 2.77814 1.03843 2.39018C0.961259 2.00222 1.00087 1.60009 1.15224 1.23463C1.30362 0.869181 1.55996 0.556823 1.88886 0.337061C2.21776 0.117298 2.60444 0 3 0C3.53043 0 4.03914 0.210714 4.41421 0.585786C4.78929 0.960859 5 1.46957 5 2ZM2 14V20H3.67088e-08V8C-9.24816e-05 7.40845 0.1747 6.83008 0.502402 6.3376C0.830104 5.84512 1.29609 5.46051 1.84177 5.23213C2.38745 5.00375 2.98847 4.94179 3.56927 5.05404C4.15006 5.16629 4.68471 5.44773 5.106 5.863L7.48 8.105L9.793 5.792L11.207 7.206L7.52 10.894L6 9.459V20H4V14H2ZM3 7C2.73478 7 2.48043 7.10536 2.29289 7.29289C2.10536 7.48043 2 7.73478 2 8V12H4V8C4 7.73478 3.89464 7.48043 3.70711 7.29289C3.51957 7.10536 3.26522 7 3 7ZM16 3H7V1H17C17.2652 1 17.5196 1.10536 17.7071 1.29289C17.8946 1.48043 18 1.73478 18 2V13C18 13.2652 17.8946 13.5196 17.7071 13.7071C17.5196 13.8946 17.2652 14 17 14H13.576L16.4 20H14.19L11.367 14H7V12H16V3Z" fill="#DCDCDC"/>
</svg>
