<svg width="17" height="17" viewBox="0 0 17 17" fill="none" xmlns="http://www.w3.org/2000/svg">
<g id="Clip path group">
<mask id="mask0_2261_4073" style="mask-type:luminance" maskUnits="userSpaceOnUse" x="0" y="0" width="17" height="17">
<g id="clip-path">
<path id="Rectangle 4888" d="M16.3398 0.216797H0.339844V16.2168H16.3398V0.216797Z" fill="white"/>
</g>
</mask>
<g mask="url(#mask0_2261_4073)">
<g id="Mask Group 770">
<g id="sign-out">
<path id="Path 40205" d="M5.53828 7.97461C5.69651 7.97461 5.85118 8.02153 5.98274 8.10943C6.1143 8.19734 6.21683 8.32228 6.27738 8.46846C6.33793 8.61464 6.35378 8.7755 6.32291 8.93068C6.29204 9.08587 6.21585 9.22841 6.10397 9.34029C5.99208 9.45218 5.84954 9.52837 5.69435 9.55924C5.53917 9.59011 5.37832 9.57426 5.23213 9.51371C5.08595 9.45316 4.96101 9.35063 4.87311 9.21907C4.7852 9.08751 4.73828 8.93283 4.73828 8.77461C4.73828 8.56244 4.82257 8.35895 4.9726 8.20892C5.12262 8.0589 5.32611 7.97461 5.53828 7.97461Z" fill="#AAAAAA"/>
<path id="Path 40206" d="M8.33984 2.2586V7.5796H14.2948L12.9178 6.1996C12.8162 6.09794 12.7545 5.96319 12.7439 5.81986C12.7332 5.67653 12.7744 5.53414 12.8598 5.4186L12.9178 5.3516C13.0195 5.24999 13.1542 5.18825 13.2976 5.1776C13.4409 5.16696 13.5833 5.20812 13.6988 5.2936L13.7658 5.3516L16.1658 7.7516C16.2675 7.85325 16.3292 7.988 16.3398 8.13133C16.3505 8.27466 16.3093 8.41705 16.2238 8.5326L16.1658 8.5996L13.7658 10.9996C13.6587 11.1059 13.5154 11.168 13.3646 11.1733C13.2137 11.1787 13.0664 11.1271 12.952 11.0286C12.8375 10.9302 12.7644 10.7923 12.7471 10.6423C12.7299 10.4924 12.7698 10.3414 12.8588 10.2196L12.9168 10.1516L14.2878 8.7746H8.33984V14.1746C8.33976 14.2618 8.32066 14.3479 8.28388 14.427C8.24711 14.5061 8.19354 14.5762 8.12691 14.6324C8.06028 14.6887 7.98218 14.7298 7.89807 14.7527C7.81395 14.7757 7.72583 14.7801 7.63984 14.7656L0.839844 13.5656C0.700307 13.542 0.573598 13.4699 0.482104 13.3619C0.390611 13.2539 0.340223 13.1171 0.339844 12.9756V3.3746C0.339751 3.23274 0.389925 3.09543 0.48146 2.98705C0.572994 2.87868 0.699968 2.80624 0.839844 2.7826L7.63984 1.6666C7.72591 1.65205 7.81412 1.65645 7.89831 1.67951C7.9825 1.70256 8.06064 1.74371 8.12729 1.80007C8.19394 1.85644 8.24749 1.92667 8.2842 2.00586C8.32091 2.08506 8.3399 2.17131 8.33984 2.2586ZM7.13984 2.9646L1.53984 3.8846V12.4746L7.13984 13.4636V2.9646Z" fill="#AAAAAA"/>
<path id="Path 40207" d="M9.14062 13.5754H9.75263H9.83463C9.97916 13.5555 10.1115 13.4835 10.2068 13.3731C10.3022 13.2627 10.354 13.1213 10.3526 12.9754L10.3466 9.57539H9.14062V13.5754ZM9.14062 6.77539V5.75539V2.77539H9.74063C9.88566 2.77524 10.0258 2.82763 10.1352 2.92286C10.2446 3.01809 10.3158 3.14972 10.3356 3.29339L10.3406 3.37539V6.77539H9.14062Z" fill="#AAAAAA"/>
</g>
</g>
</g>
</g>
</svg>
