<svg width="17" height="16" viewBox="0 0 17 16" fill="none" xmlns="http://www.w3.org/2000/svg">
<path id="Vector" d="M4.1296 13.5412C4.03497 13.5763 3.94077 13.6114 3.84571 13.6452C3.21859 13.869 2.64513 13.6723 2.31195 13.1183C1.88457 12.407 1.45022 11.6779 0.984466 10.8887C0.654778 10.3284 0.763802 9.74685 1.27883 9.33958C1.35123 9.28165 1.42406 9.22413 1.49688 9.16662C1.63992 9.05243 1.78951 8.93402 1.93298 8.81222C2.19027 8.59484 2.33157 8.30726 2.33114 8.00276C2.3307 7.69826 2.18941 7.40984 1.92775 7.19077C1.79125 7.07531 1.64951 6.96324 1.51215 6.85498C1.42231 6.78435 1.33509 6.71457 1.24787 6.64352C0.780378 6.2629 0.663938 5.66786 0.957866 5.16333C1.42013 4.3691 1.88545 3.58714 2.34204 2.83732C2.64382 2.34125 3.20726 2.14374 3.77767 2.33406C3.93336 2.38607 4.09079 2.44359 4.24343 2.49899C4.36553 2.5434 4.49156 2.59034 4.61672 2.63263C4.95601 2.74935 5.29529 2.72567 5.57614 2.56285C5.85699 2.40002 6.0432 2.11837 6.09946 1.76989L6.11167 1.69334C6.15179 1.44425 6.19322 1.18585 6.24903 0.936752C6.35675 0.447864 6.65679 0.149288 7.16484 0.024952C7.18578 0.019536 7.20577 0.011128 7.22415 0H10.3771L10.4295 0.016496C10.4783 0.031296 10.5246 0.045256 10.5682 0.062168C11.0213 0.231336 11.2812 0.547248 11.3636 1.02302C11.3776 1.10253 11.3902 1.18246 11.4033 1.26239C11.4377 1.47723 11.4739 1.69926 11.5276 1.91579C11.5603 2.05388 11.6223 2.18383 11.7097 2.29736C11.7971 2.41089 11.908 2.50548 12.0352 2.57511C12.1644 2.64558 12.3074 2.68914 12.4549 2.70297C12.6025 2.71681 12.7514 2.70062 12.8921 2.65546C13.0866 2.59498 13.2798 2.52351 13.4665 2.45458C13.5615 2.41948 13.6562 2.38438 13.7517 2.35054C14.3666 2.13444 14.9492 2.33447 15.2763 2.87876C15.7534 3.67045 16.1903 4.40462 16.6116 5.12019C16.9374 5.67336 16.8279 6.24894 16.319 6.65959C16.2444 6.71965 16.1694 6.77886 16.0944 6.83806C15.9522 6.95056 15.8053 7.06728 15.664 7.18697C15.4045 7.40688 15.2614 7.69785 15.261 7.99896C15.2606 8.30007 15.4027 8.58807 15.6605 8.80757C15.8013 8.9281 15.9487 9.0444 16.0913 9.15689C16.1746 9.22244 16.2579 9.28842 16.3403 9.35523C16.8187 9.74219 16.9321 10.3279 16.6299 10.8464C16.1755 11.6233 15.7141 12.4006 15.2527 13.1568C14.9492 13.6562 14.3801 13.8542 13.8031 13.6609C13.647 13.6089 13.4891 13.5509 13.3369 13.4955C13.22 13.4532 13.0992 13.411 12.9798 13.3687C12.6396 13.2507 12.2977 13.2748 12.0155 13.4372C11.7334 13.5996 11.5476 13.8791 11.4922 14.2246L11.49 14.2369C11.4442 14.5228 11.3967 14.8184 11.3322 15.1039C11.2754 15.3584 11.1302 15.5864 10.9207 15.7494C10.7112 15.9124 10.4503 16.0006 10.1817 15.9992C9.31957 15.9992 8.46177 15.9992 7.43955 15.9992C6.81157 15.9987 6.32445 15.5915 6.22676 14.9867L6.2019 14.8286C6.16396 14.5867 6.12428 14.3363 6.06454 14.0931C6.01198 13.8651 5.88089 13.6612 5.69284 13.5152C5.5048 13.3691 5.27104 13.2895 5.03011 13.2896C4.90884 13.2899 4.7884 13.309 4.67338 13.3463C4.48935 13.4055 4.30623 13.4736 4.1296 13.5412ZM4.27177 12.3579C4.56775 12.2523 4.88388 12.2105 5.19821 12.2354C5.51253 12.2603 5.8175 12.3512 6.09191 12.5019C6.36631 12.6527 6.60359 12.8595 6.78722 13.1082C6.97085 13.3568 7.09644 13.6413 7.15526 13.9417C7.19669 14.1477 7.23375 14.3591 7.26951 14.563C7.28638 14.6597 7.30353 14.756 7.32097 14.8518L7.33667 14.9394H10.2537L10.2694 14.8518C10.2895 14.7423 10.3078 14.6336 10.3261 14.5249C10.3654 14.2881 10.4033 14.0644 10.457 13.8406C10.5285 13.5484 10.6642 13.2745 10.855 13.0378C11.0457 12.8011 11.2869 12.6071 11.562 12.4691C11.8442 12.3254 12.1554 12.2434 12.4738 12.2288C12.7922 12.2141 13.11 12.2673 13.405 12.3846C13.5772 12.4497 13.7464 12.5114 13.9261 12.5766C14.009 12.6062 14.0923 12.6362 14.1769 12.6675L14.2641 12.6988L15.7268 10.2434L15.4468 10.0196C15.2981 9.90164 15.1546 9.78703 15.0107 9.67326C14.4599 9.23809 14.1764 8.68534 14.1681 8.02941C14.1594 7.34471 14.4477 6.76871 15.0251 6.31619C15.1694 6.20285 15.3155 6.0857 15.4568 5.97237L15.6544 5.81378L15.7272 5.75838L14.2663 3.30549L14.1791 3.33594L13.8738 3.44716C13.6557 3.52709 13.4503 3.60237 13.2388 3.66961C12.9466 3.76169 12.6376 3.79256 12.3321 3.76019C12.0267 3.72782 11.7318 3.63295 11.467 3.48184C11.2022 3.33074 10.9735 3.12683 10.796 2.88363C10.6185 2.64042 10.4962 2.36343 10.4373 2.071C10.3959 1.85955 10.3575 1.64513 10.3209 1.43663C10.3034 1.33767 10.286 1.23914 10.2681 1.14059L10.2524 1.05347H7.51765C7.49584 1.05347 7.47579 1.05728 7.45224 1.05728L7.42171 1.05982L7.33711 1.06574L7.32228 1.14694C7.30266 1.25478 7.28521 1.36263 7.26733 1.47004C7.23026 1.69545 7.19232 1.92847 7.1365 2.15008C7.06677 2.44043 6.9338 2.71296 6.74652 2.94937C6.55923 3.18578 6.32195 3.38059 6.05062 3.52074C5.77624 3.66117 5.4744 3.74392 5.16481 3.76359C4.85522 3.78327 4.54484 3.73943 4.2539 3.63492C4.06376 3.56768 3.87406 3.49917 3.68261 3.42981L3.32632 3.30294L1.86669 5.75583L1.93734 5.81292C2.01976 5.87974 2.10219 5.94487 2.18373 6.01C2.36559 6.15422 2.53697 6.28997 2.704 6.43587C2.9318 6.6275 3.114 6.86481 3.23801 7.13139C3.36202 7.39797 3.42488 7.68748 3.42225 7.97992C3.42748 8.66039 3.14097 9.23259 2.57099 9.6813C2.42489 9.79548 2.28055 9.91094 2.13489 10.0281L1.93516 10.1875L1.86408 10.2446L3.32675 12.6975L3.41396 12.6658C3.51121 12.6307 3.60628 12.5956 3.69961 12.5613C3.89586 12.489 4.08294 12.4209 4.27177 12.3579Z" fill="white"/>
</svg>
