<svg width="41" height="41" viewBox="0 0 41 41" fill="none" xmlns="http://www.w3.org/2000/svg">
<g id="Clip path group">
<mask id="mask0_2261_4120" style="mask-type:luminance" maskUnits="userSpaceOnUse" x="0" y="0" width="41" height="41">
<g id="clip-path-12">
<path id="Rectangle 11531" d="M40.199 0H0V40.199H40.199V0Z" fill="white"/>
</g>
</mask>
<g mask="url(#mask0_2261_4120)">
<g id="Mask Group 776" opacity="0.8">
<path id="settings" d="M20.1222 0.00195312C21.6363 0.0187525 23.1445 0.193702 24.6222 0.523953C24.9368 0.594097 25.2215 0.760766 25.4367 1.00066C25.6518 1.24056 25.7866 1.54169 25.8222 1.86195L26.1722 5.00995C26.2218 5.45378 26.3748 5.87979 26.619 6.25368C26.8632 6.62758 27.1918 6.93893 27.5783 7.16267C27.9648 7.38641 28.3984 7.5163 28.8442 7.54188C29.2901 7.56746 29.7357 7.48802 30.1452 7.30995L33.0312 6.03995C33.3245 5.91088 33.6506 5.8761 33.9644 5.94041C34.2783 6.00472 34.5644 6.16495 34.7832 6.39895C36.8695 8.62753 38.4231 11.3002 39.3272 14.216C39.4219 14.5223 39.4189 14.8505 39.3187 15.1551C39.2186 15.4596 39.0262 15.7255 38.7682 15.916L36.2082 17.804C35.8482 18.0684 35.5554 18.414 35.3536 18.8126C35.1518 19.2112 35.0467 19.6517 35.0467 20.0985C35.0467 20.5452 35.1518 20.9857 35.3536 21.3843C35.5554 21.7829 35.8482 22.1285 36.2082 22.393L38.7712 24.279C39.0296 24.4691 39.2223 24.7349 39.3228 25.0395C39.4234 25.3441 39.4266 25.6724 39.3322 25.979C38.4277 28.8945 36.8741 31.5671 34.7882 33.796C34.57 34.0294 34.2846 34.1895 33.9716 34.2542C33.6586 34.3188 33.3332 34.2849 33.0402 34.157L30.1402 32.885C29.7309 32.7055 29.2851 32.625 28.8389 32.6499C28.3927 32.6749 27.9586 32.8046 27.5719 33.0286C27.1851 33.2526 26.8566 33.5646 26.6129 33.9392C26.3692 34.3138 26.2172 34.7406 26.1692 35.185L25.8212 38.331C25.7866 38.6486 25.6543 38.9478 25.4426 39.1872C25.231 39.4266 24.9503 39.5946 24.6392 39.668C21.6532 40.3783 18.5422 40.3783 15.5562 39.668C15.2462 39.5942 14.9665 39.4265 14.7555 39.1877C14.5444 38.9489 14.4123 38.6507 14.3772 38.334L14.0312 35.192C13.9807 34.7491 13.827 34.3242 13.5824 33.9515C13.3378 33.5788 13.0092 33.2688 12.6229 33.0462C12.2367 32.8237 11.8036 32.6949 11.3585 32.6702C10.9134 32.6455 10.4688 32.7255 10.0602 32.904L7.16025 34.174C6.86706 34.3023 6.54127 34.3365 6.22781 34.2719C5.91435 34.2072 5.62869 34.0469 5.41025 33.813C3.32442 31.5815 1.77182 28.9061 0.869246 25.988C0.774851 25.6814 0.778139 25.3531 0.878655 25.0485C0.979172 24.7439 1.17194 24.4781 1.43025 24.288L3.99325 22.4C4.35369 22.1357 4.64681 21.7903 4.84886 21.3916C5.05091 20.993 5.1562 20.5524 5.1562 20.1055C5.1562 19.6585 5.05091 19.2179 4.84886 18.8193C4.64681 18.4206 4.35369 18.0752 3.99325 17.811L1.43025 15.923C1.17229 15.7325 0.979924 15.4666 0.879772 15.1621C0.77962 14.8575 0.77664 14.5293 0.871246 14.223C1.77504 11.3062 3.32868 8.63244 5.41525 6.40295C5.63361 6.16828 5.91951 6.00729 6.2334 5.94226C6.54728 5.87722 6.87362 5.91136 7.16725 6.03995L10.0532 7.30795C10.4632 7.48587 10.9091 7.56522 11.3553 7.53962C11.8014 7.51402 12.2354 7.38419 12.6223 7.16055C13.0092 6.9369 13.3383 6.62568 13.5831 6.25185C13.828 5.87801 13.9818 5.45199 14.0322 5.00795L14.3822 1.86195C14.4175 1.54133 14.5521 1.23975 14.7673 0.999465C14.9825 0.759178 15.2674 0.592212 15.5822 0.521953C17.0726 0.192533 18.593 0.0182711 20.1192 0.00195312H20.1222ZM20.1222 3.09395C19.1872 3.10488 18.2543 3.18544 17.3312 3.33495L17.1062 5.34895C17.0042 6.2767 16.6853 7.16742 16.1753 7.94913C15.6653 8.73084 14.9786 9.38162 14.1707 9.84888C13.3627 10.3161 12.4561 10.5868 11.5243 10.6389C10.5924 10.691 9.66128 10.5232 8.80625 10.149L6.95525 9.33695C5.77603 10.7681 4.83744 12.3815 4.17625 14.114L5.82125 15.324C6.5722 15.8757 7.18277 16.5964 7.60361 17.4279C8.02444 18.2593 8.24372 19.1781 8.24372 20.11C8.24372 21.0418 8.02444 21.9606 7.60361 22.792C7.18277 23.6235 6.5722 24.3442 5.82125 24.896L4.17825 26.103C4.83882 27.8388 5.77741 29.4556 6.95725 30.89L8.82325 30.072C9.67568 29.6997 10.6036 29.5329 11.5323 29.5848C12.461 29.6367 13.3646 29.906 14.1702 30.3709C14.9758 30.8359 15.661 31.4835 16.1706 32.2616C16.6803 33.0397 17 33.9266 17.1042 34.851L17.3312 36.88C19.1646 37.1891 21.0369 37.1891 22.8702 36.88L23.0972 34.851C23.1998 33.9255 23.5185 33.0371 24.0277 32.2575C24.5369 31.478 25.2222 30.829 26.0284 30.3631C26.8345 29.8972 27.739 29.6274 28.6686 29.5754C29.5983 29.5234 30.5272 29.6908 31.3802 30.064L33.2462 30.88C34.4249 29.4481 35.3629 27.834 36.0232 26.101L34.3782 24.889C33.6273 24.3372 33.0167 23.6165 32.5959 22.785C32.175 21.9536 31.9558 21.0348 31.9558 20.103C31.9558 19.1711 32.175 18.2523 32.5959 17.4209C33.0167 16.5894 33.6273 15.8687 34.3782 15.317L36.0192 14.107C35.3577 12.3744 34.4188 10.761 33.2392 9.32995L31.3922 10.14C30.5383 10.5136 29.6084 10.6812 28.6777 10.6293C27.747 10.5774 26.8416 10.3074 26.0345 9.84109C25.2274 9.3748 24.5412 8.72529 24.0313 7.94497C23.5214 7.16465 23.2022 6.27539 23.0992 5.34895L22.8722 3.33995C21.9635 3.19145 21.045 3.11089 20.1242 3.09895L20.1222 3.09395ZM20.0972 12.371C21.6263 12.371 23.121 12.8244 24.3924 13.6739C25.6637 14.5234 26.6546 15.7308 27.2398 17.1434C27.8249 18.5561 27.978 20.1105 27.6797 21.6102C27.3814 23.1099 26.6451 24.4874 25.5639 25.5686C24.4827 26.6498 23.1052 27.3861 21.6055 27.6844C20.1058 27.9827 18.5514 27.8296 17.1387 27.2445C15.7261 26.6593 14.5186 25.6684 13.6692 24.3971C12.8197 23.1257 12.3662 21.631 12.3662 20.102C12.3662 18.0516 13.1808 16.0852 14.6306 14.6353C16.0804 13.1855 18.0469 12.371 20.0972 12.371ZM20.0972 15.463C19.1801 15.4637 18.2839 15.7364 17.5217 16.2465C16.7595 16.7565 16.1657 17.4811 15.8152 18.3286C15.4648 19.1761 15.3735 20.1085 15.5528 21.0079C15.7321 21.9073 16.1741 22.7333 16.8227 23.3816C17.4714 24.0298 18.2978 24.4713 19.1973 24.65C20.0968 24.8288 21.0291 24.7368 21.8764 24.3858C22.7236 24.0348 23.4478 23.4405 23.9574 22.678C24.467 21.9155 24.739 21.0191 24.7392 20.102C24.7394 19.4925 24.6194 18.8889 24.3861 18.3258C24.1528 17.7628 23.8109 17.2512 23.3797 16.8203C22.9486 16.3895 22.4368 16.0479 21.8736 15.8149C21.3104 15.582 20.7067 15.4624 20.0972 15.463Z" fill="#FE4870"/>
</g>
</g>
</g>
</svg>
