<svg width="18" height="19" viewBox="0 0 18 19" fill="none" xmlns="http://www.w3.org/2000/svg">
<path id="contacts-book-2-line (1)" d="M17 19H3C2.20435 19 1.44129 18.6997 0.87868 18.1653C0.316071 17.6308 0 16.9059 0 16.15V2.85C0 2.09413 0.316071 1.36922 0.87868 0.834746C1.44129 0.300267 2.20435 0 3 0H17C17.2652 0 17.5196 0.100089 17.7071 0.278249C17.8946 0.456408 18 0.698044 18 0.95V18.05C18 18.302 17.8946 18.5436 17.7071 18.7218C17.5196 18.8999 17.2652 19 17 19ZM16 17.1V15.2H3C2.73478 15.2 2.48043 15.3001 2.29289 15.4782C2.10536 15.6564 2 15.898 2 16.15C2 16.402 2.10536 16.6436 2.29289 16.8218C2.48043 16.9999 2.73478 17.1 3 17.1H16ZM2 13.4624C2.32121 13.3548 2.65938 13.2998 3 13.3H16V1.9H3C2.73478 1.9 2.48043 2.00009 2.29289 2.17825C2.10536 2.35641 2 2.59804 2 2.85V13.4624ZM9 7.6C8.60444 7.6 8.21776 7.48857 7.88886 7.27979C7.55996 7.07102 7.30362 6.77428 7.15224 6.4271C7.00087 6.07992 6.96126 5.69789 7.03843 5.32933C7.1156 4.96076 7.30608 4.62222 7.58579 4.3565C7.86549 4.09078 8.22186 3.90982 8.60982 3.83651C8.99778 3.7632 9.39991 3.80082 9.76537 3.94463C10.1308 4.08844 10.4432 4.33196 10.6629 4.64442C10.8827 4.95687 11 5.32422 11 5.7C11 6.20391 10.7893 6.68718 10.4142 7.0435C10.0391 7.39982 9.53043 7.6 9 7.6ZM6 11.4C6 10.6441 6.31607 9.91922 6.87868 9.38475C7.44129 8.85027 8.20435 8.55 9 8.55C9.79565 8.55 10.5587 8.85027 11.1213 9.38475C11.6839 9.91922 12 10.6441 12 11.4H6Z" fill="#DCDCDC"/>
</svg>
