<svg width="18" height="20" viewBox="0 0 18 20" fill="none" xmlns="http://www.w3.org/2000/svg">
<path id="timer-flash-line" d="M3.64969 4.732C5.16891 3.51868 7.05543 2.85779 8.99969 2.85779C10.944 2.85779 12.8305 3.51868 14.3497 4.732L15.7347 3.348L17.0817 4.695L15.6977 6.079C16.7049 7.34005 17.3356 8.85985 17.5172 10.4635C17.6989 12.0672 17.424 13.6896 16.7243 15.1439C16.0246 16.5983 14.9285 17.8255 13.5621 18.6844C12.1957 19.5434 10.6146 19.999 9.00069 19.999C7.38677 19.999 5.80564 19.5434 4.43926 18.6844C3.07288 17.8255 1.97677 16.5983 1.27707 15.1439C0.577371 13.6896 0.302516 12.0672 0.484135 10.4635C0.665754 8.85985 1.29647 7.34005 2.30369 6.079L0.918692 4.695L2.26569 3.348L3.64969 4.732ZM8.99969 18.096C10.3183 18.096 11.6073 17.705 12.7037 16.9724C13.8001 16.2398 14.6546 15.1986 15.1592 13.9804C15.6638 12.7621 15.7958 11.4216 15.5386 10.1283C15.2813 8.83506 14.6464 7.64712 13.714 6.71472C12.7816 5.78232 11.5936 5.14735 10.3004 4.8901C9.00709 4.63286 7.66658 4.76489 6.44834 5.2695C5.23011 5.7741 4.18886 6.62863 3.45628 7.72501C2.72371 8.8214 2.33269 10.1104 2.33269 11.429C2.33269 12.3046 2.50517 13.1716 2.84028 13.9806C3.17539 14.7895 3.66657 15.5245 4.28577 16.1436C4.90496 16.7627 5.64004 17.2538 6.44903 17.5888C7.25803 17.9238 8.12409 18.0961 8.99969 18.096ZM9.95169 10.477H12.8087L8.04669 16.667V12.381H5.19069L9.95269 6.181L9.95169 10.477ZM5.19069 0H12.8097V1.9H5.19069V0Z" fill="#FC5C65"/>
</svg>
