<svg width="20" height="22" viewBox="0 0 20 22" fill="none" xmlns="http://www.w3.org/2000/svg">
<g id="Clip path group">
<mask id="mask0_4940_4173" style="mask-type:luminance" maskUnits="userSpaceOnUse" x="0" y="0" width="20" height="22">
<g id="clip-path-2">
<path id="Path 41000" d="M5.333 1.03141e-07H14.666C15.3664 -0.000144368 16.06 0.151485 16.7072 0.44623C17.3543 0.740974 17.9423 1.17306 18.4376 1.71781C18.933 2.26256 19.3259 2.90931 19.594 3.62111C19.862 4.33291 20 5.09583 20 5.8663V16.1326C20.0001 16.9031 19.8623 17.666 19.5943 18.3779C19.3264 19.0897 18.9336 19.7366 18.4384 20.2814C17.9431 20.8263 17.3552 21.2585 16.7081 21.5534C16.061 21.8482 15.3674 22 14.667 22H5.333C3.9186 22 2.56213 21.3819 1.562 20.2818C0.561868 19.1817 0 17.6895 0 16.1337L0 5.8663C0 4.31046 0.561868 2.81834 1.562 1.7182C2.56213 0.618055 3.9186 1.03141e-07 5.333 1.03141e-07Z" fill="white"/>
</g>
</mask>
<g mask="url(#mask0_4940_4173)">
<g id="Mask Group 957">
<path id="medal-line" d="M10.0018 5.766C11.5087 5.766 12.9818 6.21285 14.2347 7.05003C15.4876 7.88722 16.4642 9.07715 17.0409 10.4693C17.6175 11.8615 17.7684 13.3935 17.4744 14.8714C17.1804 16.3493 16.4548 17.7069 15.3893 18.7724C14.3237 19.838 12.9661 20.5636 11.4882 20.8576C10.0103 21.1516 8.47834 21.0007 7.08615 20.424C5.69396 19.8474 4.50403 18.8708 3.66685 17.6179C2.82966 16.365 2.38281 14.8919 2.38281 13.385C2.38281 11.3643 3.18553 9.42639 4.61437 7.99755C6.04321 6.56871 7.98113 5.766 10.0018 5.766ZM10.0018 7.666C8.87169 7.666 7.76695 8.00112 6.82728 8.62898C5.88762 9.25684 5.15524 10.1493 4.72276 11.1933C4.29029 12.2374 4.17713 13.3863 4.39761 14.4947C4.61808 15.6032 5.16229 16.6213 5.9614 17.4204C6.76052 18.2195 7.77866 18.7637 8.88707 18.9842C9.99547 19.2047 11.1444 19.0915 12.1885 18.659C13.2326 18.2266 14.125 17.4942 14.7528 16.5545C15.3807 15.6149 15.7158 14.5101 15.7158 13.38C15.7145 11.8654 15.1119 10.4133 14.0405 9.34282C12.969 8.27232 11.5164 7.671 10.0018 7.671V7.666ZM10.0018 9.094L11.2608 11.646L14.0768 12.055L12.0388 14.041L12.5198 16.841L10.0008 15.517L7.48281 16.852L7.96381 14.052L5.92581 12.061L8.74181 11.652L10.0018 9.094ZM15.7158 1V3.862L14.4158 4.945C13.3391 4.38046 12.1637 4.02871 10.9538 3.909V1H15.7158ZM9.04981 1V3.909C7.83962 4.02856 6.66384 4.38032 5.58681 4.945L4.28681 3.862V1H9.04981Z" fill="#DCDCDC"/>
</g>
</g>
</g>
</svg>
