<svg width="40" height="40" viewBox="0 0 40 40" fill="none" xmlns="http://www.w3.org/2000/svg">
<path d="M11.667 35H28.3337" stroke="#FE6D8D" stroke-width="1.5" stroke-linecap="round" stroke-linejoin="round"/>
<path d="M33.333 5H6.66634C4.82539 5 3.33301 6.49238 3.33301 8.33333V25C3.33301 26.8409 4.82539 28.3333 6.66634 28.3333H33.333C35.174 28.3333 36.6663 26.8409 36.6663 25V8.33333C36.6663 6.49238 35.174 5 33.333 5Z" stroke="#FE6D8D" stroke-width="1.5" stroke-linecap="round" stroke-linejoin="round"/>
<path d="M20.0001 16.0001H32.0929C32.3593 15.9977 32.6237 16.0285 32.8703 16.0905C33.1243 16.1614 33.3321 16.2828 33.4606 16.4351C33.589 16.5875 33.6306 16.762 33.5786 16.9306C33.5272 17.1037 33.3856 17.2617 33.1751 17.3807C32.9647 17.4997 32.6969 17.5731 32.4125 17.5899H7.95912C7.78705 17.6034 7.61294 17.6034 7.44087 17.5899C7.12072 17.5515 6.83619 17.4396 6.6449 17.277C6.45361 17.1143 6.36981 16.913 6.4104 16.7138C6.451 16.5145 6.61297 16.3322 6.86359 16.2037C7.1142 16.0752 7.43479 16.01 7.76047 16.0214H20.0087L20.0001 16.0001Z" fill="#FE6D8D"/>
<path d="M20.0001 19.1993H32.0929C32.3593 19.1969 32.6237 19.2277 32.8703 19.2897C33.1243 19.3606 33.3321 19.482 33.4606 19.6343C33.589 19.7867 33.6306 19.9612 33.5786 20.1298C33.5272 20.3029 33.3856 20.4609 33.1751 20.5799C32.9647 20.6989 32.6969 20.7724 32.4125 20.7892H7.95912C7.78705 20.8026 7.61294 20.8026 7.44087 20.7892C7.12072 20.7507 6.83619 20.6388 6.6449 20.4762C6.45361 20.3135 6.36981 20.1122 6.4104 19.913C6.451 19.7138 6.61297 19.5314 6.86359 19.4029C7.1142 19.2744 7.43479 19.2092 7.76047 19.2206H20.0087L20.0001 19.1993Z" fill="#FE6D8D"/>
<path d="M20.0001 22.3986H32.0929C32.3593 22.3962 32.6237 22.4269 32.8703 22.489C33.1243 22.5599 33.3321 22.6812 33.4606 22.8336C33.589 22.9859 33.6306 23.1604 33.5786 23.3291C33.5272 23.5021 33.3856 23.6601 33.1751 23.7791C32.9647 23.8981 32.6969 23.9716 32.4125 23.9884H7.95912C7.78705 24.0018 7.61294 24.0018 7.44087 23.9884C7.12072 23.9499 6.83619 23.838 6.6449 23.6754C6.45361 23.5127 6.36981 23.3115 6.4104 23.1122C6.451 22.913 6.61297 22.7307 6.86359 22.6021C7.1142 22.4736 7.43479 22.4084 7.76047 22.4198H20.0087L20.0001 22.3986Z" fill="#FE6D8D"/>
<path d="M10.811 11.6976C10.811 12.1125 10.6814 12.5181 10.4387 12.863C10.196 13.2079 9.85105 13.4765 9.44755 13.6349C9.04406 13.7933 8.60016 13.8343 8.17212 13.7527C7.74408 13.6712 7.35115 13.4707 7.04309 13.1767C6.73504 12.8827 6.52573 12.5084 6.44167 12.1012C6.3576 11.6941 6.40257 11.2724 6.57088 10.8895C6.73918 10.5067 7.02323 10.1799 7.38709 9.95064C7.75094 9.72136 8.17821 9.59988 8.61476 9.60158C9.19808 9.60386 9.7567 9.82569 10.1683 10.2185C10.5799 10.6114 10.811 11.1432 10.811 11.6976Z" fill="#FE6D8D"/>
<path d="M16.6021 9.60586H20.2882C20.4411 9.59939 20.5918 9.6422 20.7159 9.72735C20.84 9.81251 20.9303 9.935 20.972 10.075C21.0146 10.2051 21.0107 10.345 20.9607 10.4728C20.9107 10.6005 20.8175 10.7089 20.6957 10.7809C20.5766 10.8495 20.441 10.8881 20.3017 10.8928H12.8707C12.6905 10.8928 12.5177 10.8247 12.3904 10.7037C12.263 10.5826 12.1914 10.4184 12.1914 10.2472C12.1914 10.0759 12.263 9.91172 12.3904 9.79065C12.5177 9.66958 12.6905 9.60156 12.8707 9.60156L16.6021 9.60586Z" fill="#FE6D8D"/>
<path d="M16.5752 12.184H20.2613C20.3571 12.1735 20.4541 12.1823 20.5461 12.2099C20.638 12.2376 20.7228 12.2834 20.7948 12.3444C20.8667 12.4053 20.9244 12.4801 20.9638 12.5637C21.0033 12.6473 21.0237 12.7379 21.0237 12.8296C21.0237 12.9212 21.0033 13.0118 20.9638 13.0955C20.9244 13.1791 20.8667 13.2539 20.7948 13.3148C20.7228 13.3758 20.638 13.4216 20.5461 13.4492C20.4541 13.4769 20.3571 13.4857 20.2613 13.4752H12.8755C12.6954 13.4712 12.5243 13.3993 12.3999 13.2754C12.2754 13.1516 12.2079 12.9857 12.2121 12.8145C12.2163 12.6433 12.2919 12.4807 12.4223 12.3624C12.5526 12.2442 12.7271 12.18 12.9072 12.184H16.5752Z" fill="#FE6D8D"/>
</svg>
