<svg width="16" height="20" viewBox="0 0 16 20" fill="none" xmlns="http://www.w3.org/2000/svg">
<path id="user-line (2)" d="M0.382812 19.999C0.382812 17.9783 1.18553 16.0404 2.61437 14.6116C4.04321 13.1827 5.98113 12.38 8.00181 12.38C10.0225 12.38 11.9604 13.1827 13.3893 14.6116C14.8181 16.0404 15.6208 17.9783 15.6208 19.999H13.7208C13.7208 18.4834 13.1187 17.0299 12.0471 15.9582C10.9754 14.8866 9.52189 14.2845 8.00631 14.2845C6.49073 14.2845 5.03723 14.8866 3.96555 15.9582C2.89387 17.0299 2.29181 18.4834 2.29181 19.999H0.382812ZM8.00181 11.428C6.87169 11.428 5.76695 11.0929 4.82728 10.465C3.88762 9.83716 3.15524 8.94475 2.72276 7.90066C2.29029 6.85656 2.17713 5.70766 2.39761 4.59926C2.61808 3.49085 3.16229 2.47271 3.9614 1.67359C4.76052 0.874477 5.77866 0.330271 6.88707 0.109795C7.99547 -0.11068 9.14437 0.00247577 10.1885 0.434955C11.2326 0.867434 12.125 1.59981 12.7528 2.53947C13.3807 3.47914 13.7158 4.58388 13.7158 5.714C13.7159 6.46441 13.5682 7.2075 13.2811 7.90081C12.994 8.59412 12.5731 9.22408 12.0425 9.7547C11.5119 10.2853 10.8819 10.7062 10.1886 10.9933C9.49531 11.2804 8.75222 11.4281 8.00181 11.428ZM8.00181 9.528C8.75536 9.528 9.49198 9.30455 10.1185 8.8859C10.7451 8.46725 11.2334 7.87221 11.5218 7.17603C11.8102 6.47984 11.8856 5.71378 11.7386 4.97471C11.5916 4.23564 11.2287 3.55676 10.6959 3.02393C10.1631 2.49109 9.48417 2.12822 8.74511 1.98121C8.00604 1.8342 7.23997 1.90965 6.54379 2.19802C5.8476 2.48639 5.25256 2.97473 4.83391 3.60128C4.41527 4.22783 4.19181 4.96446 4.19181 5.718C4.19261 6.72777 4.59443 7.69589 5.30892 8.40943C6.0234 9.12298 6.99204 9.52353 8.00181 9.523V9.528Z" fill="#FF9F54"/>
</svg>
