<svg width="15" height="17" viewBox="0 0 15 17" fill="none" xmlns="http://www.w3.org/2000/svg">
<path d="M2.78685 7.04563L6.4009 1M2.34701 1H12.0236C12.8299 1 13.4897 1.68874 13.4897 2.53054V4.21413C13.4897 4.82635 13.1232 5.59162 12.7566 5.97425L9.60443 8.88227C9.16458 9.2649 8.87135 10.0302 8.87135 10.6424V13.9331C8.87135 14.3922 8.57813 15.0044 8.21159 15.234L7.18529 15.9228C6.23229 16.535 4.91276 15.8462 4.91276 14.6218V10.5659C4.91276 10.0302 4.61953 9.34143 4.3263 8.9588L1.54062 5.89772C1.17409 5.51509 0.880859 4.82635 0.880859 4.36718V2.60707C0.880859 1.68874 1.54062 1 2.34701 1Z" stroke="#AAAAAA" stroke-width="1.25" stroke-linecap="round" stroke-linejoin="round"/>
</svg>
