<svg width="16" height="14" viewBox="0 0 16 14" fill="none" xmlns="http://www.w3.org/2000/svg">
<path d="M14.6 3.33333H10.52M3.72 3.33333H1M14.6 10.6667H11.88M5.08 10.6667H1M6.44 5.66667C6.75255 5.66667 7.06203 5.60631 7.35079 5.48905C7.63954 5.37179 7.90191 5.19992 8.12291 4.98325C8.34392 4.76658 8.51923 4.50935 8.63883 4.22626C8.75844 3.94317 8.82 3.63975 8.82 3.33333C8.82 3.02692 8.75844 2.7235 8.63883 2.44041C8.51923 2.15731 8.34392 1.90009 8.12291 1.68342C7.90191 1.46675 7.63954 1.29488 7.35079 1.17761C7.06203 1.06035 6.75255 1 6.44 1C5.80878 1 5.20342 1.24583 4.75709 1.68342C4.31075 2.121 4.06 2.7145 4.06 3.33333C4.06 3.95217 4.31075 4.54566 4.75709 4.98325C5.20342 5.42083 5.80878 5.66667 6.44 5.66667ZM9.16 13C9.79122 13 10.3966 12.7542 10.8429 12.3166C11.2893 11.879 11.54 11.2855 11.54 10.6667C11.54 10.0478 11.2893 9.45434 10.8429 9.01675C10.3966 8.57917 9.79122 8.33333 9.16 8.33333C8.52878 8.33333 7.92342 8.57917 7.47709 9.01675C7.03075 9.45434 6.78 10.0478 6.78 10.6667C6.78 11.2855 7.03075 11.879 7.47709 12.3166C7.92342 12.7542 8.52878 13 9.16 13Z" stroke="#797979" stroke-miterlimit="10" stroke-linecap="round" stroke-linejoin="round"/>
</svg>
