<svg width="19" height="19" viewBox="0 0 19 19" fill="none" xmlns="http://www.w3.org/2000/svg">
<path id="briefcase-5-line" d="M4.588 3.67V0.918C4.588 0.674531 4.68472 0.441034 4.85688 0.268876C5.02903 0.0967176 5.26253 0 5.506 0H12.847C13.0905 0 13.324 0.0967176 13.4961 0.268876C13.6683 0.441034 13.765 0.674531 13.765 0.918V3.67H17.435C17.6785 3.67 17.912 3.76672 18.0841 3.93888C18.2563 4.11103 18.353 4.34453 18.353 4.588V17.434C18.353 17.6775 18.2563 17.911 18.0841 18.0831C17.912 18.2553 17.6785 18.352 17.435 18.352H0.918C0.674531 18.352 0.441034 18.2553 0.268876 18.0831C0.0967177 17.911 0 17.6775 0 17.434V4.588C0 4.34453 0.0967177 4.11103 0.268876 3.93888C0.441034 3.76672 0.674531 3.67 0.918 3.67H4.588ZM12.846 12.846H10.094V13.764H8.258V12.846H5.506V16.516H12.847L12.846 12.846ZM5.506 5.506V11.012H8.259V10.094H10.094V11.012H12.847V5.506H5.506ZM3.67 11.011V5.506H1.835V11.012L3.67 11.011ZM14.681 11.011H16.516V5.506H14.682L14.681 11.011ZM3.67 12.846H1.835V16.516H3.67V12.846ZM14.681 12.846V16.516H16.516V12.846H14.681ZM6.423 1.835V3.67H11.929V1.835H6.423Z" fill="white"/>
</svg>
