<svg width="17" height="20" viewBox="0 0 17 20" fill="none" xmlns="http://www.w3.org/2000/svg">
<g id="Layer_1" clip-path="url(#clip0_3376_1871)">
<path id="Vector" d="M7.7577 14.3347L7.80378 14.3311C8.88561 14.2462 9.97125 14.4372 10.9601 14.8866C11.7397 15.2409 12.3813 15.7745 12.9517 16.396M7.7577 14.3347L12.915 16.43M7.7577 14.3347V14.3809C7.7577 14.5846 7.75819 14.7867 7.75867 14.9878C7.75963 15.3869 7.76059 15.782 7.7577 16.1778C7.75671 16.3135 7.75673 16.4483 7.75674 16.5824C7.7568 17.0389 7.75686 17.4874 7.71716 17.9372L7.71716 17.9372C7.65087 18.6935 6.98673 19.371 6.23737 19.5093C5.42351 19.6592 4.61165 19.2919 4.22636 18.6166C4.04158 18.2878 3.94728 17.9153 3.95321 17.5375V17.5368C3.95321 16.5048 3.95321 15.4725 3.95593 14.4406V14.4405C3.95593 14.3705 3.94751 14.3093 3.91594 14.257C3.88397 14.2041 3.83279 14.1677 3.76322 14.1369L3.76276 14.1367C3.3442 13.9568 3.01068 13.6214 2.83171 13.2002L7.7577 14.3347ZM12.9517 16.396C12.9517 16.3961 12.9518 16.3961 12.9519 16.3962L12.915 16.43M12.9517 16.396C12.9516 16.396 12.9516 16.396 12.9516 16.3959L12.915 16.43M12.9517 16.396C13.0773 16.5308 13.1706 16.6928 13.2246 16.8694L13.225 16.8706L13.225 16.8706C13.4597 17.7191 14.3626 18.3409 15.2236 18.2301M12.915 16.43C13.0355 16.5593 13.125 16.7146 13.1768 16.884C13.4179 17.7553 14.3432 18.3939 15.23 18.2797M15.2236 18.2301C15.2236 18.2301 15.2236 18.2301 15.2236 18.2301L15.23 18.2797M15.2236 18.2301C16.2561 18.0956 16.9471 17.334 16.9471 16.2847V16.2847C16.9503 12.3879 16.9503 8.49123 16.9471 4.59452L16.9471 4.59415C16.9482 4.43125 16.9291 4.26885 16.8905 4.11067C16.6744 3.25937 15.9867 2.70015 15.1095 2.64669C14.7129 2.6283 14.3209 2.73958 13.9924 2.96394C13.6637 3.18836 13.416 3.51387 13.2865 3.89179L13.2865 3.89184C13.1667 4.24047 12.965 4.48175 12.732 4.72164L12.6962 4.6868M15.2236 18.2301C15.2236 18.2301 15.2236 18.2301 15.2236 18.2301L15.23 18.2797M15.23 18.2797C16.2868 18.142 16.9971 17.3598 16.9971 16.2847C17.0003 12.388 17.0003 8.49122 16.9971 4.59448C16.9982 4.42736 16.9787 4.26075 16.939 4.09846C16.7174 3.22552 16.0109 2.65139 15.1122 2.59676C14.7046 2.57778 14.3018 2.69211 13.9642 2.92264C13.6265 3.15317 13.3722 3.4875 13.2392 3.87559M12.6962 4.6868C12.9275 4.44862 13.123 4.21373 13.2392 3.87559M12.6962 4.6868C11.4901 5.92848 10.0179 6.51845 8.30133 6.51845H4.61623C3.97 6.51845 3.43185 6.75827 3.02836 7.26903L13.2392 3.87559M12.6962 4.6868L12.732 4.72164C11.5161 5.97344 10.0308 6.56845 8.30133 6.56845H4.61623C3.98423 6.56845 3.46103 6.80208 3.06773 7.29986M13.2392 3.87559L3.06773 7.29986M3.06773 7.29986C3.02009 7.36127 2.9839 7.43557 2.94544 7.51455C2.93475 7.53651 2.92388 7.55883 2.91255 7.58133C2.86268 7.68028 2.8032 7.78336 2.70803 7.84339C2.61311 7.90327 2.49454 7.91363 2.38326 7.91717C2.35824 7.91797 2.33354 7.91843 2.30921 7.91889C2.22049 7.92055 2.13657 7.92212 2.05911 7.93948L2.0591 7.93948C0.800153 8.22139 -0.0561839 9.39346 0.058294 10.6623L0.0583023 10.6624C0.11376 11.29 0.396245 11.8753 0.852102 12.3072C1.30778 12.7389 1.90501 12.9874 2.53059 13.0057C2.53083 13.0057 2.53106 13.0057 2.5313 13.0057L2.52985 13.0557C2.66018 13.0557 2.73132 13.089 2.78563 13.2196L3.06773 7.29986ZM13.1252 6.12404V6.01679L13.0431 6.08574C11.8867 7.05639 10.5798 7.58959 9.11719 7.74318L9.07241 7.74788V7.77143L7.58668 7.77513L7.58656 7.77513L7.58097 7.77513H7.57527H7.56956H7.56385H7.55814H7.55243H7.54672H7.54102H7.53531H7.5296H7.52389H7.51818H7.51247H7.50676H7.50106H7.49535H7.48964H7.48393H7.47822H7.47251H7.4668H7.4611H7.45539H7.44968H7.44397H7.43826H7.43255H7.42685H7.42114H7.41543H7.40972H7.40401H7.3983H7.39259H7.38689H7.38118H7.37547H7.36976H7.36405H7.35834H7.35263H7.34692H7.34122H7.33551H7.3298H7.32409H7.31838H7.31267H7.30696H7.30126H7.29555H7.28984H7.28413H7.27842H7.27271H7.267H7.26129H7.25558H7.24988H7.24417H7.23846H7.23275H7.22704H7.22133H7.21562H7.20991H7.20421H7.1985H7.19279H7.18708H7.18137H7.17566H7.16995H7.16424H7.15853H7.15282H7.14712H7.14141H7.1357H7.12999H7.12428H7.11857H7.11286H7.10715H7.10144H7.09574H7.09003H7.08432H7.07861H7.0729H7.06719H7.06148H7.05577H7.05006H7.04435H7.03864H7.03294H7.02723H7.02152H7.01581H7.0101H7.00439H6.99868H6.99297H6.98726H6.98155H6.97584H6.97013H6.96443H6.95872H6.95301H6.9473H6.94159H6.93588H6.93017H6.92446H6.91875H6.91304H6.90733H6.90162H6.89591H6.8902H6.8845H6.87879H6.87308H6.86737H6.86166H6.85595H6.85024H6.84453H6.83882H6.83311H6.8274H6.82169H6.81598H6.81027H6.80456H6.79885H6.79314H6.78744H6.78173H6.77602H6.77031H6.7646H6.75889H6.75318H6.74747H6.74176H6.73605H6.73034H6.72463H6.71892H6.71321H6.7075H6.70179H6.69608H6.69037H6.68466H6.67895H6.67324H6.66753H6.66182H6.65611H6.6504H6.6447H6.63899H6.63328H6.62757H6.62186H6.61615H6.61044H6.60473H6.59902H6.59331H6.5876H6.58189H6.57618H6.57047H6.56476H6.55905H6.55334H6.54763H6.54192H6.53621H6.5305H6.52479H6.51908H6.51337H6.50766H6.50195H6.49624H6.49053H6.48482H6.47911H6.4734H6.46769H6.46198H6.45627H6.45056H6.44485H6.43914H6.43343H6.42772H6.42201H6.4163H6.41059H6.40488H6.39917H6.39346H6.38775H6.38204H6.37633H6.37062H6.36491H6.3592H6.35349H6.34778H6.34207H6.33636H6.33065H6.32494H6.31923H6.31352H6.30781H6.3021H6.29639H6.29068H6.28497H6.27926H6.27355H6.26784H6.26213H6.25642H6.25071H6.245H6.23929H6.23358H6.22787H6.22216H6.21644H6.21073H6.20502H6.19931H6.1936H6.18789H6.18218H6.17647H6.17076H6.16505H6.15934H6.15363H6.14792H6.14221H6.1365H6.13079H6.12508H6.11937H6.11366H6.10795H6.10224H6.09653H6.09082H6.08511H6.0794H6.07368H6.06797H6.06226H6.05655H6.05084H6.04513H6.03942H6.03371H6.028H6.02229H6.01658H6.01087H6.00516H5.99945H5.99374H5.98803H5.98232H5.9766H5.97089H5.96518H5.95947H5.95376H5.94805H5.94234H5.93663H5.93092H5.92521H5.9195H5.91379H5.90808H5.90237H5.89665H5.89094H5.88523H5.87952H5.87381H5.8681H5.86239H5.85668H5.85097H5.84526H5.83955H5.83384H5.82812H5.82241H5.8167H5.81099H5.80528H5.79957H5.79386H5.78815H5.78244H5.77673H5.77102H5.7653H5.75959H5.75388H5.74817H5.74246H5.73675H5.73104H5.72533H5.71962H5.71391H5.70819H5.70248H5.69677H5.69106H5.68535H5.67964H5.67393H5.66822H5.66251H5.65679H5.65108H5.64537H5.63966H5.63395H5.62824H5.62253H5.61682H5.61111H5.60539H5.59968H5.59397H5.58826H5.58255H5.57684H5.57113H5.56542H5.5597H5.55399H5.54828H5.54257H5.53686H5.53115H5.52544H5.51973H5.51401H5.5083H5.50259H5.49688H5.49117H5.48546H5.47975H5.47403H5.46832H5.46261H5.4569H5.45119H5.44548H5.43977H5.43405H5.42834H5.42263H5.41692H5.41121H5.4055H5.39979H5.39407H5.38836H5.38265H5.37694H5.37123H5.36552H5.3598H5.35409H5.34838H5.34267H5.33696H5.33125H5.32554H5.31982H5.31411H5.3084H5.30269H5.29698H5.29127H5.28555H5.27984H5.27413H5.26842H5.26271H5.257H5.25128H5.24557H5.23986H5.23415H5.22844H5.22272H5.21701H5.2113H5.20559H5.19988H5.19417H5.18845H5.18274H5.17703H5.17132H5.16561H5.15989H5.15418H5.14847H5.14276H5.13705H5.13134H5.12562H5.11991H5.1142H5.10849H5.10278H5.09706H5.09135H5.08564H5.07993H5.07422H5.0685H5.06279H5.05708H5.05137H5.04566H5.03994H5.03423H5.02852H5.02281H5.0171H5.01138H5.00567H4.99996H4.99425H4.98854H4.98282H4.97711H4.9714H4.96569H4.95998H4.95426H4.94855H4.94284H4.93713H4.93141H4.9257H4.91999H4.91428H4.90857H4.90285H4.89714H4.89143H4.88572H4.88H4.87429H4.86858H4.86287H4.85716H4.85144H4.84573H4.84002H4.83431H4.82859H4.82288H4.81717H4.81146H4.80574H4.80003H4.79432H4.78861H4.7829H4.77718H4.77147H4.76576H4.76005H4.75433H4.74862H4.74291H4.7372H4.73148H4.72577H4.72006H4.71435H4.70863H4.70292H4.69721H4.6915H4.68578H4.68007H4.67436H4.66865H4.66293C4.40145 7.77513 4.19637 7.84 4.05703 7.97941C3.9177 8.11882 3.85267 8.32421 3.85267 8.58664V8.59387V8.60111V8.60834V8.61557V8.62281V8.63004V8.63728V8.64451V8.65174V8.65898V8.66621V8.67345V8.68068V8.68791V8.69515V8.70238V8.70961V8.71685V8.72408V8.73132V8.73855V8.74578V8.75302V8.76025V8.76749V8.77472V8.78195V8.78919V8.79642V8.80365V8.81089V8.81812V8.82536V8.83259V8.83982V8.84706V8.85429V8.86153V8.86876V8.87599V8.88323V8.89046V8.89769V8.90493V8.91216V8.9194V8.92663V8.93386V8.9411V8.94833V8.95556V8.9628V8.97003V8.97727V8.9845V8.99173V8.99897V9.0062V9.01344V9.02067V9.0279V9.03514V9.04237V9.0496V9.05684V9.06407V9.07131V9.07854V9.08577V9.09301V9.10024V9.10748V9.11471V9.12194V9.12918V9.13641V9.14364V9.15088V9.15811V9.16535V9.17258V9.17981V9.18705V9.19428V9.20152V9.20875V9.21598V9.22322V9.23045V9.23768V9.24492V9.25215V9.25939V9.26662V9.27385V9.28109V9.28832V9.29556V9.30279V9.31002V9.31726V9.32449V9.33172V9.33896V9.34619V9.35343V9.36066V9.36789V9.37513V9.38236V9.3896V9.39683V9.40406V9.4113V9.41853V9.42576V9.433V9.44023V9.44747V9.4547V9.46193V9.46917V9.4764V9.48363V9.49087V9.4981V9.50534V9.51257V9.5198V9.52704V9.53427V9.54151V9.54874V9.55597V9.56321V9.57044V9.57767V9.58491V9.59214V9.59938V9.60661V9.61384V9.62108V9.62831V9.63555V9.64278V9.65001V9.65725V9.66448V9.67171V9.67895V9.68618V9.69342V9.70065V9.70788V9.71512V9.72235V9.72959V9.73682V9.74405V9.75129V9.75852V9.76575V9.77299V9.78022V9.78746V9.79469V9.80192V9.80916V9.81639V9.82363V9.83086V9.83809V9.84533V9.85256V9.85979V9.86703V9.87426V9.8815V9.88873V9.89596V9.9032V9.91043V9.91766V9.9249V9.93213V9.93937V9.9466V9.95383V9.96107V9.9683V9.97554V9.98277V9.99V9.99724V10.0045V10.0117V10.0189V10.0262V10.0334V10.0406V10.0479V10.0551V10.0623V10.0696V10.0768V10.084V10.0913V10.0985V10.1057V10.113V10.1202V10.1274V10.1347V10.1419V10.1491V10.1564V10.1636V10.1708V10.1781V10.1853V10.1926V10.1998V10.207V10.2143V10.2215V10.2287V10.236V10.2432V10.2504V10.2577V10.2649V10.2721V10.2794V10.2866V10.2938V10.3011V10.3083V10.3155V10.3228V10.33V10.3372V10.3445V10.3517V10.3589V10.3662V10.3734V10.3806V10.3879V10.3951V10.4023V10.4096V10.4168V10.424V10.4313V10.4385V10.4457V10.453V10.4602V10.4674V10.4747V10.4819V10.4891V10.4964V10.5036V10.5108V10.5181V10.5253V10.5325V10.5398V10.547V10.5542V10.5615V10.5687V10.5759V10.5832V10.5904V10.5976V10.6049V10.6121V10.6193V10.6266V10.6338V10.641V10.6483V10.6555V10.6627V10.67V10.6772V10.6845V10.6917V10.6989V10.7062V10.7134V10.7206V10.7279V10.7351V10.7423V10.7496V10.7568V10.764V10.7713V10.7785V10.7857V10.793V10.8002V10.8074V10.8147V10.8219V10.8291V10.8364V10.8436V10.8508V10.8581V10.8653V10.8725V10.8798V10.887V10.8942V10.9015V10.9087V10.9159V10.9232V10.9304V10.9376V10.9449V10.9521V10.9593V10.9666V10.9738V10.981V10.9883V10.9955V11.0027V11.01V11.0172V11.0244V11.0317V11.0389V11.0461V11.0534V11.0606V11.0678V11.0751V11.0823V11.0895V11.0968V11.104V11.1112V11.1185V11.1257V11.1329V11.1402V11.1474V11.1546V11.1619V11.1691V11.1764V11.1836V11.1908V11.1981V11.2053V11.2125V11.2198V11.227V11.2342V11.2415V11.2487V11.2559V11.2632V11.2704V11.2776V11.2849V11.2921V11.2993V11.3066V11.3138V11.321V11.3283V11.3355V11.3427V11.35V11.3572V11.3644V11.3717V11.3789V11.3861V11.3934V11.4006V11.4078V11.4151V11.4223V11.4295V11.4368V11.444V11.4512V11.4585V11.4657V11.4729V11.4802V11.4874V11.4946V11.5019V11.5091V11.5163V11.5236V11.5308V11.538V11.5453V11.5525V11.5597V11.567V11.5742V11.5814V11.5887V11.5959V11.6031V11.6104V11.6176V11.6248V11.6321V11.6393V11.6466V11.6538V11.661V11.6683V11.6755V11.6827V11.69V11.6972V11.7044V11.7117V11.7189V11.7261V11.7334V11.7406V11.7478V11.7551V11.7623V11.7695V11.7768V11.784V11.7912V11.7985V11.8057V11.8129V11.8202V11.8274V11.8346V11.8419V11.8491V11.8563V11.8636V11.8708V11.878V11.8853V11.8925V11.8997V11.907V11.9142V11.9214V11.9287V11.9359V11.9431V11.9504V11.9576V11.9648V11.9721V11.9793V11.9865V11.9938V12.001V12.0082V12.0155V12.0227V12.0299V12.0372V12.0444V12.0516V12.0589V12.0661V12.0733V12.0806V12.0878V12.095V12.1023V12.1095V12.1167V12.124V12.1312V12.1385V12.1457V12.1529V12.1602V12.1674V12.1746V12.1819V12.1891V12.1963V12.2036V12.2108V12.218V12.2253V12.2325V12.2397V12.247V12.2542V12.2614V12.2687V12.2759V12.2831V12.2904C3.85267 12.5581 3.91683 12.7647 4.05808 12.9042C4.19914 13.0434 4.40799 13.1067 4.67728 13.1084H4.67759H7.57962C7.6148 13.1084 8.30144 13.1058 8.82872 13.1032C8.91543 13.1028 8.99787 13.1024 9.07241 13.102V13.1373L9.11778 13.1415C10.5628 13.276 11.9324 13.8518 13.0429 14.7917L13.0738 14.7551H13.0752H13.1252V14.7535V14.7303V6.12404ZM15.747 10.4418V10.4418V10.4306V10.4195V10.4083V10.3971V10.386V10.3748V10.3637V10.3525V10.3414V10.3302V10.319V10.3079V10.2967V10.2856V10.2744V10.2632V10.2521V10.2409V10.2298V10.2186V10.2075V10.1963V10.1851V10.174V10.1628V10.1517V10.1405V10.1294V10.1182V10.107V10.0959V10.0847V10.0736V10.0624V10.0512V10.0401V10.0289V10.0178V10.0066V9.99546V9.9843V9.97314V9.96198V9.95082V9.93967V9.92851V9.91735V9.90619V9.89503V9.88388V9.87272V9.86156V9.8504V9.83924V9.82809V9.81693V9.80577V9.79461V9.78345V9.7723V9.76114V9.74998V9.73882V9.72766V9.71651V9.70535V9.69419V9.68303V9.67187V9.66072V9.64956V9.6384V9.62724V9.61608V9.60493V9.59377V9.58261V9.57145V9.56029V9.54913V9.53798V9.52682V9.51566V9.5045V9.49334V9.48219V9.47103V9.45987V9.44871V9.43755V9.4264V9.41524V9.40408V9.39292V9.38176V9.37061V9.35945V9.34829V9.33713V9.32597V9.31482V9.30366V9.2925V9.28134V9.27018V9.25903V9.24787V9.23671V9.22555V9.21439V9.20324V9.19208V9.18092V9.16976V9.1586V9.14745V9.13629V9.12513V9.11397V9.10281V9.09166V9.0805V9.06934V9.05818V9.04702V9.03587V9.02471V9.01355V9.00239V8.99123V8.98007V8.96892V8.95776V8.9466V8.93544V8.92428V8.91313V8.90197V8.89081V8.87965V8.86849V8.85734V8.84618V8.83502V8.82386V8.8127V8.80155V8.79039V8.77923V8.76807V8.75691V8.74576V8.7346V8.72344V8.71228V8.70112V8.68997V8.67881V8.66765V8.65649V8.64533V8.63418V8.62302V8.61186V8.6007V8.58954V8.57839V8.56723V8.55607V8.54491V8.53375V8.5226V8.51144V8.50028V8.48912V8.47796V8.46681V8.45565V8.44449V8.43333V8.42217V8.41102V8.39986V8.3887V8.37754V8.36638V8.35523V8.34407V8.33291V8.32175V8.31059V8.29943V8.28828V8.27712V8.26596V8.2548V8.24364V8.23249V8.22133V8.21017V8.19901V8.18785V8.1767V8.16554V8.15438V8.14322V8.13206V8.12091V8.10975V8.09859V8.08743V8.07627V8.06512V8.05396V8.0428V8.03164V8.02048V8.00933V7.99817V7.98701V7.97585V7.96469V7.95354V7.94238V7.93122V7.92006V7.9089V7.89775V7.88659V7.87543V7.86427V7.85311V7.84196V7.8308V7.81964V7.80848V7.79732V7.78617V7.77501V7.76385V7.75269V7.74153V7.73037V7.71922V7.70806V7.6969V7.68574V7.67458V7.66343V7.65227V7.64111V7.62995V7.61879V7.60764V7.59648V7.58532V7.57416V7.563V7.55185V7.54069V7.52953V7.51837V7.50721V7.49606V7.4849V7.47374V7.46258V7.45142V7.44027V7.42911V7.41795V7.40679V7.39563V7.38448V7.37332V7.36216V7.351V7.33984V7.32869V7.31753V7.30637V7.29521V7.28405V7.2729V7.26174V7.25058V7.23942V7.22826V7.21711V7.20595V7.19479V7.18363V7.17247V7.16131V7.15016V7.139V7.12784V7.11668V7.10553V7.09437V7.08321V7.07205V7.06089V7.04973V7.03858V7.02742V7.01626V7.0051V6.99394V6.98279V6.97163V6.96047V6.94931V6.93815V6.927V6.91584V6.90468V6.89352V6.88236V6.87121V6.86005V6.84889V6.83773V6.82657V6.81542V6.80426V6.7931V6.78194V6.77078V6.75963V6.74847V6.73731V6.72615V6.71499V6.70384V6.69268V6.68152V6.67036V6.6592V6.64805V6.63689V6.62573V6.61457V6.60341V6.59226V6.5811V6.56994V6.55878V6.54762V6.53646V6.52531V6.51415V6.50299V6.49183V6.48067V6.46952V6.45836V6.4472V6.43604V6.42488V6.41373V6.40257V6.39141V6.38025V6.36909V6.35794V6.34678V6.33562V6.32446V6.3133V6.30215V6.29099V6.27983V6.26867V6.25751V6.24636V6.2352V6.22404V6.21288V6.20172V6.19057V6.17941V6.16825V6.15709V6.14593V6.13478V6.12362V6.11246V6.1013V6.09014V6.07899V6.06783V6.05667V6.04551V6.03435V6.0232V6.01204V6.00088V5.98972V5.97856V5.96741V5.95625V5.94509V5.93393V5.92277V5.91161V5.90046V5.8893V5.87814V5.86698V5.85582V5.84467V5.83351V5.82235V5.81119V5.80003V5.78888V5.77772V5.76656V5.7554V5.74424V5.73309V5.72193V5.71077V5.69961V5.68845V5.6773V5.66614V5.65498V5.64382V5.63266V5.62151V5.61035V5.59919V5.58803V5.57687V5.56572V5.55456V5.5434V5.53224V5.52108V5.50993V5.49877V5.48761V5.47645V5.46529V5.45414V5.44298V5.43182V5.42066V5.4095V5.39834V5.38719V5.37603V5.36487V5.35371V5.34255V5.3314V5.32024V5.30908V5.29792V5.28676V5.27561V5.26445V5.25329V5.24213V5.23097V5.21982V5.20866V5.1975V5.18634V5.17518V5.16403V5.15287V5.14171V5.13055V5.11939V5.10824V5.09708V5.08592V5.07476V5.0636V5.05245V5.04129V5.03013V5.01897V5.00781V4.99666V4.9855V4.97434V4.96318V4.95202V4.94087V4.92971V4.91855V4.90739V4.89623V4.88508V4.87392V4.86276V4.8516V4.84044V4.82928V4.81813V4.80697V4.79581V4.78465V4.77349V4.76234V4.75118V4.74002V4.72886C15.747 4.46065 15.6857 4.24139 15.5651 4.0881C15.4432 3.93317 15.265 3.85126 15.0454 3.85126C14.8258 3.85126 14.6476 3.93301 14.5257 4.08796C14.4051 4.24126 14.3437 4.46067 14.3437 4.72941V16.155C14.3412 16.2365 14.343 16.3181 14.3493 16.3995L14.3493 16.3995L14.3494 16.4004C14.366 16.5739 14.4463 16.7351 14.5747 16.8524C14.7031 16.9698 14.8705 17.0348 15.044 17.0348C15.2176 17.0348 15.3849 16.9698 15.5133 16.8524C15.6417 16.7351 15.722 16.5739 15.7387 16.4004L15.7387 16.3995C15.745 16.3181 15.7469 16.2365 15.7443 16.155L15.747 10.4418ZM5.20706 14.3331H5.15706V14.3831C5.15706 14.6907 5.15652 14.9972 5.15597 15.303C5.15456 16.1002 5.15316 16.8922 5.16141 17.6837L5.16141 17.6837C5.16555 18.0608 5.49317 18.3411 5.85429 18.3417C6.21549 18.3423 6.54369 18.0619 6.54787 17.6849C6.55786 16.8794 6.55639 16.074 6.55491 15.2626C6.55438 14.9703 6.55385 14.6773 6.55385 14.3831V14.3331H6.50385H6.50222H5.20706ZM2.6423 9.1482V9.0982L2.5923 9.0982C2.41348 9.09821 2.23648 9.13428 2.07177 9.20427C1.90706 9.27426 1.75798 9.37675 1.63335 9.50566C1.50873 9.63458 1.41108 9.7873 1.34615 9.95479C1.28122 10.1223 1.25033 10.3012 1.2553 10.4809L1.25532 10.4813C1.28174 11.2129 1.89832 11.8199 2.59529 11.7782L2.6423 11.7753V11.7283V9.1482Z" fill="#FFD705" stroke="white" stroke-width="0.1"/>
</g>
<defs>
<clipPath id="clip0_3376_1871">
<rect width="17" height="18.6919" fill="white" transform="translate(0 0.900391)"/>
</clipPath>
</defs>
</svg>
