<svg width="17" height="17" viewBox="0 0 17 17" fill="none" xmlns="http://www.w3.org/2000/svg">
<path d="M4.75142 2.05935C4.75142 1.8863 4.75142 1.71996 4.75142 1.55361C4.75633 1.23747 4.9821 1.00316 5.28074 1.00003C5.57938 0.9969 5.81722 1.23524 5.82169 1.55943C5.82169 1.7213 5.82169 1.88272 5.82169 2.05756H11.1775C11.1775 1.90195 11.1775 1.74455 11.1775 1.58268C11.1802 1.24105 11.4011 1.00137 11.7118 1.00137C12.0225 1.00137 12.2456 1.24194 12.2483 1.58268C12.2483 1.73829 12.2483 1.89569 12.2483 2.07456H12.4334C13.0643 2.07456 13.6948 2.07456 14.3249 2.07456C15.3084 2.07456 15.9969 2.76586 15.9969 3.75096C15.9969 7.27726 15.9969 10.8034 15.9969 14.3294C15.9969 15.3132 15.3049 16 14.3186 16C10.4411 16 6.56367 16 2.68642 16C1.69125 16 1.00142 15.3118 1.00098 14.3191C1.00098 10.7988 1.00098 7.2783 1.00098 3.75766C1.00098 2.76363 1.68991 2.0759 2.68373 2.07411C3.35284 2.07411 4.02225 2.07411 4.69196 2.07411C4.71206 2.07043 4.73192 2.0655 4.75142 2.05935ZM2.07349 6.36192V6.54526C2.07349 9.12805 2.07349 11.711 2.07349 14.2941C2.07349 14.7251 2.27601 14.9259 2.71011 14.9259H14.2891C14.7241 14.9259 14.9258 14.726 14.9258 14.2941V6.36192H2.07349ZM14.9275 5.2789C14.9275 4.74231 14.9275 4.2245 14.9275 3.70624C14.9275 3.3655 14.7009 3.14282 14.3575 3.14282C10.4532 3.14282 6.54877 3.14282 2.64439 3.14282C2.29926 3.14282 2.07751 3.36372 2.07573 3.70669C2.07304 4.19856 2.07573 4.69044 2.07573 5.17963C2.07573 5.21093 2.08198 5.24268 2.08556 5.2789H14.9275Z" fill="black" stroke="black" stroke-width="0.2"/>
<path d="M7.45508 10.9868L9.41368 9.30857C9.87952 8.90971 10.3451 8.51069 10.8103 8.11153C11.0678 7.89197 11.4004 7.90449 11.5998 8.13836C11.7992 8.37222 11.7652 8.70044 11.5068 8.92268C10.2768 9.97976 9.0453 11.0351 7.81229 12.0886C7.54092 12.3202 7.26642 12.3041 7.0107 12.0497C6.50104 11.5429 5.99258 11.0343 5.48531 10.524C5.24121 10.2794 5.22914 9.9583 5.45088 9.73606C5.67263 9.51382 5.99586 9.52455 6.23951 9.76691C6.64232 10.168 7.04244 10.5736 7.45508 10.9868Z" fill="black" stroke="black" stroke-width="0.2"/>
</svg>
