<svg width="18" height="18" viewBox="0 0 18 18" fill="none" xmlns="http://www.w3.org/2000/svg">
<path d="M16.9885 9.03114C16.9885 10.3803 16.9617 11.7301 16.9989 13.0777C17.0205 13.8335 16.7214 14.2507 16.0316 14.5032C13.8833 15.293 11.7543 16.138 9.59934 16.9082C9.18817 17.037 8.74736 17.0301 8.34028 16.8885C6.22176 16.1266 4.13152 15.2839 2.01523 14.5168C1.2711 14.2477 0.990567 13.8093 1.00024 13.015C1.03298 10.3175 1.02852 7.61928 1.00024 4.92256C0.993544 4.1728 1.2711 3.76013 1.9676 3.50542C4.11812 2.72165 6.2426 1.86684 8.39609 1.09365C8.80687 0.963573 9.24768 0.969127 9.65515 1.10952C11.7752 1.86533 13.8691 2.70201 15.9847 3.47444C16.7184 3.742 17.0264 4.18717 16.9974 4.98606C16.9558 6.3329 16.9885 7.6858 16.9885 9.03114ZM2.78837 5.79628C2.78837 8.07957 2.77721 10.1709 2.80251 12.2607C2.80251 12.5124 2.95134 12.9137 3.13067 12.9863C4.74765 13.64 6.38696 14.2356 8.11258 14.8826C8.11258 12.6197 8.13267 10.5284 8.08803 8.43782C8.08207 8.16119 7.80675 7.74702 7.55598 7.64196C6.0335 7.00557 4.482 6.44174 2.78837 5.79628ZM9.88881 14.906C11.6003 14.2538 13.1496 13.6801 14.681 13.0626C14.9005 12.9742 15.1832 12.6741 15.187 12.4678C15.2234 10.2896 15.2093 8.10981 15.2093 5.80913C13.4978 6.45912 11.9456 7.01842 10.4216 7.65783C10.176 7.75986 9.91783 8.18689 9.91187 8.46654C9.86946 10.5579 9.88881 12.6462 9.88881 14.9053V14.906ZM13.2969 4.6021C10.3948 2.56142 7.60583 2.603 4.72905 4.59001C6.0588 5.10169 7.31563 5.59826 8.58436 6.06232C8.82312 6.15184 9.08372 6.16189 9.32848 6.09104C10.6344 5.62396 11.9314 5.11605 13.2969 4.6021Z" fill="black" stroke="white" stroke-width="0.5"/>
</svg>
