<svg width="16" height="16" viewBox="0 0 16 16" fill="none" xmlns="http://www.w3.org/2000/svg">
<path d="M4.04503 8.3137C2.1385 5.96602 2.79998 2.77992 4.72837 1.18323C5.64869 0.416062 6.80975 -0.0028169 8.00804 1.4258e-05C9.20633 0.00284541 10.3654 0.427206 11.2821 1.19872C11.9619 1.76635 12.4793 2.50374 12.7818 3.33599C13.0905 4.16566 13.1737 5.06233 13.0228 5.9346C12.8794 6.79412 12.5158 7.60185 11.9672 8.27908C12.4506 8.64661 12.9544 8.97268 13.3913 9.37209C14.9279 10.7761 15.7908 12.5249 15.9716 14.603C15.9912 14.8307 16.0012 15.0584 15.9999 15.2834C15.9992 15.4703 15.9258 15.6496 15.7952 15.7833C15.6646 15.9171 15.487 15.9947 15.3001 15.9998C15.1165 16.0044 14.9378 15.9395 14.8 15.818C14.6621 15.6966 14.5752 15.5276 14.5567 15.3449C14.4942 14.8102 14.4838 14.2633 14.3576 13.7441C13.8774 11.7612 12.6934 10.3225 10.8744 9.40533C10.8426 9.39349 10.8087 9.38846 10.7749 9.39058C10.741 9.3927 10.708 9.40191 10.678 9.41763C8.89251 10.446 7.10777 10.446 5.32379 9.41763C5.29335 9.40302 5.26018 9.39499 5.22643 9.39405C5.19268 9.39311 5.1591 9.39928 5.1279 9.41216C3.13846 10.4268 1.92576 12.0258 1.53944 14.2305C1.47475 14.5975 1.47794 14.9764 1.44104 15.349C1.43219 15.4805 1.38515 15.6065 1.30568 15.7117C1.22622 15.8169 1.11778 15.8966 0.993676 15.941C0.720339 16.0508 0.467047 16.0034 0.245188 15.8153C0.164784 15.7471 0.100969 15.6616 0.0585817 15.5651C0.0161944 15.4686 -0.00365149 15.3637 0.000552058 15.2583C0.00875217 13.5114 0.523538 11.9297 1.5563 10.522C2.19406 9.65343 3.00404 8.92557 3.93569 8.38383C3.96804 8.36425 4.00084 8.34193 4.04503 8.3137ZM8.00067 8.72129C8.96352 8.7219 9.88726 8.34048 10.569 7.6608C11.2508 6.98111 11.6349 6.05872 11.637 5.09617C11.6377 4.61825 11.5442 4.14487 11.3618 3.70308C11.1795 3.26129 10.9118 2.85975 10.5742 2.52141C10.2365 2.18306 9.8355 1.91454 9.394 1.73119C8.95251 1.54784 8.4792 1.45326 8.00112 1.45284C7.03824 1.45356 6.11491 1.83579 5.43341 2.51579C4.75191 3.1958 4.36782 4.11812 4.36529 5.08069C4.36409 5.55858 4.45726 6.03201 4.63945 6.47383C4.82164 6.91566 5.08927 7.31719 5.427 7.6554C5.76474 7.99362 6.16592 8.26187 6.60757 8.44478C7.04921 8.62769 7.52263 8.72166 8.00067 8.72129Z" fill="black"/>
</svg>
