<svg width="17" height="16" viewBox="0 0 17 16" fill="none" xmlns="http://www.w3.org/2000/svg">
<path d="M1.52633 8.82715C0.904581 8.49604 0.428376 7.99641 0.18959 7.30823C0.0842452 7.00332 0.0253652 6.68426 0.0149344 6.3618C-0.0091716 5.52695 0.0235748 4.69075 0.00219781 3.85682C-0.0191792 3.02288 0.311027 2.37159 0.911857 1.83097C1.59137 1.21793 2.40279 0.845372 3.26333 0.572557C4.71196 0.113462 6.20244 -0.0322831 7.71475 0.00779662C8.92778 0.0401337 10.1217 0.199542 11.282 0.568913C12.082 0.82351 12.8407 1.161 13.4929 1.70344C14.0273 2.1466 14.4303 2.67538 14.5226 3.38861C14.5356 3.50139 14.5415 3.61486 14.5404 3.72838C14.5404 4.58053 14.5458 5.43313 14.5381 6.28528C14.5381 6.57313 14.5013 6.86006 14.4794 7.17751C14.4858 7.18161 14.5276 7.20803 14.5704 7.23353C15.4887 7.78599 15.9804 8.59305 15.9949 9.67111C16.0063 10.4946 15.9804 11.3194 16.0017 12.1428C16.0236 12.979 15.6879 13.6385 15.0816 14.1805C14.373 14.8145 13.527 15.1916 12.6301 15.4649C11.2156 15.8953 9.76466 16.0324 8.29147 15.9932C7.04433 15.9604 5.81674 15.7937 4.62782 15.4011C3.73226 15.1037 2.88946 14.7066 2.21313 14.0234C1.716 13.5224 1.44628 12.9303 1.46038 12.2057C1.47721 11.354 1.46038 10.5014 1.46721 9.64879C1.46721 9.38326 1.50359 9.1191 1.52633 8.82715ZM7.28539 1.48801C6.95654 1.48801 6.62679 1.46934 6.29932 1.4912C5.1909 1.56544 4.10704 1.76447 3.07639 2.19897C2.58745 2.40438 2.12125 2.64941 1.75238 3.04292C1.36669 3.45283 1.35896 3.81992 1.75238 4.22118C1.94798 4.41784 2.1674 4.58921 2.40552 4.73128C3.20829 5.21452 4.09521 5.46547 5.01079 5.62214C6.85785 5.93777 8.69491 5.89268 10.5079 5.40489C11.2729 5.19948 12.0088 4.91437 12.6242 4.39516C13.2323 3.88369 13.2309 3.39544 12.6296 2.87942C12.2417 2.54603 11.7923 2.31876 11.3202 2.13475C10.0212 1.63011 8.6667 1.46615 7.28539 1.48801ZM2.87354 9.50031C2.9686 9.67703 3.02864 9.82824 3.12233 9.95348C3.35884 10.2691 3.68405 10.4795 4.02653 10.6613C4.99759 11.1773 6.04871 11.4178 7.12984 11.5457C8.27451 11.6829 9.43207 11.6714 10.5738 11.5116C11.5321 11.3777 12.4645 11.1472 13.3323 10.7018C13.7285 10.4987 14.1056 10.2646 14.3707 9.89519C14.5954 9.58366 14.6118 9.29672 14.3634 9.00569C14.1711 8.78115 13.9218 8.60489 13.6912 8.4136C13.6648 8.3922 13.5821 8.40313 13.5502 8.42909C12.8748 8.98793 12.0948 9.34273 11.2683 9.6078C10.2086 9.94711 9.11881 10.1061 8.01039 10.1621C6.72322 10.2277 5.44833 10.1516 4.19254 9.85192C3.77319 9.75218 3.35657 9.62966 2.87581 9.50031H2.87354ZM2.91584 11.7102C2.91584 11.8923 2.92448 12.0691 2.91356 12.2439C2.90432 12.3663 2.92175 12.4891 2.96463 12.604C3.00751 12.7189 3.07482 12.8231 3.1619 12.9094C3.3029 13.0551 3.44753 13.2131 3.62219 13.3083C4.05792 13.5465 4.4941 13.8043 4.96121 13.9605C7.15212 14.6925 9.38124 14.7189 11.6222 14.2211C12.4409 14.0389 13.2141 13.7433 13.9123 13.2619C14.4744 12.8747 14.64 12.3551 14.5099 11.7038C14.4594 11.7293 14.4044 11.7552 14.3507 11.7844C13.0372 12.4931 11.6399 12.9312 10.1508 13.0492C9.62594 13.0906 9.09743 13.0806 8.57074 13.0947C7.08718 13.1408 5.61045 12.875 4.23575 12.3145C3.79866 12.136 3.37431 11.9206 2.91811 11.7102H2.91584ZM13.0531 5.88904C13.0076 5.9109 12.9571 5.93458 12.9089 5.95827C11.967 6.47218 10.9541 6.84317 9.90339 7.05909C9.00965 7.24492 8.10545 7.27088 7.19579 7.28682C5.20727 7.31779 3.33701 6.89331 1.59092 5.93458C1.54825 5.9146 1.50452 5.89696 1.45993 5.88175C1.46693 6.01832 1.46616 6.15518 1.45765 6.29166C1.40398 6.738 1.60456 7.07094 1.9425 7.31688C2.23664 7.53806 2.55095 7.73097 2.88127 7.89302C3.83641 8.34346 4.85432 8.55616 5.89861 8.65727C7.38045 8.80028 8.84773 8.73925 10.2941 8.37489C11.0732 8.17905 11.8137 7.89485 12.4814 7.42892C13.0331 7.04315 13.18 6.52667 13.0554 5.88904H13.0531Z" fill="black"/>
</svg>
